<svg width="24" height="24" viewBox="0 0 24 24" fill="none" xmlns="http://www.w3.org/2000/svg">
<path d="M17.5 9.82843L13.5 5.82843M2 21.3284L5.38437 20.9524C5.79786 20.9064 6.0046 20.8834 6.19785 20.8209C6.36929 20.7654 6.53245 20.687 6.68289 20.5878C6.85245 20.4759 6.99954 20.3289 7.29373 20.0347L20.5 6.82843C21.6046 5.72386 21.6046 3.933 20.5 2.82843C19.3954 1.72386 17.6046 1.72386 16.5 2.82843L3.29373 16.0347C2.99955 16.3289 2.85245 16.4759 2.74064 16.6455C2.64143 16.796 2.56301 16.9591 2.50751 17.1306C2.44496 17.3238 2.42198 17.5305 2.37604 17.944L2 21.3284Z" stroke="#F4F4F4" stroke-width="2" stroke-linecap="round" stroke-linejoin="round"/>
</svg>
