<svg width="71" height="50" viewBox="0 0 71 50" fill="none" xmlns="http://www.w3.org/2000/svg">
<g clip-path="url(#clip0_3_1551)">
<path opacity="0.1" d="M23.6736 49.9719C27.1112 49.9719 29.8979 49.5243 29.8979 48.9722C29.8979 48.4201 27.1112 47.9725 23.6736 47.9725C20.236 47.9725 17.4493 48.4201 17.4493 48.9722C17.4493 49.5243 20.236 49.9719 23.6736 49.9719Z" fill="#05064E"/>
<path opacity="0.1" d="M57.5079 50C61.7975 50 65.2749 49.5524 65.2749 49.0003C65.2749 48.4482 61.7975 48.0006 57.5079 48.0006C53.2184 48.0006 49.741 48.4482 49.741 49.0003C49.741 49.5524 53.2184 50 57.5079 50Z" fill="#05064E"/>
<path opacity="0.1" d="M1.0901 21.6036H7.57309V30.4399H1.56471C1.54874 30.5306 1.53341 30.6219 1.5168 30.7133H7.57309V37.8395C7.56223 37.8363 7.55265 37.8325 7.54243 37.8287C7.37124 37.7609 7.20132 37.6894 7.0314 37.6127L6.92281 37.5636C6.75247 37.4831 6.58213 37.3979 6.41179 37.308C6.35238 37.2767 6.29297 37.2442 6.23421 37.211C5.28854 36.6812 4.42946 36.01 3.68674 35.2205C3.66503 35.1994 3.64458 35.1771 3.62287 35.1566C3.51938 35.0442 3.41782 34.9305 3.31944 34.8142L3.21085 34.6865C3.09459 34.544 2.98217 34.3978 2.87294 34.2496C2.85697 34.2278 2.84164 34.2061 2.82503 34.1857C2.38078 33.5697 2.01192 32.9028 1.72632 32.1991C1.71738 32.178 1.70971 32.155 1.70141 32.1352C1.61368 31.9095 1.53597 31.6817 1.46825 31.4517C1.43887 31.3552 1.41076 31.2601 1.38649 31.1598C1.37755 31.1304 1.36988 31.1016 1.36286 31.0729C1.00003 29.6567 0.95723 28.1856 0.95723 26.7247C0.95723 26.5542 0.95723 26.383 0.95723 26.2137C0.95723 25.6228 0.964256 25.0281 0.974477 24.434C0.974477 24.2801 0.980864 24.1268 0.984058 23.9722C0.993001 23.58 1.00578 23.1878 1.02239 22.7956C1.02622 22.6863 1.03133 22.5777 1.03708 22.4691C1.03708 22.4065 1.04027 22.3439 1.04666 22.2813C1.06199 22.0539 1.07477 21.8285 1.0901 21.6036Z" fill="#05064E"/>
<path opacity="0.1" d="M7.5731 11.7651H4.017C4.59506 10.8603 5.22666 9.99086 5.90843 9.16141C6.4367 8.51241 6.99436 7.88001 7.5731 7.27061V11.7651Z" fill="#05064E"/>
<path opacity="0.1" d="M7.57309 12.0385V21.3302H1.11053C1.11053 21.3034 1.11501 21.2759 1.11692 21.2491C1.12267 21.1756 1.12842 21.1022 1.13481 21.0293C1.14183 20.9437 1.1495 20.8575 1.1578 20.7738C1.16611 20.6901 1.17505 20.5879 1.18463 20.4953C1.19422 20.4027 1.20316 20.3088 1.21402 20.2162C1.22488 20.1235 1.23446 20.0309 1.24596 19.9389C1.25745 19.847 1.26768 19.7537 1.27981 19.6617C1.28939 19.585 1.29961 19.509 1.30983 19.4324C1.32453 19.3244 1.33986 19.2158 1.35647 19.1085C1.35647 19.0925 1.36094 19.0759 1.36349 19.0606C1.48008 18.275 1.63894 17.4963 1.83938 16.7278C2.0492 15.9216 2.31712 15.1317 2.64106 14.3643C2.98534 13.5614 3.38844 12.7851 3.84708 12.0417L7.57309 12.0385Z" fill="#05064E"/>
<path opacity="0.1" d="M9.12086 21.603V30.4399H22.9677V21.603H9.12086ZM9.12086 30.7126V38.3013C9.20007 38.318 9.27864 38.3339 9.35658 38.3473C9.46261 38.3678 9.56801 38.3863 9.67597 38.4023C9.69641 38.4055 9.71749 38.4087 9.73984 38.4106C9.782 38.4176 9.82544 38.4234 9.8676 38.4291C9.97428 38.4438 10.0803 38.4559 10.187 38.4655C10.2375 38.4706 10.2886 38.4751 10.3397 38.4789L10.4629 38.4885C10.53 38.4936 10.5964 38.4975 10.6622 38.4994C10.7031 38.4994 10.744 38.5032 10.7862 38.5045C10.8181 38.5045 10.85 38.5045 10.8833 38.5045C10.9165 38.5045 10.9637 38.5045 11.004 38.5045C11.0589 38.5045 11.1139 38.5045 11.1682 38.5045H11.2416C11.2966 38.5045 11.3515 38.5045 11.4058 38.4994H11.4096C11.4473 38.4994 11.4856 38.4994 11.524 38.4943C11.5346 38.4949 11.5453 38.4949 11.5559 38.4943C11.5878 38.4943 11.6198 38.4943 11.6504 38.4898H11.6728L11.8868 38.4732C11.9571 38.4668 12.028 38.4585 12.0995 38.4508L12.2451 38.4336C12.8377 38.3506 13.4236 38.2259 13.9986 38.0605C15.2902 37.7003 16.5537 37.1963 17.8447 36.827C19.5138 36.3512 21.358 36.1174 22.9709 36.6993V30.7126H9.12086ZM22.9677 11.7651V0.000640295C21.4517 -0.0157843 19.9399 0.161529 18.4688 0.528274C14.9625 1.40915 11.8165 3.31975 9.12086 5.7599V11.7644H9.81586V12.0372H9.12086V21.3302H22.9677V12.0378H12.6693V11.7651H22.9677ZM40.7533 7.79122C39.8859 7.76056 39.0235 7.48588 38.2436 7.06173C36.752 6.25048 35.5607 4.99783 34.2295 3.94065C31.4635 1.73877 28.0333 0.410099 24.5142 0.080488V11.7651H44.2813L44.3305 11.7133L40.7533 7.79122ZM42.5541 7.47183L44.4634 9.56703V6.92248C43.824 7.00169 43.2637 7.19013 42.5566 7.46928L42.5541 7.47183ZM44.4634 40.1858V30.7126H40.395C40.3841 30.6724 40.3733 30.6315 40.3605 30.5906C40.3726 30.6315 40.3828 30.6724 40.3943 30.7126H24.5168V37.5636C24.6675 37.6753 24.8164 37.7929 24.9639 37.9123C25.123 38.0401 25.2801 38.1749 25.4379 38.3071L25.597 38.4387C25.673 38.5026 25.7496 38.5664 25.8269 38.6265C25.9802 38.7508 26.135 38.8735 26.2913 38.9944C26.3686 39.0583 26.4478 39.1158 26.5264 39.1758C27.7737 40.1295 29.0896 40.9902 30.4632 41.7508C30.7711 41.9211 31.0818 42.0874 31.3952 42.2497C31.6041 42.3563 31.8142 42.4624 32.025 42.5652C32.3419 42.7198 32.6612 42.8689 32.9832 43.0124C35.9514 44.3448 39.09 45.2591 42.3094 45.7291C43.0244 45.8347 43.7422 45.9178 44.4627 45.9782V40.1851H44.5266L44.4634 40.1858ZM24.5168 12.0378V21.3302H44.4659V12.0378H24.5168ZM24.5168 21.603V30.4399H44.4659V21.603H24.5168ZM46.0143 6.91098V9.86088L48.4513 7.18693C47.6439 7.05662 46.8316 6.96357 46.0143 6.90779V6.91098ZM46.0143 21.6062V30.4399H65.4173V21.603L46.0143 21.6062ZM65.3464 40.8871L65.4148 30.7126H46.0143V46.0798C47.2641 46.1323 48.5158 46.1174 49.764 46.0351H49.7857C50.3819 45.9976 50.9753 45.9431 51.566 45.8716H51.5794C54.7306 45.5048 57.8118 44.6827 60.7268 43.4308M69.1587 23.0581C69.0859 22.8863 69.0098 22.7157 68.9326 22.5471C68.7882 22.2277 68.6355 21.9172 68.4784 21.6068H66.9645V30.4399H70.792C70.7901 27.9384 70.1571 25.3833 69.1606 23.0549L69.1587 23.0581ZM66.9645 30.7158V39.4671C68.0427 38.4336 68.9536 37.2512 69.6097 35.8995C70.3986 34.2719 70.7595 32.5095 70.7888 30.7145L66.9645 30.7158ZM66.9645 19.0312V21.3308H68.3366C67.9215 20.5392 67.4641 19.7705 66.9664 19.028L66.9645 19.0312ZM53.8056 8.64464C53.7046 8.60631 53.6037 8.56734 53.5021 8.52965C52.431 8.13407 51.3363 7.80511 50.2246 7.54465L46.4953 11.6373L46.4238 11.7133L46.4717 11.7657H59.7443C57.8958 10.4933 55.903 9.44455 53.8075 8.64144L53.8056 8.64464ZM60.1333 12.041H46.2865L46.0143 12.2902V21.3302H48.3996H48.4034H65.4199V16.9514C63.8806 15.0897 62.1039 13.4378 60.1353 12.0378L60.1333 12.041Z" fill="#05064E"/>
<path opacity="0.1" d="M7.57309 16.7252V21.3302H1.11053C1.11053 21.3034 1.11501 21.2759 1.11692 21.2491C1.12267 21.1756 1.12842 21.1022 1.13481 21.0293C1.14183 20.9437 1.1495 20.8575 1.1578 20.7738C1.16611 20.6901 1.17505 20.5879 1.18463 20.4953C1.19422 20.4027 1.20316 20.3088 1.21402 20.2162C1.22488 20.1235 1.23446 20.0309 1.24596 19.9389C1.25745 19.8469 1.26768 19.7537 1.27981 19.6617C1.28939 19.585 1.29961 19.509 1.30983 19.4324C1.32453 19.3244 1.33986 19.2158 1.35647 19.1085C1.35647 19.0925 1.36094 19.0759 1.36349 19.0606C1.48008 18.275 1.63894 17.4963 1.83938 16.7278L7.57309 16.7252Z" fill="#05064E"/>
<path opacity="0.1" d="M1.0901 21.6036H7.57309V30.4399H1.56471C1.54874 30.5306 1.53341 30.6219 1.5168 30.7133H7.57309V37.8395C7.56223 37.8363 7.55265 37.8325 7.54243 37.8287C7.37124 37.7609 7.20132 37.6894 7.0314 37.6127L6.92281 37.5636C6.75247 37.4831 6.58213 37.3979 6.41179 37.308C6.35238 37.2767 6.29297 37.2442 6.23421 37.211C5.28854 36.6812 4.42946 36.01 3.68674 35.2205C3.66503 35.1994 3.64458 35.1771 3.62287 35.1566C3.51938 35.0442 3.41782 34.9305 3.31944 34.8142L3.21085 34.6865C3.09459 34.544 2.98217 34.3978 2.87294 34.2496C2.85697 34.2278 2.84164 34.2061 2.82503 34.1857C2.38078 33.5697 2.01192 32.9028 1.72632 32.1991C1.71738 32.178 1.70971 32.155 1.70141 32.1352C1.61368 31.9095 1.53597 31.6817 1.46825 31.4517C1.43887 31.3552 1.41076 31.2601 1.38649 31.1598C1.37755 31.1304 1.36988 31.1016 1.36286 31.0729C1.00003 29.6567 0.95723 28.1856 0.95723 26.7247C0.95723 26.5542 0.95723 26.383 0.95723 26.2137C0.95723 25.6228 0.964256 25.0281 0.974477 24.434C0.974477 24.2801 0.980864 24.1268 0.984058 23.9722C0.993001 23.58 1.00578 23.1878 1.02239 22.7956C1.02622 22.6863 1.03133 22.5777 1.03708 22.4691C1.03708 22.4065 1.04027 22.3439 1.04666 22.2813C1.06199 22.0539 1.07477 21.8285 1.0901 21.6036Z" fill="#05064E"/>
<path opacity="0.1" d="M13.9954 13.3684V21.3302H9.12086V13.3684H9.81586V10.6728H12.6687V13.3684H13.9954Z" fill="#05064E"/>
<path opacity="0.1" d="M13.9954 21.603H9.12151V30.4392H13.9954V21.603Z" fill="#05064E"/>
<path opacity="0.1" d="M9.12086 30.7133H13.9954V38.0593C13.4204 38.2245 12.8345 38.3489 12.242 38.4317L12.0963 38.4495C12.0248 38.4579 11.9539 38.4649 11.8836 38.4719C11.8133 38.4789 11.7405 38.484 11.6696 38.4885H11.6472C11.6166 38.4885 11.5834 38.4923 11.5533 38.493H11.5208C11.4824 38.493 11.4441 38.4968 11.4058 38.4981C11.3515 38.5013 11.2972 38.5019 11.2416 38.5026C11.218 38.5026 11.1956 38.5026 11.172 38.5026C11.1171 38.5026 11.0628 38.5026 11.0078 38.5026H10.8871C10.8545 38.5026 10.8232 38.5026 10.7894 38.5026L10.6661 38.4981C10.6022 38.4981 10.5332 38.4911 10.4668 38.4866L10.3441 38.4777L10.1915 38.4636C10.0841 38.454 9.97747 38.4419 9.87207 38.4272L9.74432 38.4093L9.68044 38.4004C9.57376 38.3838 9.46836 38.3659 9.36105 38.3454C9.28248 38.332 9.20454 38.3154 9.12534 38.2994L9.12086 30.7133Z" fill="#05064E"/>
<path opacity="0.1" d="M44.4659 12.4281H40.4467V21.3296H44.4659V12.4281Z" fill="#05064E"/>
<path opacity="0.1" d="M44.4666 21.603V30.4399H24.5168V26.6283H35.1429V28.8768H40.4467V21.603H44.4666Z" fill="#05064E"/>
<path opacity="0.1" d="M44.5298 40.1877H44.4659V45.9846C43.7462 45.9237 43.0287 45.8409 42.3132 45.7361C39.0923 45.2646 35.9523 44.3483 32.9832 43.0136C32.1259 42.6278 31.2862 42.2067 30.4638 41.7501C29.0902 40.9891 27.7742 40.1285 26.5264 39.1752C26.213 38.935 25.9036 38.6893 25.5982 38.4381C25.3868 38.2637 25.1766 38.0848 24.9639 37.9111C24.8164 37.7916 24.6675 37.6741 24.5168 37.5616V30.7133H40.3937C40.3828 30.6724 40.372 30.6315 40.3605 30.5913C40.3726 30.6315 40.3841 30.6724 40.395 30.7133H44.4659V40.1838C44.4876 40.1845 44.5087 40.1864 44.5298 40.1877Z" fill="#05064E"/>
<path opacity="0.1" d="M54.9483 11.7651H52.3293V10.9513H53.5034V8.5271C53.6052 8.56415 53.7065 8.60226 53.8075 8.64144V10.9513H54.9483V11.7651Z" fill="#05064E"/>
<path opacity="0.1" d="M61.2582 21.3302H48.4008C48.4008 21.3302 48.4008 21.3302 48.4053 21.3334L48.3995 21.3302H46.0143V12.4288H46.6902V19.0082H49.7787V15.1117H52.33V12.0385H54.949V15.1142H57.5003V19.0108H61.2582V21.3302Z" fill="#05064E"/>
<path opacity="0.1" d="M46.0143 21.603V30.4399H61.2582V21.603H46.0143ZM65.3963 40.8418L65.4173 33.8471H61.2582V30.7171H46.0143V46.0798C47.2641 46.1323 48.5158 46.1174 49.764 46.0351H49.7857C50.3819 45.9976 50.9753 45.9431 51.566 45.8716H51.5794C54.7306 45.5048 57.8118 44.6827 60.7268 43.4308" fill="#05064E"/>
<path opacity="0.1" d="M67.2353 30.7133H70.7914C70.7601 32.5076 70.3998 34.27 69.6116 35.8976C68.9555 37.2499 68.044 38.4323 66.967 39.4652V33.8439H67.2353V30.7133Z" fill="#05064E"/>
<path opacity="0.1" d="M70.7933 30.4399H67.2353V23.0549H69.1606C70.1571 25.3833 70.7901 27.9384 70.7933 30.4399Z" fill="#05064E"/>
<path opacity="0.1" d="M44.4666 14.9028H42.3132V17.6936H44.4666V14.9028Z" fill="#05064E"/>
<path opacity="0.1" d="M44.4666 20.6876H42.3132V21.3302H44.4666V20.6876Z" fill="#05064E"/>
<path opacity="0.1" d="M44.4666 21.603H42.3132V23.4778H44.4666V21.603Z" fill="#05064E"/>
<path opacity="0.1" d="M44.4666 26.4724H42.3132V29.2632H44.4666V26.4724Z" fill="#05064E"/>
<path opacity="0.1" d="M44.4666 32.2572H42.3132V35.048H44.4666V32.2572Z" fill="#05064E"/>
<path opacity="0.1" d="M44.4659 40.1838C44.4876 40.1838 44.5087 40.1838 44.5298 40.1877H44.4659V40.836H42.3132V38.042H44.4659V40.1838Z" fill="#05064E"/>
<path opacity="0.1" d="M44.4659 43.8255V45.9814C43.7462 45.9205 43.0287 45.8377 42.3132 45.7329V43.8255H44.4659Z" fill="#05064E"/>
<path opacity="0.1" d="M33.7452 30.2348H24.5168V30.4399H33.7452V30.2348Z" fill="#05064E"/>
<path opacity="0.1" d="M33.7452 30.7126H24.5168V31.4983H33.7452V30.7126Z" fill="#05064E"/>
<path opacity="0.1" d="M33.7452 34.0739H24.5168V35.3374H33.7452V34.0739Z" fill="#05064E"/>
<path opacity="0.1" d="M33.7446 37.913V39.1765H26.5264C26.213 38.9372 25.9034 38.6914 25.5976 38.4393C25.3862 38.2649 25.1766 38.0861 24.9633 37.913H33.7446Z" fill="#05064E"/>
<path opacity="0.1" d="M33.7446 41.7514V43.0136H32.9825C32.1261 42.6274 31.2866 42.206 30.4638 41.7495L33.7446 41.7514Z" fill="#05064E"/>
<path opacity="0.1" d="M51.5813 22.4596H49.7646V24.2763H51.5813V22.4596Z" fill="#05064E"/>
<path opacity="0.1" d="M12.2464 13.9951H10.4297V15.8118H12.2464V13.9951Z" fill="#05064E"/>
<path opacity="0.1" d="M12.2464 18.2149H10.4297V20.0316H12.2464V18.2149Z" fill="#05064E"/>
<path opacity="0.1" d="M12.2464 22.4347H10.4297V24.2513H12.2464V22.4347Z" fill="#05064E"/>
<path opacity="0.1" d="M12.2464 26.6538H10.4297V28.4705H12.2464V26.6538Z" fill="#05064E"/>
<path opacity="0.1" d="M12.2464 30.8736H10.4297V32.6903H12.2464V30.8736Z" fill="#05064E"/>
<path opacity="0.1" d="M12.2464 35.0934H10.4297V36.9101H12.2464V35.0934Z" fill="#05064E"/>
<path opacity="0.1" d="M58.5166 22.4596H56.6999V24.2763H58.5166V22.4596Z" fill="#05064E"/>
<path opacity="0.1" d="M51.5813 26.9406H49.7646V28.7573H51.5813V26.9406Z" fill="#05064E"/>
<path opacity="0.1" d="M58.5166 26.9406H56.6999V28.7573H58.5166V26.9406Z" fill="#05064E"/>
<path opacity="0.1" d="M51.5813 31.421H49.7646V33.2377H51.5813V31.421Z" fill="#05064E"/>
<path opacity="0.1" d="M58.5166 31.421H56.6999V33.2377H58.5166V31.421Z" fill="#05064E"/>
<path opacity="0.1" d="M51.5813 35.9021H49.7646V37.7188H51.5813V35.9021Z" fill="#05064E"/>
<path opacity="0.1" d="M58.5166 35.9021H56.6999V37.7188H58.5166V35.9021Z" fill="#05064E"/>
<path opacity="0.1" d="M51.5813 40.3831H49.7646V42.1998H51.5813V40.3831Z" fill="#05064E"/>
<path opacity="0.1" d="M58.5166 40.3831H56.6999V42.1998H58.5166V40.3831Z" fill="#05064E"/>
<path opacity="0.1" d="M49.7646 46.0351V44.8636H51.5807V45.8684L49.7646 46.0351Z" fill="#05064E"/>
<path opacity="0.1" d="M1.35582 19.0593V20.0986H7.57308V19.0593H1.35582ZM1.97544 20.0335H1.46825V19.1232H1.97927L1.97544 20.0335ZM2.59442 20.0335H2.08339V19.1232H2.59442V20.0335ZM3.21212 20.0335H2.70109V19.1232H3.21212V20.0335ZM3.8311 20.0335H3.32071V19.1232H3.83174L3.8311 20.0335ZM4.44944 20.0335H3.93841V19.1232H4.44944V20.0335ZM5.06842 20.0335H4.55739V19.1232H5.06842V20.0335ZM5.6874 20.0335H5.17637V19.1232H5.6874V20.0335ZM6.30574 20.0335H5.79471V19.1232H6.30574V20.0335ZM6.92408 20.0335H6.41305V19.1232H6.92408V20.0335ZM7.54242 20.0335H7.03139V19.1232H7.54242V20.0335Z" fill="#05064E"/>
<path opacity="0.1" d="M1.35582 22.0833V23.1226H7.57308V22.0833H1.35582ZM1.97544 23.0568H1.46825V22.1491H1.97927L1.97544 23.0568ZM2.59442 23.0568H2.08339V22.1491H2.59442V23.0568ZM3.21212 23.0568H2.70109V22.1491H3.21212V23.0568ZM3.8311 23.0568H3.32071V22.1491H3.83174L3.8311 23.0568ZM4.44944 23.0568H3.93841V22.1491H4.44944V23.0568ZM5.06842 23.0568H4.55739V22.1491H5.06842V23.0568ZM5.6874 23.0568H5.17637V22.1491H5.6874V23.0568ZM6.30574 23.0568H5.79471V22.1491H6.30574V23.0568ZM6.92408 23.0568H6.41305V22.1491H6.92408V23.0568ZM7.54242 23.0568H7.03139V22.1491H7.54242V23.0568Z" fill="#05064E"/>
<path opacity="0.1" d="M1.35582 25.1086V26.1498H7.57308V25.1086H1.35582ZM1.97544 26.0821H1.46825V25.1738H1.97927L1.97544 26.0821ZM2.59442 26.0821H2.08339V25.1738H2.59442V26.0821ZM3.21212 26.0821H2.70109V25.1738H3.21212V26.0821ZM3.8311 26.0821H3.32071V25.1738H3.83174L3.8311 26.0821ZM4.44944 26.0821H3.93841V25.1738H4.44944V26.0821ZM5.06842 26.0821H4.55739V25.1738H5.06842V26.0821ZM5.6874 26.0821H5.17637V25.1738H5.6874V26.0821ZM6.30574 26.0821H5.79471V25.1738H6.30574V26.0821ZM6.92408 26.0821H6.41305V25.1738H6.92408V26.0821ZM7.54242 26.0821H7.03139V25.1738H7.54242V26.0821Z" fill="#05064E"/>
<path opacity="0.1" d="M1.35582 28.1339V29.1719H7.57308V28.1339H1.35582ZM1.97544 29.1074H1.46825V28.1984H1.97927L1.97544 29.1074ZM2.59442 29.1074H2.08339V28.1984H2.59442V29.1074ZM3.21212 29.1074H2.70109V28.1984H3.21212V29.1074ZM3.8311 29.1074H3.32071V28.1984H3.83174L3.8311 29.1074ZM4.44944 29.1074H3.93841V28.1984H4.44944V29.1074ZM5.06842 29.1074H4.55739V28.1984H5.06842V29.1074ZM5.6874 29.1074H5.17637V28.1984H5.6874V29.1074ZM6.30574 29.1074H5.79471V28.1984H6.30574V29.1074ZM6.92408 29.1074H6.41305V28.1984H6.92408V29.1074ZM7.54242 29.1074H7.03139V28.1984H7.54242V29.1074Z" fill="#05064E"/>
<path opacity="0.1" d="M1.38266 31.1585C1.40757 31.2562 1.43568 31.354 1.46506 31.4504V31.2237H1.97609V32.132H1.70269C1.71099 32.1531 1.7193 32.1761 1.7276 32.1959H7.57309V31.1585H1.38266ZM2.59635 32.132H2.08532V31.2237H2.59635V32.132ZM3.21405 32.132H2.70302V31.2237H3.21405V32.132ZM3.83303 32.132H3.32072V31.2237H3.83175L3.83303 32.132ZM4.45137 32.132H3.94034V31.2237H4.45137V32.132ZM5.07035 32.132H4.55932V31.2237H5.07035V32.132ZM5.68933 32.132H5.1783V31.2237H5.68933V32.132ZM6.30767 32.132H5.79664V31.2237H6.30767V32.132ZM6.92601 32.132H6.41498V31.2237H6.92601V32.132ZM7.54435 32.132H7.03332V31.2237H7.54435V32.132Z" fill="#05064E"/>
<path opacity="0.1" d="M2.82631 34.1838C2.84228 34.2042 2.85761 34.2272 2.87422 34.2476H3.21213V34.6839C3.24854 34.7274 3.28432 34.7708 3.32137 34.8117V34.2451H3.83239V35.1566H3.62542C3.64587 35.1777 3.66567 35.2001 3.6893 35.2205H7.57501V34.1838H2.82631ZM4.44945 35.1566H3.93843V34.2489H4.44945V35.1566ZM5.06843 35.1566H4.55741V34.2489H5.06843V35.1566ZM5.68741 35.1566H5.17639V34.2489H5.68741V35.1566ZM6.30575 35.1566H5.79473V34.2489H6.30575V35.1566ZM6.92409 35.1566H6.41307V34.2489H6.92409V35.1566ZM7.54243 35.1566H7.03141V34.2489H7.54243V35.1566Z" fill="#05064E"/>
<path opacity="0.1" d="M6.23676 37.2084C6.29488 37.2416 6.35429 37.2723 6.41434 37.3055V37.2736H6.92536V37.561L7.03396 37.6115V37.2736H7.54498V37.8261C7.55478 37.831 7.56505 37.8348 7.57564 37.8376V37.2084H6.23676Z" fill="#05064E"/>
<path opacity="0.1" d="M40.3605 30.5906C40.3726 30.6315 40.3828 30.6724 40.3943 30.7126C40.3841 30.6724 40.3732 30.6315 40.3605 30.5906ZM9.81841 11.7632V12.0359H12.6718V11.7632H9.81841ZM40.3605 30.5906C40.3726 30.6315 40.3828 30.6724 40.3943 30.7126C40.3841 30.6724 40.3732 30.6315 40.3605 30.5906ZM40.3605 30.5906C40.3726 30.6315 40.3828 30.6724 40.3943 30.7126C40.3841 30.6724 40.3732 30.6315 40.3605 30.5906Z" fill="#05064E"/>
<path d="M29.6922 24.2526C29.6922 24.2526 29.4405 24.2175 29.4405 23.8508C29.4405 23.4842 29.2604 22.7994 29.2604 22.7994C29.2604 22.7962 29.1045 21.6068 28.8892 21.4177C28.674 21.2286 28.3974 20.1184 28.3974 20.1184C28.3974 20.1184 28.3501 19.5161 28.2537 19.3864C28.1572 19.2567 28.0269 18.9392 27.8346 18.4863C27.6423 18.0334 26.8407 17.7198 26.8407 17.7198C26.8407 17.7198 25.3913 16.8792 24.9805 16.6051C24.9432 16.5826 24.9083 16.5563 24.8764 16.5266C24.8049 16.4327 24.4931 16.4307 24.4931 16.4307C24.4606 16.2251 24.4293 15.9887 24.419 15.7747C24.419 15.7517 24.419 15.7287 24.4158 15.7057C24.8738 15.435 25.2188 15.0081 25.3874 14.5035C25.3951 14.4793 25.4015 14.4537 25.4085 14.4294C25.436 14.4204 25.4612 14.4057 25.4827 14.3864C25.5041 14.367 25.5213 14.3434 25.5331 14.317C25.5701 14.2346 25.5708 14.1382 25.6168 14.0615C25.6704 13.9708 25.7726 13.9222 25.8531 13.8539C26.0562 13.6814 26.1086 13.3908 26.099 13.1263C26.0927 12.9123 26.0582 12.6964 26.0716 12.4837L26.0754 12.4301C26.0792 12.3981 26.0837 12.3662 26.0895 12.3355C26.1208 12.1771 26.1891 12.0276 26.2274 11.8705C26.2658 11.7133 26.2696 11.5364 26.1802 11.401C26.0492 11.2023 25.7765 11.1627 25.5369 11.1423C25.2654 11.1193 25.0227 11.1493 24.8489 10.9238C24.7676 10.806 24.6761 10.6954 24.5755 10.5936C24.5398 10.5603 24.1923 10.3483 24.1923 10.3342C23.8531 10.1771 23.4687 10.1476 23.1095 10.2512C22.9294 10.3035 22.7595 10.3891 22.5768 10.4319C22.1827 10.5252 21.7291 10.4243 21.3944 10.6498C21.2079 10.7775 21.0961 10.9807 20.9913 11.1787C20.9062 11.3418 20.8197 11.5047 20.732 11.6673C20.5908 11.935 20.4471 12.2071 20.3877 12.5035C20.3752 12.568 20.3675 12.6333 20.3647 12.699V12.7022C20.3647 12.7258 20.3647 12.7494 20.3647 12.7731V12.8031C20.3647 12.8255 20.3647 12.8472 20.3685 12.867C20.3724 12.8868 20.3717 12.8932 20.3736 12.9066C20.3756 12.92 20.3787 12.95 20.3826 12.9705C20.3864 12.9909 20.3941 13.0267 20.4017 13.0548C20.4049 13.0669 20.4094 13.0784 20.4132 13.0899C20.4196 13.1116 20.4273 13.1327 20.4356 13.1538C20.4401 13.1647 20.4445 13.1762 20.4497 13.187C20.4592 13.2094 20.4707 13.2311 20.4822 13.2509C20.4873 13.2598 20.4912 13.2681 20.4963 13.2764C20.5141 13.3061 20.5337 13.3347 20.5551 13.362C20.6918 13.5326 20.893 13.6412 21.0418 13.8009C21.0418 13.8073 21.0418 13.8137 21.0418 13.8194C21.0418 13.8373 21.0418 13.8545 21.0418 13.8724C21.0497 14.2286 21.1445 14.5774 21.3179 14.8886C21.4914 15.1997 21.7382 15.4638 22.037 15.6578C22.037 15.6821 22.0402 15.707 22.0415 15.7313C22.054 15.9209 22.0516 16.1112 22.0345 16.3004C22.0085 16.2698 21.9759 16.2454 21.9392 16.229C21.9025 16.2127 21.8626 16.2048 21.8224 16.2059C21.795 16.2046 21.7674 16.2069 21.7406 16.2129L21.7349 16.2084V16.2142C21.5943 16.2487 21.4212 16.395 21.2558 16.8108C21.2558 16.8108 20.7524 17.3781 20.3692 17.3544C19.9859 17.3308 19.0156 17.9447 19.0156 17.9447C19.0156 17.9447 18.0689 18.5592 17.8658 19.1852C17.7522 19.5401 17.6161 19.8875 17.4582 20.2251L16.288 22.6365L16.0721 24.5497C16.0721 24.5497 16.1915 25.4005 16.1679 25.5302C16.1443 25.6599 16.6591 26.8295 16.6591 26.8295C16.6591 26.8295 18.3602 29.8183 19.0552 29.9716L19.105 29.9365C19.1348 29.952 19.1663 29.9638 19.1989 29.9716L19.342 29.8707C19.3506 29.9832 19.347 30.0963 19.3311 30.208C19.2353 30.5031 19.3669 32.429 19.5343 32.8066C19.7016 33.1841 19.6422 38.134 19.6422 38.134L19.6186 38.5709C19.6186 38.5709 19.6186 38.585 19.6243 38.6092L19.6186 38.7127L19.6358 38.7217C19.6538 38.8603 19.6479 39.0009 19.6186 39.1375C19.5586 39.3292 19.5343 39.8708 19.5343 39.8708C19.5343 39.8708 19.0558 42.9293 19.2826 43.5438C19.5094 44.1583 19.7023 44.8316 19.7023 44.8316C19.7023 44.8316 19.9418 45.5982 19.7138 45.7291C19.4857 45.8601 18.8374 46.0798 18.9709 46.3992C19.0922 46.6943 19.5528 47.4851 19.6212 47.6007L19.6154 47.6614L19.5215 48.679C19.5367 48.8134 19.5731 48.9445 19.6295 49.0674C19.7323 49.289 19.9322 49.519 20.3123 49.4941C20.3762 49.4896 20.4503 49.4819 20.5218 49.4724C21.2175 49.3791 22.0741 49.0687 22.0741 49.0687C22.0296 49.0404 21.9888 49.0067 21.9527 48.9684C21.9185 48.9352 21.8914 48.8955 21.8731 48.8516C21.8547 48.8077 21.8455 48.7605 21.846 48.7129C21.8563 48.5276 21.5094 47.6448 21.4232 47.4276C21.4097 47.3963 21.4027 47.3784 21.4027 47.3784C21.4027 47.3784 22.1935 46.5519 22.0619 45.8192C22.0619 45.8192 21.1868 45.3082 21.4749 45.0277C21.763 44.7473 22.2778 43.9418 22.2778 43.9418C22.2778 43.9418 22.3015 40.9299 22.2778 40.4802C22.2532 40.1681 22.268 39.8541 22.3219 39.5457C22.3315 39.4991 22.343 39.4537 22.3551 39.409C22.7536 39.4685 23.1558 39.499 23.5586 39.5003C23.7055 39.5003 23.855 39.5003 24.0058 39.4914C24.0058 39.534 24.0077 39.58 24.0115 39.6294C24.0447 40.3755 24.1067 41.6837 24.1571 42.1698C24.2287 42.8667 24.6241 44.7447 24.6241 44.7447C24.6241 44.7447 23.8697 45.2289 24.7557 46.4222C24.7557 46.4222 24.7557 46.8546 24.6969 46.9172C24.6342 47.1219 24.5836 47.3301 24.5455 47.5407C24.5085 47.7655 24.4931 47.9929 24.5532 48.1111C24.6969 48.3935 25.5593 48.3705 25.5593 48.3705L25.5803 48.3666C25.7432 48.3498 25.9077 48.3655 26.0644 48.4127C26.2211 48.46 26.3668 48.5379 26.4932 48.6419C26.8209 48.9051 28.0646 48.7895 28.7378 48.7058C29.0017 48.6726 29.178 48.6419 29.178 48.6419C29.1865 48.6121 29.1895 48.5809 29.1869 48.55C29.1799 48.3845 29.0502 48.0217 28.1712 47.6978C28.1712 47.6978 27.3447 47.1421 27.3562 46.6579H27.3389H27.2431C27.3127 46.6541 27.3574 46.6579 27.3574 46.6579C27.3574 46.6579 27.0336 45.4761 27.1658 45.3803C27.298 45.2845 26.902 43.975 26.902 43.975C26.902 43.975 26.6752 41.7776 26.6631 41.6237C26.6636 41.4916 26.6836 41.3603 26.7225 41.234L26.6631 40.0293C26.6631 40.0293 26.6516 39.6287 26.6631 39.4984C26.6611 39.3853 26.652 39.2724 26.6356 39.1605C26.6299 39.1158 26.6241 39.0692 26.6177 39.0232C26.9275 38.9446 27.1288 38.8718 27.1288 38.8718L27.093 34.6782C27.3562 34.1672 27.4047 33.0461 27.4034 32.2508C27.4034 31.7398 27.3804 31.3616 27.3804 31.3616L27.7401 30.7746C27.7401 30.7746 27.8231 30.0719 27.6915 29.918C27.6334 29.8484 27.6596 29.7762 27.7075 29.7168C27.7324 29.697 27.7586 29.6791 27.7861 29.6631C27.7861 29.6631 27.7822 29.6574 27.7778 29.6491C27.8029 29.6281 27.8296 29.6091 27.8576 29.5922C27.8576 29.5922 27.7298 29.3942 27.8442 29.3105C27.9515 29.3833 28.0473 29.4383 28.1201 29.483C28.115 29.5296 28.1099 29.5564 28.1099 29.5564L28.1406 29.4926C28.2109 29.5322 28.2537 29.5564 28.2537 29.5564C28.2537 29.5564 28.8171 28.4341 28.8049 28.2686C28.7928 28.1032 29.1882 27.4063 29.1882 27.4063C29.1882 27.4063 29.2361 27.0403 29.452 26.887C29.6679 26.7337 29.6194 25.6228 29.6194 25.6228C29.6194 25.6228 29.6794 25.0441 29.8231 24.8077C29.9669 24.5714 29.6922 24.2526 29.6922 24.2526ZM18.9121 23.7601L18.923 24.0278C18.8591 23.9249 18.8131 23.8508 18.8131 23.8508L18.9121 23.7601Z" fill="url(#paint0_linear_3_1551)"/>
<path d="M28.2843 29.0716L28.1463 29.6593C28.1463 29.6593 27.0412 29.0952 26.8419 28.3785C26.6426 27.6618 27.1754 27.3897 27.1754 27.3897L28.2051 27.826L28.2843 29.0716Z" fill="white"/>
<path opacity="0.1" d="M28.2843 29.0716L28.1463 29.6593C28.1463 29.6593 27.0412 29.0952 26.8419 28.3785C26.6426 27.6618 27.1754 27.3897 27.1754 27.3897L28.2051 27.826L28.2843 29.0716Z" fill="black"/>
<path d="M22.0824 49.0725C22.0824 49.0725 21.0603 49.4481 20.3577 49.4954C19.9846 49.5203 19.7885 49.2916 19.6876 49.0712C19.6325 48.9487 19.5969 48.8183 19.5822 48.6848L19.6735 47.6723L19.7221 47.1331L21.2149 46.7454L21.4264 47.3919L21.4462 47.441C21.5311 47.6569 21.8716 48.5353 21.8614 48.7186C21.8609 48.7655 21.87 48.8121 21.888 48.8554C21.906 48.8988 21.9326 48.9381 21.9661 48.9709C22.0004 49.0096 22.0395 49.0437 22.0824 49.0725Z" fill="white"/>
<path d="M29.0636 48.5576C29.0662 48.5884 29.0631 48.6193 29.0547 48.649C29.0547 48.649 26.8688 49.0137 26.4216 48.649C26.2956 48.5424 26.1486 48.4634 25.9902 48.417C25.8318 48.3705 25.6654 48.3578 25.5018 48.3794C25.5018 48.3794 24.656 48.4024 24.5149 48.1239C24.4561 48.007 24.4714 47.7802 24.5078 47.5567C24.545 47.3472 24.5945 47.1401 24.656 46.9364L24.6899 46.9096L24.8911 46.748L27.2469 46.6783H27.2648C27.2533 47.16 28.0646 47.7125 28.0646 47.7125C28.9263 48.0319 29.0534 48.3928 29.0636 48.5576Z" fill="white"/>
<path opacity="0.1" d="M29.0636 48.5576C29.0659 48.5884 29.0626 48.6193 29.054 48.649C29.054 48.649 26.8688 49.0137 26.4216 48.649C26.2956 48.5425 26.1488 48.4635 25.9905 48.4171C25.8322 48.3707 25.666 48.3578 25.5024 48.3794C25.5024 48.3794 24.656 48.4024 24.5155 48.1239C24.4567 48.0064 24.4714 47.7802 24.5078 47.5567C24.8336 47.5892 25.3478 47.6704 25.5497 47.8639C25.855 48.1584 26.3724 48.4522 26.6899 48.4752C26.9384 48.4912 28.4248 48.5385 29.0636 48.5576Z" fill="black"/>
<path opacity="0.1" d="M22.0824 49.0725C22.0824 49.0725 21.0603 49.4481 20.3577 49.4954C19.9846 49.5203 19.7885 49.2916 19.6882 49.0706C19.9482 49.1581 20.3091 49.2501 20.4988 49.1658C20.7237 49.0661 21.5209 49.0016 21.968 48.9741C22.0021 49.0114 22.0404 49.0444 22.0824 49.0725Z" fill="black"/>
<path d="M23.5988 18.8038C22.7557 18.4761 21.671 17.3934 21.9418 16.8875C22.002 16.7598 22.0377 16.622 22.0472 16.4812C22.0647 16.2901 22.0672 16.0978 22.0549 15.9063C22.0359 15.5926 21.9982 15.2803 21.9418 14.9711C21.9418 14.9711 24.5743 15.0305 24.421 15.4183C24.3762 15.532 24.3692 15.7294 24.3814 15.9504C24.3935 16.1714 24.4254 16.4212 24.4586 16.6326C24.5046 16.9226 24.5506 17.1436 24.5506 17.1436C24.5506 17.1436 24.3897 17.3691 24.2951 17.3813C24.2006 17.3934 24.8087 19.2708 23.5988 18.8038Z" fill="#CF6F80"/>
<path opacity="0.1" d="M21.4442 47.441L21.4244 47.4628C20.6375 46.511 19.6857 47.6972 19.6857 47.6972L19.6716 47.6723L19.7202 47.1331L21.213 46.7454L21.4244 47.3919L21.4442 47.441Z" fill="black"/>
<path opacity="0.1" d="M27.2654 46.7454C27.2654 46.7454 26.6905 46.7333 26.3839 47.0041C26.0773 47.275 24.5953 47.0629 24.6592 47.0041C24.6781 46.975 24.6896 46.9416 24.6924 46.907L24.8936 46.7454L27.2495 46.6758C27.2584 46.7186 27.2654 46.7454 27.2654 46.7454Z" fill="black"/>
<path d="M22.4235 39.271C22.3807 39.3769 22.3481 39.4866 22.3264 39.5987C22.2731 39.9057 22.2583 40.2181 22.2823 40.5288C22.3059 40.9759 22.2823 43.9725 22.2823 43.9725C22.2823 43.9725 21.777 44.7716 21.4953 45.0533C21.2136 45.335 22.0702 45.8409 22.0702 45.8409C22.198 46.5691 21.4238 47.3919 21.4238 47.3919C20.6368 46.4401 19.685 47.6269 19.685 47.6269C19.685 47.6269 19.1676 46.7326 19.0386 46.4132C18.9095 46.0939 19.5439 45.8728 19.7668 45.7432C19.9897 45.6135 19.7559 44.8489 19.7559 44.8489C19.7559 44.8489 19.5675 44.1788 19.3439 43.5675C19.1203 42.9562 19.5905 39.913 19.5905 39.913C19.5905 39.913 19.6148 39.3726 19.6729 39.1842C19.7022 39.0482 19.7081 38.9082 19.6901 38.7702C19.6863 38.7236 19.6818 38.6846 19.6786 38.6584C19.6754 38.6322 19.6729 38.6201 19.6729 38.6201L19.6818 38.6048L20.0012 38.0094C20.0012 38.0094 22.5768 38.8961 22.4235 39.271Z" fill="#05064E"/>
<path d="M27.2655 46.6751C27.2655 46.6751 26.6905 46.663 26.3839 46.9307C26.0773 47.1983 24.5953 46.9894 24.6592 46.9307C24.7231 46.8719 24.718 46.4369 24.718 46.4369C23.8486 45.25 24.5902 44.7684 24.5902 44.7684C24.5902 44.7684 24.2019 42.8999 24.1316 42.2069C24.0824 41.7227 24.0217 40.4215 23.9891 39.6786C23.9751 39.3592 23.9668 39.1394 23.9668 39.1394L24.6771 38.9963L24.7685 38.9778L26.4817 38.6342C26.4817 38.6342 26.5289 38.9535 26.5609 39.2148C26.5768 39.3264 26.5858 39.4388 26.5877 39.5514C26.5762 39.6792 26.5877 40.0791 26.5877 40.0791L26.6458 41.2781C26.6079 41.4038 26.5883 41.5344 26.5877 41.6658C26.5992 41.8185 26.8221 44.0044 26.8221 44.0044C26.8221 44.0044 27.2099 45.3088 27.0776 45.4027C26.9454 45.4966 27.2655 46.6751 27.2655 46.6751Z" fill="#05064E"/>
<path opacity="0.1" d="M24.421 15.4183C24.3762 15.532 24.3692 15.7294 24.3814 15.9504C24.0288 16.1627 23.6234 16.2713 23.2119 16.2636C22.8004 16.2559 22.3993 16.1323 22.0549 15.9069C22.0359 15.593 21.9982 15.2805 21.9418 14.9711C21.9418 14.9711 24.5743 15.0293 24.421 15.4183Z" fill="black"/>
<path d="M25.4385 14.0066C25.439 14.2368 25.4028 14.4655 25.3312 14.6843C25.1712 15.1745 24.843 15.5923 24.4047 15.8639C23.9664 16.1356 23.4462 16.2435 22.936 16.1686C22.4258 16.0938 21.9585 15.841 21.6167 15.455C21.2749 15.0689 21.0805 14.5744 21.068 14.0589C21.068 14.0411 21.068 14.0245 21.068 14.0066C21.063 13.7164 21.1159 13.4282 21.2235 13.1587C21.3311 12.8891 21.4913 12.6437 21.6948 12.4368C21.8982 12.2298 22.1408 12.0655 22.4084 11.9533C22.6761 11.8411 22.9634 11.7833 23.2536 11.7833C23.5438 11.7833 23.8311 11.8411 24.0987 11.9533C24.3664 12.0655 24.609 12.2298 24.8124 12.4368C25.0159 12.6437 25.1761 12.8891 25.2837 13.1587C25.3913 13.4282 25.4441 13.7164 25.4392 14.0066H25.4385Z" fill="#CF6F80"/>
<path opacity="0.1" d="M23.5988 18.8038C22.7557 18.4761 21.671 17.3934 21.9418 16.8875C22.002 16.7598 22.0377 16.622 22.0472 16.4812L23.2015 17.4298L23.9157 18.0156L24.4586 16.6332C24.5046 16.9232 24.5506 17.1443 24.5506 17.1443C24.5506 17.1443 24.3897 17.3698 24.2951 17.3819C24.2006 17.394 24.8087 19.2708 23.5988 18.8038Z" fill="black"/>
<path d="M26.5839 22.9961L25.6199 39.1893L24.3628 39.2717L21.1076 29.8822L21.6416 18.7348L21.754 16.3796L23.2015 17.5684L23.9163 18.1542L24.4752 16.7316L25.5145 17.6374L26.5839 22.9961Z" fill="#05064E"/>
<path opacity="0.1" d="M22.4235 39.271C22.3807 39.3769 22.3482 39.4866 22.3264 39.5987C21.4116 39.4575 20.5232 39.1799 19.6908 38.7753L19.6735 38.7664L19.6793 38.6635L19.6825 38.6099L20.0019 38.0145C20.0019 38.0145 22.5768 38.8961 22.4235 39.271Z" fill="black"/>
<path opacity="0.1" d="M24.6918 39.6013C24.458 39.641 24.2221 39.6679 23.9853 39.6818C23.9713 39.3624 23.963 39.1426 23.963 39.1426L24.6733 38.9995L24.6918 39.6013Z" fill="black"/>
<path opacity="0.1" d="M26.557 39.218C26.1029 39.3362 25.4015 39.469 24.7736 39.386L24.7646 38.981L26.4778 38.6374C26.4778 38.6374 26.5251 38.9536 26.557 39.218Z" fill="black"/>
<path opacity="0.1" d="M24.7621 39.4601C22.1431 39.9072 19.7444 38.6252 19.7444 38.6252L19.7674 38.1908C19.7674 38.1908 19.8268 33.2665 19.662 32.889C19.4972 32.5114 19.3688 30.597 19.4621 30.3032C19.5554 30.0093 19.1216 25.603 19.1216 25.603L19.0514 23.8144L16.4796 22.7726L17.6294 20.3759C17.7847 20.0398 17.9183 19.6942 18.0293 19.341C18.2292 18.7189 19.1574 18.1075 19.1574 18.1075C19.1574 18.1075 20.1092 17.4969 20.4854 17.5199C20.8617 17.5429 21.3548 16.9795 21.3548 16.9795C21.7189 16.0513 22.0485 16.4716 22.0485 16.4716C22.0485 16.5157 22.0485 16.4716 22.0306 16.609C21.9029 17.6278 24.0965 20.8473 24.1278 20.9041L24.3366 25.9927L24.5481 32.4322L24.7621 39.4601Z" fill="black"/>
<path d="M24.6918 39.4601C22.0728 39.9073 19.6735 38.6252 19.6735 38.6252L19.6972 38.1908C19.6972 38.1908 19.7566 33.2665 19.5911 32.889C19.4257 32.5114 19.2979 30.597 19.3918 30.3032C19.4857 30.0093 19.0514 25.603 19.0514 25.603L18.9805 23.8144L16.4074 22.7687L17.5572 20.372C17.7122 20.0359 17.8458 19.6902 17.9571 19.3372C18.1564 18.715 19.0852 18.1037 19.0852 18.1037C19.0852 18.1037 20.037 17.493 20.4126 17.516C20.7882 17.539 21.282 16.9756 21.282 16.9756C21.6467 16.0475 22.0485 16.4678 22.0485 16.4678C22.0485 16.5119 22.0102 16.5317 22.0306 16.6051C22.3117 17.5933 24.0262 20.8435 24.0575 20.9003L24.2689 25.9888L24.4804 32.4284L24.6918 39.4601Z" fill="white"/>
<path opacity="0.1" d="M23.9859 21.0453C23.7042 20.9278 22.212 19.2241 22.212 19.2241V18.8364C22.1578 18.7086 21.8352 18.7866 21.5733 18.876L21.6857 16.5208L21.8134 16.6269C22.0932 17.6144 23.9534 20.9885 23.9859 21.0453Z" fill="black"/>
<path d="M24.0568 20.9041C23.7745 20.7866 22.2823 19.083 22.2823 19.083V18.6952C22.228 18.5675 21.9054 18.6454 21.6435 18.7348L21.7566 16.3796L21.8844 16.4857C22.1648 17.4732 24.0255 20.8479 24.0568 20.9041Z" fill="white"/>
<path opacity="0.1" d="M19.7444 29.4006C19.7796 29.4006 21.5656 29.2128 21.5656 29.2128C21.5656 29.2128 22.6471 31.3393 22.5762 31.8567C22.5052 32.3741 22.3769 32.8321 21.9418 32.751C21.5068 32.6699 19.6007 32.8149 19.6007 32.8149L19.7444 29.4006Z" fill="black"/>
<path d="M19.6735 29.2594C19.7087 29.2594 21.4947 29.0716 21.4947 29.0716C21.4947 29.0716 22.5755 31.1987 22.5052 31.7155C22.435 32.2323 22.3053 32.6909 21.8709 32.6098C21.4366 32.5287 19.5298 32.6737 19.5298 32.6737L19.6735 29.2594Z" fill="white"/>
<path d="M21.0194 28.261C21.0194 28.261 22.6586 29.1419 22.6937 29.4108C22.7288 29.6797 21.8594 29.2933 21.6716 29.2466C21.548 29.2168 21.4222 29.1972 21.2954 29.1879L20.0427 29.2217L21.0194 28.261Z" fill="#CF6F80"/>
<path opacity="0.1" d="M23.5286 21.1552C23.6238 21.1552 23.7011 21.078 23.7011 20.9827C23.7011 20.8875 23.6238 20.8102 23.5286 20.8102C23.4333 20.8102 23.3561 20.8875 23.3561 20.9827C23.3561 21.078 23.4333 21.1552 23.5286 21.1552Z" fill="black"/>
<path d="M23.5286 21.0849C23.6238 21.0849 23.7011 21.0077 23.7011 20.9124C23.7011 20.8172 23.6238 20.74 23.5286 20.74C23.4333 20.74 23.3561 20.8172 23.3561 20.9124C23.3561 21.0077 23.4333 21.0849 23.5286 21.0849Z" fill="#3F3D56"/>
<path opacity="0.1" d="M23.8461 28.6213C23.9413 28.6213 24.0185 28.544 24.0185 28.4488C24.0185 28.3535 23.9413 28.2763 23.8461 28.2763C23.7508 28.2763 23.6736 28.3535 23.6736 28.4488C23.6736 28.544 23.7508 28.6213 23.8461 28.6213Z" fill="black"/>
<path d="M23.8461 28.5503C23.9413 28.5503 24.0185 28.4731 24.0185 28.3779C24.0185 28.2826 23.9413 28.2054 23.8461 28.2054C23.7508 28.2054 23.6736 28.2826 23.6736 28.3779C23.6736 28.4731 23.7508 28.5503 23.8461 28.5503Z" fill="#3F3D56"/>
<path opacity="0.1" d="M23.7004 24.8882C23.7957 24.8882 23.8729 24.811 23.8729 24.7157C23.8729 24.6205 23.7957 24.5433 23.7004 24.5433C23.6052 24.5433 23.5279 24.6205 23.5279 24.7157C23.5279 24.811 23.6052 24.8882 23.7004 24.8882Z" fill="black"/>
<path d="M23.7004 24.8179C23.7957 24.8179 23.8729 24.7407 23.8729 24.6455C23.8729 24.5502 23.7957 24.473 23.7004 24.473C23.6052 24.473 23.5279 24.5502 23.5279 24.6455C23.5279 24.7407 23.6052 24.8179 23.7004 24.8179Z" fill="#3F3D56"/>
<path d="M27.6762 29.1521C27.6762 29.1521 27.7937 29.3284 27.6762 29.4108C27.5587 29.4932 27.6877 29.6925 27.6877 29.6925C27.6877 29.6925 27.3945 29.8643 27.5235 30.0189C27.6526 30.1735 27.5708 30.8717 27.5708 30.8717L27.2182 31.4555C27.2182 31.4555 27.2393 31.8318 27.2405 32.3402C27.2405 33.1336 27.1939 34.2489 26.9358 34.7574L26.9716 38.9293C26.9716 38.9293 25.7368 39.3803 24.7033 39.2429L24.55 32.5485C24.55 32.5485 24.7736 28.7522 24.856 28.024C24.9042 27.6459 24.9238 27.2648 24.9147 26.8838C24.9147 26.8838 24.8796 25.7442 24.7614 25.2153C24.7614 25.2153 24.6337 22.924 24.6209 22.2897C24.6151 21.9862 24.6311 21.1009 24.649 20.259C24.6688 19.3385 24.6912 18.4704 24.6912 18.4704L24.458 16.6256C24.458 16.6256 24.6912 16.6019 24.7614 16.6958C24.7929 16.7252 24.8271 16.7516 24.8636 16.7744C25.2661 17.0465 26.688 17.8833 26.688 17.8833C26.688 17.8833 27.475 18.1963 27.6634 18.6448C27.8519 19.0932 27.9828 19.4113 28.0742 19.5391C28.1655 19.6668 28.2153 20.2673 28.2153 20.2673C28.2153 20.2673 28.4862 21.3724 28.6976 21.5595C28.909 21.7467 29.0636 22.9374 29.0636 22.9374L27.1952 24.4066C27.1952 24.4066 27.031 26.8506 26.9959 26.9451C26.9608 27.0396 27.6762 29.1521 27.6762 29.1521Z" fill="white"/>
<path d="M27.7471 29.1521C27.7471 29.1521 27.864 29.3284 27.7471 29.4108C27.6302 29.4932 27.7579 29.6925 27.7579 29.6925C27.7579 29.6925 27.4667 29.8662 27.5944 30.0208C27.7222 30.1754 27.6417 30.8736 27.6417 30.8736L27.2891 31.4574C27.2891 31.4574 27.3102 31.8337 27.3121 32.3422C27.3121 33.1355 27.2654 34.2508 27.0074 34.7593L27.0425 38.9312C27.0425 38.9312 25.8058 39.3822 24.7736 39.2448L24.6209 32.5504C24.6209 32.5504 24.8445 28.7541 24.9269 28.0259C24.9751 27.6479 24.9946 27.2667 24.985 26.8857C24.985 26.8857 24.9499 25.7461 24.8323 25.2172C24.8323 25.2172 24.7046 22.9259 24.6912 22.2916C24.6854 21.9881 24.702 21.1028 24.7193 20.2609C24.7391 19.3404 24.7614 18.4723 24.7614 18.4723L24.4535 16.6026C24.4535 16.6026 24.7614 16.6026 24.8323 16.6978C24.8635 16.7275 24.8978 16.7538 24.9345 16.7763C25.337 17.0484 26.7595 17.8852 26.7595 17.8852C26.7595 17.8852 27.5459 18.1983 27.7343 18.6467C27.9228 19.0951 28.0537 19.4132 28.1457 19.541C28.2377 19.6687 28.2862 20.2692 28.2862 20.2692C28.2862 20.2692 28.5571 21.3743 28.7685 21.5614C28.9799 21.7486 29.1326 22.9367 29.1326 22.9367L27.2642 24.4059C27.2642 24.4059 27.1 26.8499 27.0642 26.9445C27.0285 27.039 27.7471 29.1521 27.7471 29.1521Z" fill="white"/>
<path opacity="0.1" d="M25.5094 19.0146L25.6781 19.5065L24.7902 20.4008C24.81 19.4809 24.8323 18.6122 24.8323 18.6122L24.5244 16.7425C24.5244 16.7425 24.8323 16.7425 24.9032 16.8376C24.9343 16.8673 24.9686 16.8935 25.0054 16.9156L25.7605 19.0938L25.5094 19.0146Z" fill="black"/>
<path d="M25.4385 18.8734L25.6078 19.3653L24.7199 20.2596C24.7397 19.3391 24.7621 18.471 24.7621 18.471L24.4535 16.6013C24.4535 16.6013 24.7621 16.6013 24.8323 16.6965C24.8637 16.726 24.8979 16.7524 24.9345 16.775L25.6902 18.9527L25.4385 18.8734Z" fill="white"/>
<path opacity="0.1" d="M25.4385 14.0066C25.439 14.2368 25.4028 14.4655 25.3312 14.6843C25.3192 14.6862 25.3068 14.6856 25.295 14.6827C25.2831 14.6797 25.272 14.6744 25.2622 14.6671C25.2456 14.0922 24.9626 13.5524 24.6145 13.0931C24.5168 12.9544 24.3983 12.8316 24.2632 12.729C24.1266 12.6264 23.9567 12.5784 23.7866 12.5942C23.595 12.6204 23.4257 12.7507 23.2322 12.7673C22.9767 12.7884 22.748 12.6115 22.4944 12.6025C22.3913 12.6035 22.2896 12.6265 22.1961 12.6699C22.1026 12.7133 22.0194 12.7761 21.9521 12.8542C21.8188 13.0118 21.7199 13.1954 21.6614 13.3933C21.561 13.6935 21.5063 14.007 21.4992 14.3234C21.496 14.5023 21.4787 14.7265 21.3126 14.7916C21.3251 14.6601 21.3102 14.5274 21.2687 14.4019C21.2273 14.2765 21.1602 14.161 21.0718 14.0628L21.068 14.0589C21.068 14.0411 21.068 14.0245 21.068 14.0066C21.063 13.7164 21.1159 13.4282 21.2235 13.1587C21.3311 12.8891 21.4913 12.6437 21.6948 12.4368C21.8982 12.2298 22.1408 12.0655 22.4084 11.9533C22.6761 11.8411 22.9634 11.7833 23.2536 11.7833C23.5438 11.7833 23.8311 11.8411 24.0987 11.9533C24.3664 12.0655 24.609 12.2298 24.8124 12.4368C25.0159 12.6437 25.1761 12.8891 25.2837 13.1587C25.3913 13.4282 25.4441 13.7164 25.4392 14.0066H25.4385Z" fill="black"/>
<path d="M24.1584 10.5361C23.8265 10.3799 23.4489 10.3504 23.0968 10.453C22.9198 10.5054 22.7531 10.5904 22.5736 10.6332C22.1903 10.7258 21.7432 10.6255 21.4142 10.8497C21.2315 10.9775 21.1217 11.1793 21.0194 11.3754L20.7639 11.8622C20.6247 12.1285 20.4841 12.3994 20.426 12.6926C20.3679 12.9858 20.403 13.3141 20.5889 13.5498C20.7243 13.7217 20.9243 13.8296 21.0712 13.9912C21.1592 14.0895 21.226 14.205 21.2673 14.3303C21.3086 14.4556 21.3236 14.5881 21.3114 14.7194C21.4781 14.6556 21.4941 14.4307 21.4979 14.2519C21.505 13.9355 21.5597 13.6219 21.6601 13.3218C21.7184 13.1238 21.8174 12.9402 21.9508 12.7827C22.0182 12.7046 22.1013 12.6418 22.1949 12.5984C22.2884 12.555 22.39 12.532 22.4931 12.531C22.7486 12.5399 22.978 12.7162 23.2309 12.6951C23.4225 12.6792 23.5925 12.5482 23.7854 12.5227C23.9555 12.5066 24.1254 12.5547 24.2619 12.6575C24.397 12.7599 24.5153 12.8828 24.6126 13.0216C24.9614 13.4808 25.2444 14.0193 25.261 14.5955C25.3331 14.6485 25.4373 14.5796 25.473 14.4978C25.5088 14.416 25.5101 14.3202 25.5554 14.2423C25.6078 14.1522 25.7081 14.1043 25.7867 14.0366C25.986 13.8648 26.0358 13.5754 26.0281 13.3129C26.0205 13.0503 25.9694 12.7839 26.0192 12.5259C26.0492 12.3675 26.1169 12.2193 26.154 12.0628C26.191 11.9063 26.1955 11.7306 26.108 11.5958C25.9802 11.3978 25.7113 11.3588 25.4769 11.3403C25.2105 11.3173 24.9722 11.3467 24.8023 11.1225C24.7226 11.0055 24.6328 10.8956 24.534 10.7941C24.5002 10.7609 24.1584 10.5501 24.1584 10.5361Z" fill="#512E4E"/>
<path opacity="0.1" d="M17.2155 24.0067L16.548 22.7726L16.3365 24.6768C16.3365 24.6768 16.4541 25.5225 16.4304 25.6522C16.4068 25.7819 16.9121 26.9445 16.9121 26.9445C16.9121 26.9445 18.5812 29.9173 19.2628 30.0706L21.5656 28.4251L20.9549 27.6497C20.9549 27.6497 20.7435 27.5673 20.6905 27.6497C20.6905 27.6497 19.5566 25.6988 19.4391 25.5577C19.3216 25.4165 19.3446 25.1348 19.3446 25.1348C19.3446 25.1348 19.1683 24.947 19.227 24.7707C19.2858 24.5944 18.8865 23.9831 18.8865 23.9831L19.2507 23.6426L17.2155 24.0067Z" fill="black"/>
<path d="M16.5831 22.632L16.4068 22.7726L16.1954 24.6768C16.1954 24.6768 16.3129 25.5225 16.2893 25.6522C16.2656 25.7819 16.7715 26.9445 16.7715 26.9445C16.7715 26.9445 18.44 29.9173 19.1216 30.0707L21.4251 28.4251L20.8138 27.6497C20.8138 27.6497 20.6023 27.5673 20.5493 27.6497C20.5493 27.6497 19.4155 25.6988 19.2979 25.5577C19.1804 25.4165 19.204 25.1348 19.204 25.1348C19.204 25.1348 19.0277 24.947 19.0865 24.7707C19.1453 24.5944 18.7454 23.9831 18.7454 23.9831L19.1095 23.6426L16.5831 22.632Z" fill="white"/>
<path opacity="0.1" d="M27.5235 30.0917C27.6513 30.247 27.5708 30.9439 27.5708 30.9439L27.2182 31.5277C27.2182 31.5277 27.2393 31.9046 27.2405 32.4124L26.6477 32.5977C26.5942 32.6144 26.5374 32.6181 26.4821 32.6084C26.4268 32.5987 26.3746 32.5759 26.3299 32.542C26.2852 32.5081 26.2493 32.4639 26.2252 32.4133C26.201 32.3626 26.1893 32.3069 26.191 32.2508L26.2932 28.9541L27.6762 29.483C27.5586 29.5647 27.6877 29.7653 27.6877 29.7653C27.6877 29.7653 27.3945 29.9365 27.5235 30.0917Z" fill="black"/>
<path d="M27.5944 30.0208C27.7222 30.1761 27.6417 30.8736 27.6417 30.8736L27.2891 31.4575C27.2891 31.4575 27.3102 31.8337 27.3121 32.3422L26.7084 32.5306C26.656 32.5469 26.6004 32.5504 26.5463 32.5409C26.4921 32.5314 26.4411 32.5091 26.3974 32.4758C26.3536 32.4426 26.3184 32.3994 26.2948 32.3498C26.2711 32.3002 26.2596 32.2457 26.2613 32.1908L26.3641 28.8838L27.7477 29.4127C27.6296 29.4945 27.7586 29.6944 27.7586 29.6944C27.7586 29.6944 27.4667 29.8662 27.5944 30.0208Z" fill="white"/>
<path d="M28.0524 28.4494C28.0524 28.4494 27.9585 29.0492 27.7235 29.0844C27.4884 29.1195 27.383 30.0547 27.1486 30.0215C26.9141 29.9882 27.0693 29.1521 27.0776 28.9898C27.086 28.8276 26.8221 28.1556 27.0195 28.0029C27.2169 27.8502 27.8416 28.0029 27.8416 28.0029L28.0524 28.4494Z" fill="#CF6F80"/>
<path opacity="0.1" d="M28.5526 23.8304L28.9959 22.9361C28.9959 22.9361 29.1722 23.6177 29.1722 23.9818C29.1722 24.3459 29.4188 24.3817 29.4188 24.3817C29.4188 24.3817 29.689 24.701 29.5465 24.9336C29.4041 25.1661 29.3466 25.7448 29.3466 25.7448C29.3466 25.7448 29.3932 26.8493 29.1818 27.0019C28.9704 27.1546 28.9263 27.5194 28.9263 27.5194C28.9263 27.5194 28.5379 28.2124 28.55 28.3772C28.5622 28.542 28.0096 29.658 28.0096 29.658C28.0096 29.658 28.2798 28.2712 26.7052 27.672C26.7052 27.672 26.6931 27.2012 26.8106 27.0722C26.9282 26.9432 27.1115 26.8844 26.9965 26.2322C26.8815 25.58 26.9633 24.8007 26.9633 24.6442C26.9633 24.4877 27.3159 23.5116 27.3159 23.5116L28.5526 23.8304Z" fill="black"/>
<path d="M28.7442 22.8083L29.1313 22.9361C29.1313 22.9361 29.3083 23.6177 29.3083 23.9818C29.3083 24.3459 29.5548 24.3817 29.5548 24.3817C29.5548 24.3817 29.8251 24.7011 29.6826 24.9336C29.5402 25.1661 29.4833 25.7448 29.4833 25.7448C29.4833 25.7448 29.5299 26.8493 29.3185 27.0019C29.1071 27.1546 29.0598 27.5194 29.0598 27.5194C29.0598 27.5194 28.6721 28.2124 28.6842 28.3772C28.6963 28.542 28.1431 29.658 28.1431 29.658C28.1431 29.658 28.414 28.2712 26.8387 27.672C26.8387 27.672 26.8272 27.2012 26.9448 27.0722C27.0623 26.9432 27.2457 26.8844 27.1307 26.2322C27.0157 25.58 27.0975 24.8007 27.0975 24.6442C27.0975 24.4877 27.4501 23.5116 27.4501 23.5116L28.7442 22.8083Z" fill="white"/>
<path opacity="0.1" d="M20.1941 45.9878C20.1941 45.9878 20.8112 45.6001 21.2162 45.8818C21.6212 46.1635 20.1941 45.9878 20.1941 45.9878Z" fill="black"/>
<path opacity="0.1" d="M24.9888 44.7888C24.9888 44.7888 25.535 44.7186 25.9936 45.2123C26.4523 45.7061 24.9888 44.7888 24.9888 44.7888Z" fill="black"/>
<g opacity="0.1">
<path d="M25.7879 13.8967C25.7094 13.9644 25.6084 14.013 25.5561 14.103C25.5114 14.1803 25.5101 14.2755 25.4743 14.3585C25.4385 14.4416 25.3344 14.5093 25.2622 14.4569C25.2456 13.882 24.962 13.3422 24.6139 12.8823C24.5165 12.7435 24.3982 12.6207 24.2632 12.5182C24.1265 12.4154 23.9563 12.3674 23.786 12.3834C23.5944 12.4096 23.4257 12.5399 23.2322 12.5559C22.9767 12.5776 22.7473 12.4007 22.4937 12.3917C22.3907 12.3928 22.289 12.4158 22.1956 12.4593C22.1022 12.5028 22.0192 12.5658 21.9521 12.644C21.8187 12.8013 21.7197 12.9847 21.6614 13.1825C21.561 13.4827 21.5063 13.7962 21.4992 14.1126C21.4953 14.2908 21.4787 14.5131 21.3139 14.5796C21.3178 14.6267 21.3178 14.6742 21.3139 14.7214C21.48 14.6575 21.4966 14.4326 21.5004 14.2538C21.5076 13.9374 21.5623 13.6238 21.6627 13.3237C21.721 13.1257 21.82 12.9421 21.9533 12.7846C22.0206 12.7066 22.1037 12.6438 22.1971 12.6004C22.2905 12.557 22.392 12.534 22.495 12.5329C22.7505 12.5418 22.9805 12.7181 23.2335 12.6971C23.4251 12.6811 23.595 12.5501 23.7873 12.5246C23.9576 12.5085 24.1277 12.5566 24.2645 12.6594C24.3995 12.7618 24.5178 12.8847 24.6151 13.0235C24.9633 13.4828 25.2469 14.0213 25.2635 14.5974C25.3357 14.6505 25.4398 14.5815 25.4756 14.4997C25.5114 14.4179 25.5126 14.3221 25.5573 14.2442C25.6097 14.1541 25.7107 14.1062 25.7892 14.0385C25.9885 13.8667 26.0383 13.5773 26.0307 13.3148C26.0307 13.3065 26.0307 13.2982 26.0307 13.2905C26.0185 13.5179 25.9579 13.7498 25.7879 13.8967Z" fill="black"/>
<path d="M21.0725 13.8513C20.9255 13.6897 20.725 13.5818 20.5902 13.4106C20.4767 13.259 20.4119 13.0766 20.4043 12.8874C20.3842 13.1238 20.4502 13.3595 20.5902 13.5511C20.725 13.7229 20.9255 13.8309 21.0725 13.9925C21.2135 14.1506 21.2982 14.351 21.3133 14.5623C21.3231 14.4337 21.3068 14.3044 21.2654 14.1823C21.224 14.0601 21.1584 13.9475 21.0725 13.8513Z" fill="black"/>
<path d="M26.1552 11.9229C26.1176 12.0794 26.0505 12.2282 26.0198 12.386C26.0017 12.4914 25.995 12.5985 26 12.7054C26.0022 12.6445 26.0088 12.5839 26.0198 12.524C26.0505 12.3655 26.1176 12.2173 26.1552 12.0608C26.1772 11.9745 26.1843 11.8851 26.1763 11.7964C26.1724 11.839 26.1653 11.8813 26.1552 11.9229Z" fill="black"/>
</g>
<path opacity="0.1" d="M8.68457 48.5851C12.1221 48.5851 14.9089 48.1375 14.9089 47.5854C14.9089 47.0333 12.1221 46.5857 8.68457 46.5857C5.24699 46.5857 2.46028 47.0333 2.46028 47.5854C2.46028 48.1375 5.24699 48.5851 8.68457 48.5851Z" fill="#05064E"/>
<path d="M8.88515 28.4347H8.48463V37.4524H8.88515V28.4347Z" fill="#535461"/>
<path d="M11.4019 37.4249L11.377 37.8312L11.3413 38.4061L11.3266 38.645L11.2914 39.2199L11.2761 39.4588L11.2403 40.0337L10.8366 46.5538C10.8191 46.8343 10.6953 47.0976 10.4905 47.2901C10.2856 47.4826 10.0152 47.5898 9.73409 47.5899H7.63505C7.35404 47.5898 7.08364 47.4825 6.87891 47.29C6.67419 47.0975 6.55054 46.8342 6.53315 46.5538L6.13136 40.0293L6.09559 39.4544L6.0809 39.2154L6.04512 38.6405L6.03043 38.4016L5.99466 37.8267L5.96911 37.4205C5.96467 37.3423 5.97626 37.264 6.00315 37.1904C6.03005 37.1169 6.07169 37.0496 6.12553 36.9927C6.17936 36.9358 6.24425 36.8906 6.31621 36.8597C6.38818 36.8287 6.46569 36.8129 6.54401 36.813H10.8373C10.9153 36.8137 10.9923 36.8303 11.0637 36.8619C11.135 36.8935 11.1991 36.9394 11.252 36.9968C11.3049 37.0541 11.3456 37.1217 11.3713 37.1953C11.3971 37.269 11.4075 37.3471 11.4019 37.4249Z" fill="#3F3D56"/>
<path d="M11.377 37.8312L11.3413 38.4042H6.02787L5.9921 37.8312H11.377Z" fill="#9D9CB5"/>
<path d="M11.3266 38.6431L11.2914 39.2167H6.07834L6.04257 38.6431H11.3266Z" fill="#9D9CB5"/>
<path d="M11.2761 39.4563L11.241 40.0293H6.1288L6.09303 39.4563H11.2761Z" fill="#9D9CB5"/>
<path d="M5.38079 31.8145C7.71299 33.5022 8.68649 36.1416 8.68649 36.1416C8.68649 36.1416 5.87585 36.0452 3.54302 34.3575C1.21019 32.6699 0.238602 30.0311 0.238602 30.0311C0.238602 30.0311 3.04796 30.1269 5.38079 31.8145Z" fill="#05064E"/>
<path d="M0.236679 30.0311C0.236679 30.0311 3.15463 31.6504 4.09045 32.9912C5.02626 34.332 8.68648 36.1416 8.68648 36.1416" stroke="#535461" stroke-width="2" stroke-miterlimit="10"/>
<path d="M6.88639 28.4149C8.15565 29.3329 8.68648 30.7695 8.68648 30.7695C8.68648 30.7695 7.1566 30.7171 5.8867 29.7992C4.6168 28.8812 4.08725 27.444 4.08725 27.444C4.08725 27.444 5.61649 27.4964 6.88639 28.4149Z" fill="#05064E"/>
<path d="M4.08725 27.444C4.08725 27.444 5.67526 28.3255 6.18437 29.055C6.69348 29.7845 8.68648 30.7695 8.68648 30.7695" stroke="#535461" stroke-width="2" stroke-miterlimit="10"/>
<path d="M10.5294 30.6967C9.07103 32.2994 8.7625 34.3939 8.7625 34.3939C8.7625 34.3939 10.8187 33.8893 12.2758 32.2859C13.7329 30.6826 14.0427 28.5887 14.0427 28.5887C14.0427 28.5887 11.9877 29.094 10.5294 30.6967Z" fill="#05064E"/>
<path d="M14.0439 28.5893C14.0439 28.5893 12.1442 30.2323 11.6613 31.3642C11.1784 32.4961 8.7625 34.3939 8.7625 34.3939" stroke="#535461" stroke-width="2" stroke-miterlimit="10"/>
<path d="M64.0631 30.1326C64.0631 30.1326 63.0085 24.8857 63.4122 24.2328C63.4122 24.2328 63.4269 23.626 63.4026 22.8524C63.4026 22.823 63.4026 22.7936 63.4026 22.7636C63.4736 22.811 63.5477 22.8537 63.6243 22.8914C63.9962 23.0825 64.4233 23.1376 64.8316 23.0472L64.5122 22.6914C64.4355 22.6065 64.3557 22.5145 64.3391 22.4021C64.3225 22.2896 64.3684 22.1894 64.4081 22.0891C64.7115 21.3225 64.7274 20.3586 64.143 19.7735C63.6492 19.2816 63.5291 18.6467 62.9931 18.1976C62.6016 17.8686 62.3863 17.3864 62.1832 16.9201C62.0113 16.5259 61.8382 16.1286 61.7399 15.7108C61.6632 15.3844 61.6325 15.0465 61.5271 14.7278C61.4217 14.409 61.2244 14.0992 60.9158 13.9567C60.806 13.9063 60.684 13.8775 60.5837 13.8105C60.4521 13.7217 60.3729 13.5773 60.2777 13.4508C59.7941 12.812 58.1748 13.1883 57.4083 13.4476C57.1999 13.5129 57.0069 13.6199 56.841 13.7619L56.8481 13.7504C56.8538 13.7408 56.8608 13.7313 56.8672 13.7217C56.7833 13.7895 56.7109 13.8704 56.6526 13.9612C56.5408 14.1382 56.4942 14.3445 56.4009 14.5361C56.2885 14.7629 55.6631 15.3959 55.9321 15.6508C55.9509 15.6679 55.9725 15.6817 55.9959 15.6917C56.0969 15.7337 56.208 15.7448 56.3153 15.7236L56.3038 15.7511C56.212 15.976 56.1649 16.2166 56.1652 16.4595C56.1652 17.509 57.0308 18.3599 58.0994 18.3599C58.3003 18.3601 58.5001 18.3292 58.6916 18.2685C58.6961 18.2928 58.6999 18.3171 58.7044 18.3413C58.7044 18.3509 58.7076 18.3605 58.7088 18.3701L58.675 18.4174C58.6733 18.4144 58.6714 18.4117 58.6692 18.4091L57.6663 19.8105C57.513 19.9185 56.6302 20.5573 56.5804 21.0364C56.528 21.5608 56.4757 22.1747 56.4757 22.1747L56.4686 22.3063C56.4248 22.3429 56.3735 22.3696 56.3184 22.3844C56.2633 22.3993 56.2055 22.4021 56.1492 22.3925C55.8362 22.3414 55.8362 23.5423 55.8362 23.5423C55.8362 23.5423 55.628 23.7339 55.4849 23.5679C55.3418 23.4018 54.9637 23.9645 54.9637 23.9645L52.5938 24.0667L52.5395 24.0699L52.4117 23.6745C52.398 23.6328 52.3683 23.5982 52.3292 23.5782C52.2901 23.5583 52.2447 23.5545 52.2028 23.5679C52.193 23.5711 52.1833 23.5752 52.1741 23.58L52.1652 23.5851L52.1486 23.5966L52.1402 23.6043C52.1357 23.6084 52.1314 23.6129 52.1275 23.6177L52.1198 23.6266L52.116 23.6305C52.1012 23.6508 52.0915 23.6744 52.0875 23.6993C52.0835 23.7241 52.0854 23.7496 52.093 23.7735L52.2028 24.1127C51.7455 24.2047 51.2779 24.4641 51.6592 25.1782L49.7263 24.8211L50.3517 25.3462L53.5801 26.0125C53.5373 26.0891 53.5654 26.2003 53.6989 26.3568C54.2738 27.032 55.3214 27.2153 55.743 27.2626C55.8543 27.5116 55.9934 27.7473 56.1575 27.9652L56.1211 28.6379C56.1211 28.6379 55.0537 33.7647 54.8583 34.0247C54.9569 33.9129 55.0472 33.794 55.1285 33.6689C54.8187 34.7223 54.3856 36.164 54.2719 36.3799C54.0892 36.7248 53.9199 38.1206 54.1281 38.21C54.192 38.2375 54.3747 38.2241 54.6353 38.2043V38.3199L54.6238 42.7013C54.6238 42.7013 54.6762 45.3886 54.5325 45.6448C54.3888 45.9009 54.3504 46.4382 54.3504 46.4382C54.3504 46.4382 53.7755 47.4979 53.3201 47.924C53.317 47.9273 53.3136 47.9303 53.3099 47.9329L53.2958 47.8333C53.2958 47.8333 52.7484 48.5244 51.5372 48.4854C51.5372 48.4854 50.8084 48.9594 51.8892 48.985C52.97 49.0105 54.3504 48.9467 54.3504 48.9467C54.3504 48.9467 55.3144 47.4775 56.1218 47.6691V48.7825H56.369V47.6512C56.4836 47.5757 56.5817 47.4778 56.6574 47.3632C56.7331 47.2487 56.7847 47.12 56.8091 46.985C56.8303 46.8457 56.8148 46.7034 56.7641 46.572C56.7135 46.4406 56.6295 46.3247 56.5204 46.2357C56.4714 46.1913 56.432 46.1374 56.4049 46.0771C56.3777 46.0169 56.3633 45.9517 56.3626 45.8856L56.3536 45.8933C56.3536 45.8709 56.3479 45.8479 56.3453 45.8243C56.2744 45.2494 56.1857 44.0632 56.4993 43.1855C56.9292 41.982 57.0595 40.3058 56.7465 39.3081C56.6455 38.9891 56.5625 38.6648 56.498 38.3365C56.4903 38.295 56.4833 38.2554 56.4769 38.2183C56.6909 38.2473 56.9028 38.2899 57.1112 38.3461C57.8363 38.546 59.4224 38.5831 60.7766 38.5722C60.7798 38.6092 60.7836 38.6482 60.7881 38.6872C60.8122 38.958 60.8627 39.2259 60.9388 39.4869C61.1087 39.998 61.1867 42.2509 61.1867 42.2509C61.1867 42.2509 61.4058 44.1034 61.2863 44.8572C61.2224 45.2762 61.1586 45.6972 61.1222 46.12V46.1283C61.1222 46.1283 60.7632 47.1504 60.5006 47.7055C60.4942 47.7196 60.4872 47.7336 60.4808 47.747C60.4108 47.7534 60.3419 47.7686 60.2758 47.7924C60.2758 47.7924 59.9238 48.495 59.5731 48.6113C59.2224 48.7275 59.3387 49.1102 60.1327 48.9696C60.9267 48.8291 62.1257 48.7141 62.1257 48.7141L62.1774 47.9974L62.4214 47.6921L62.3576 48.4069L62.6175 48.3558L62.583 47.4864L62.9823 46.9869C62.9823 46.9869 63.4646 46.5576 62.7479 45.7131V45.7317C62.7402 45.7195 62.7332 45.7067 62.7249 45.6946V45.6908C62.606 45.5068 62.5115 45.1638 62.6846 44.555C62.9976 43.455 63.1797 42.4566 63.1797 42.4566C63.1797 42.4566 63.8785 39.782 63.0385 38.5166H63.0755C62.9895 38.3386 62.9286 38.1494 62.8948 37.9545C62.8905 37.9315 62.8867 37.9079 62.8833 37.8836C63.5048 37.8478 64.1148 37.7354 64.6125 37.4927C64.6105 37.4901 64.311 31.1432 64.0631 30.1326ZM56.1722 25.7059V25.7186L56.0445 25.725L56.1722 25.7059ZM55.734 25.7665C55.713 25.7712 55.6934 25.7806 55.6765 25.794C55.6216 25.8717 55.5871 25.962 55.5763 26.0565L55.377 26.0118C55.377 26.0118 55.2371 25.9818 55.0358 25.948L54.9407 25.8521C55.2026 25.8304 55.4747 25.7985 55.734 25.7665Z" fill="url(#paint1_linear_3_1551)"/>
<path d="M62.3282 47.4953L62.2522 48.4005L62.507 48.3494L62.4687 47.3676L62.3282 47.4953Z" fill="#1D2366"/>
<path d="M56.5133 43.1976C56.2061 44.0727 56.293 45.2538 56.362 45.8275C56.3875 46.0395 56.4111 46.1686 56.4111 46.1686C56.4111 46.1686 55.9519 47.2149 55.9135 47.2545C55.8752 47.2941 54.5619 48.0958 54.5619 48.0958L53.6439 48.6317C53.6439 48.6317 52.7126 48.2235 53.1591 48.083C53.2503 48.0464 53.3325 47.9904 53.3999 47.9188C53.8471 47.4941 54.4086 46.4381 54.4086 46.4381C54.4086 46.4381 54.4469 45.9022 54.5874 45.6473C54.728 45.3925 54.6768 42.7141 54.6768 42.7141L54.6877 38.348V37.7788L56.4348 37.7916C56.4458 37.9848 56.471 38.177 56.5102 38.3665C56.5729 38.6937 56.6541 39.017 56.7535 39.3349C57.0614 40.3308 56.9337 41.9986 56.5133 43.1976Z" fill="#FFB0B1"/>
<path opacity="0.1" d="M56.4111 46.1686C56.4111 46.1686 55.9519 47.2149 55.9135 47.2545C55.8752 47.2941 54.5619 48.0958 54.5619 48.0958L53.6439 48.6317C53.6439 48.6317 52.7126 48.2235 53.1591 48.083C53.2503 48.0464 53.3325 47.9904 53.3999 47.9188L53.4395 48.198L53.7455 48.1852L56.3645 45.8288C56.3875 46.0395 56.4111 46.1686 56.4111 46.1686Z" fill="black"/>
<path d="M56.3792 45.8882L53.7455 48.2606L53.4395 48.2734L53.3757 47.8262C53.3757 47.8262 52.8404 48.5148 51.6509 48.4765C51.6509 48.4765 50.9368 48.9486 51.9952 48.9741C53.0537 48.9997 54.4054 48.9358 54.4054 48.9358C54.4054 48.9358 55.3495 47.4666 56.1397 47.6582V48.7678H56.3824V47.648C56.4953 47.572 56.5916 47.474 56.6656 47.3598C56.7396 47.2457 56.7897 47.1177 56.8129 46.9837C56.834 46.8456 56.8191 46.7044 56.7697 46.5738C56.7204 46.4431 56.6383 46.3273 56.5312 46.2376C56.4834 46.1928 56.4453 46.1386 56.4191 46.0786C56.393 46.0185 56.3794 45.9537 56.3792 45.8882Z" fill="#1D2366"/>
<path d="M62.5709 44.562C62.401 45.1689 62.4936 45.5106 62.6099 45.694V45.6978C62.759 45.9242 62.8627 46.1773 62.9152 46.4433L62.9254 46.5008L61.7271 48.2478L61.0768 48.5033C61.0768 48.5033 60.0311 48.1463 60.2221 48.044C60.27 48.0191 60.3448 47.8863 60.4304 47.7029C60.6859 47.1504 61.0385 46.1309 61.0385 46.1309V46.1226C61.0755 45.7016 61.1343 45.282 61.1994 44.8642C61.3163 44.1123 61.1017 42.2669 61.1017 42.2669C61.1017 42.2669 61.0251 40.0229 60.859 39.5125C60.784 39.253 60.7342 38.9869 60.7101 38.7178C60.6756 38.3984 60.668 38.1353 60.668 38.1353C60.668 38.1353 61.3566 37.1771 62.6188 38.2119C62.7198 38.2945 62.8086 38.3908 62.8826 38.4981C63.7546 39.7386 63.0526 42.4713 63.0526 42.4713C63.0526 42.4713 62.8769 43.4653 62.5709 44.562Z" fill="#FFB0B1"/>
<path opacity="0.1" d="M62.9274 46.5008L61.729 48.2478L61.0787 48.5033C61.0787 48.5033 60.033 48.1463 60.224 48.044C60.2719 48.0191 60.3467 47.8863 60.4323 47.7029C60.8749 47.6991 61.1043 48.1207 61.1043 48.1207L61.6651 48.0313C61.6651 48.0313 62.4048 46.5774 62.5709 46.4886C62.737 46.3998 62.5965 45.8249 62.5965 45.8249V45.6786C62.6009 45.6837 62.6048 45.6895 62.6099 45.6946V45.6984C62.759 45.9248 62.8627 46.178 62.9152 46.4439L62.9274 46.5008Z" fill="black"/>
<path d="M61.1426 48.1584C61.1426 48.1584 60.8232 47.572 60.2113 47.7885C60.2113 47.7885 59.867 48.4912 59.5227 48.6049C59.1784 48.7186 59.2933 49.1019 60.0714 48.962C60.8494 48.8221 62.0222 48.7065 62.0222 48.7065L62.0733 47.9917L62.8641 46.9843C62.8641 46.9843 63.3355 46.557 62.6342 45.7157V45.862C62.6342 45.862 62.7747 46.4369 62.6086 46.5257C62.4425 46.6145 61.7054 48.069 61.7054 48.069L61.1426 48.1584Z" fill="#1D2366"/>
<path opacity="0.1" d="M56.4367 37.7903C56.4477 37.9836 56.4729 38.1757 56.5121 38.3652C55.7928 38.2598 55.1253 38.3122 54.6877 38.3467V37.7776L56.4367 37.7903Z" fill="black"/>
<path opacity="0.1" d="M62.9536 38.6571C62.9536 38.6571 61.9315 38.707 60.7127 38.7172C60.6782 38.3978 60.6705 38.1346 60.6705 38.1346C60.6705 38.1346 61.3592 37.1765 62.6214 38.2113C62.7223 38.2938 62.8111 38.3901 62.8852 38.4975C62.905 38.5519 62.9278 38.6052 62.9536 38.6571Z" fill="black"/>
<path d="M62.9535 38.5422C62.9535 38.5422 58.477 38.7587 57.1125 38.3761C55.7481 37.9935 54.3958 38.325 54.192 38.2362C53.9882 38.1474 54.1537 36.7568 54.3325 36.4125C54.5114 36.0682 55.4926 32.5862 55.4926 32.5862L56.4367 27.6637L57.4313 27.3897L57.5015 27.3699L59.2346 26.8921L60.5045 26.5414C60.5045 26.5414 63.0296 36.3997 62.813 37.1266C62.7344 37.405 62.7217 37.6978 62.776 37.982C62.809 38.176 62.8688 38.3645 62.9535 38.5422Z" fill="#1D2366"/>
<path d="M53.1457 24.2973C53.1457 24.2973 52.2514 25.2555 52.9285 25.7895C53.6056 26.3236 54.0508 25.8406 54.0508 25.8406L53.1457 24.2973Z" fill="#C7DAF5"/>
<path opacity="0.1" d="M53.1457 24.2973C53.1457 24.2973 52.2514 25.2555 52.9285 25.7895C53.6056 26.3236 54.0508 25.8406 54.0508 25.8406L53.1457 24.2973Z" fill="black"/>
<path d="M60.3709 17.9977C60.3709 17.9977 60.2662 18.0973 60.1084 18.2442C59.8836 18.4544 59.5508 18.7617 59.2556 19.0191C58.8468 19.3749 58.5095 19.6362 58.6303 19.4132C58.751 19.1903 58.728 18.8019 58.668 18.4384C58.6635 18.4142 58.6597 18.3899 58.6552 18.3663C58.6055 18.0993 58.5395 17.8357 58.4578 17.5767C58.4578 17.5767 59.1183 16.7233 59.4837 16.3867C59.6197 16.2589 59.7149 16.2065 59.7207 16.2953C59.7271 16.4148 59.8165 16.6786 59.9276 16.9584C59.9308 16.9673 59.934 16.9756 59.9379 16.9846C60.012 17.1762 60.0956 17.3729 60.1691 17.5429C60.2815 17.8035 60.3709 17.9977 60.3709 17.9977Z" fill="#FFB0B1"/>
<path opacity="0.1" d="M59.9379 16.9846C59.8758 17.3184 59.7252 17.6295 59.5018 17.8852C59.2784 18.141 58.9904 18.332 58.668 18.4384C58.6172 18.1468 58.547 17.859 58.4578 17.5767C58.4578 17.5767 59.7015 15.9702 59.7207 16.2953C59.7251 16.4186 59.8222 16.692 59.9379 16.9846Z" fill="black"/>
<path opacity="0.1" d="M58.544 18.8677L58.705 18.6409C58.705 18.6409 58.8117 19.2912 59.2039 19.0044C59.5961 18.7176 59.6153 21.1628 59.6153 21.1628L59.1943 27.4568L56.1524 27.2747L56.2387 24.2335L56.583 22.7004L57.4345 20.4717L57.941 19.7352L58.544 18.8677Z" fill="black"/>
<path d="M59.6153 21.2018L59.232 26.8927L59.1918 27.4957L57.4958 27.3942L57.4319 27.3903L56.1544 27.3137L56.2406 24.2718L56.5849 22.7387L57.4364 20.51L57.9429 19.7735L58.546 18.9028L58.7069 18.6767C58.7069 18.6767 58.8136 19.327 59.2058 19.0402L59.2141 19.0344C59.5974 18.7917 59.6153 21.2018 59.6153 21.2018Z" fill="#1D2366"/>
<path d="M56.6277 22.206C56.6277 22.206 56.475 22.5254 56.1684 22.4736C55.8618 22.4219 55.8624 23.6234 55.8624 23.6234C55.8624 23.6234 55.6587 23.8151 55.5181 23.649C55.3776 23.4829 55.0071 24.0444 55.0071 24.0444L52.6858 24.1466C52.6858 24.1466 53.7187 24.6186 53.5162 26.047C53.5162 26.047 57.0231 25.8298 57.1381 25.4983C57.2531 25.1667 56.6277 22.206 56.6277 22.206Z" fill="white"/>
<path opacity="0.03" d="M56.6277 22.206C56.6277 22.206 56.475 22.5254 56.1684 22.4736C55.8618 22.4219 55.8624 23.6234 55.8624 23.6234C55.8624 23.6234 55.6587 23.8151 55.5181 23.649C55.3776 23.4829 55.0071 24.0444 55.0071 24.0444L52.6858 24.1466C52.6858 24.1466 53.7187 24.6186 53.5162 26.047C53.5162 26.047 57.0231 25.8298 57.1381 25.4983C57.2531 25.1667 56.6277 22.206 56.6277 22.206Z" fill="black"/>
<path d="M49.8815 24.8972L50.4935 25.4197L55.5309 26.4781L54.9062 25.8406L49.8815 24.8972Z" fill="white"/>
<path d="M58.5536 19.0689C58.4699 19.1967 58.2304 19.8508 58.0305 20.4218C57.8637 20.8977 57.7245 21.3161 57.7245 21.3161C57.7245 21.3161 57.3993 23.4331 57.2333 23.8157C57.0672 24.1983 57.1572 25.6905 57.1572 25.6905L56.5383 29.3757C56.5383 29.3757 56.2578 31.276 55.8247 32.4111C55.3974 33.5284 54.9215 34.0522 54.9068 34.0688C55.0984 33.8094 56.1429 28.703 56.1429 28.703L56.4878 22.2628C56.4878 22.2628 56.5383 21.6509 56.5894 21.1277C56.6405 20.6045 57.6753 19.8904 57.6753 19.8904L58.6731 18.4716C58.7734 18.6058 58.7063 18.8396 58.5536 19.0689Z" fill="white"/>
<path d="M55.9519 27.3456C55.9519 27.3456 54.4827 27.2817 53.7711 26.427C53.0595 25.5724 55.4159 26.0859 55.4159 26.0859L56.0285 26.2265L55.9519 27.3456Z" fill="#FFB0B1"/>
<path opacity="0.1" d="M62.813 37.1273C62.7344 37.4056 62.7217 37.6985 62.776 37.9826C61.1733 38.0963 59.4588 37.6632 59.4588 37.6632C59.1394 37.957 58.2981 38.3901 58.2981 38.3901L57.8395 32.705C57.5463 31.9384 57.4313 27.9224 57.4313 27.9224C57.4313 27.9224 57.4575 27.7123 57.4952 27.3973C57.4952 27.3897 57.4952 27.3814 57.4984 27.3737C57.6127 26.4941 57.8395 24.8429 57.9506 24.6199C58.1039 24.3133 57.4792 23.4976 57.4792 23.4976L57.7635 21.0734L57.7979 20.7808C58.3971 20.5132 58.8564 19.6585 58.8564 19.6585L59.209 19.0408C59.5923 18.7949 59.6121 21.205 59.6121 21.205L59.2288 26.8959L60.4987 26.5452C60.4987 26.5452 63.0296 36.4003 62.813 37.1273Z" fill="black"/>
<path d="M64.4579 37.5201C62.7108 38.3876 59.5354 37.584 59.5354 37.584C59.216 37.8778 58.3748 38.3109 58.3748 38.3109L57.9155 32.6258C57.6229 31.8592 57.5079 27.8432 57.5079 27.8432C57.5079 27.8432 57.8771 24.8467 58.0305 24.5407C58.0752 24.4513 58.0535 24.3184 58.0004 24.1753C57.7398 23.4943 57.6439 22.7612 57.7206 22.0361L57.8433 20.9942L57.8772 20.7023C58.477 20.434 58.9363 19.5793 58.9363 19.5793L59.2556 19.0197L59.8433 17.9887L60.1218 17.5007L60.1691 17.5435L60.53 17.8706C60.53 17.8706 60.6833 17.9983 60.9133 18.19C61.4134 18.6115 62.2777 19.3538 62.7236 19.808C63.1158 20.2079 63.2397 21.7633 63.2755 22.9342C63.2991 23.7052 63.2851 24.3095 63.2851 24.3095C62.8897 24.9604 63.9239 30.1863 63.9239 30.1863C64.1647 31.1962 64.4579 37.5201 64.4579 37.5201Z" fill="white"/>
<path opacity="0.03" d="M61.1043 19.5665C61.1043 19.5665 59.9053 21.8489 60.0445 22.7164C60.1838 23.5838 60.5798 24.5656 60.3888 24.795C60.3232 24.8818 60.2384 24.9524 60.141 25.001C60.0436 25.0497 59.9362 25.0751 59.8273 25.0754C59.6357 25.0882 59.1247 25.4452 59.1247 25.4836C59.1247 25.5219 58.6526 25.5219 58.2304 25.7007C57.8082 25.8796 57.1847 25.9812 57.1847 25.9812C57.1847 25.9812 55.971 25.9428 55.858 26.0578C55.7449 26.1728 55.6286 26.8608 55.8707 27.4095C56.1128 27.9582 56.3818 28.3677 56.5849 28.4424C56.788 28.5171 58.0771 28.0853 59.1228 27.9831C60.1685 27.8809 61.3036 27.0524 61.3036 27.0524C61.3036 27.0524 62.5537 26.6053 62.7728 25.8534C62.9919 25.1016 62.5051 20.9693 62.5051 20.9693C62.5051 20.9693 62.1372 19.0434 61.1043 19.5665Z" fill="black"/>
<path opacity="0.03" d="M60.951 19.3749C60.951 19.3749 59.752 21.6579 59.8925 22.5247C60.033 23.3916 60.4278 24.374 60.2362 24.604C60.1708 24.6909 60.0861 24.7615 59.9888 24.8102C59.8914 24.8589 59.7841 24.8843 59.6753 24.8844C59.4837 24.8972 58.9727 25.2542 58.9727 25.2926C58.9727 25.3309 58.5006 25.3309 58.0784 25.5091C57.6561 25.6873 57.0327 25.7895 57.0327 25.7895C57.0327 25.7895 55.819 25.7512 55.7066 25.8662C55.5942 25.9812 55.4766 26.6698 55.7193 27.2179C55.9621 27.7659 56.2304 28.176 56.4335 28.2508C56.6366 28.3255 57.9257 27.8937 58.9714 27.7921C60.0171 27.6905 61.1522 26.8608 61.1522 26.8608C61.1522 26.8608 62.4016 26.4136 62.6182 25.6624C62.8347 24.9112 62.3505 20.7777 62.3505 20.7777C62.3505 20.7777 61.9839 18.8524 60.951 19.3749Z" fill="black"/>
<path d="M61.0666 19.4515C61.0666 19.4515 59.8676 21.7345 60.0081 22.6014C60.1487 23.4682 60.5434 24.4506 60.3524 24.68C60.287 24.7672 60.2023 24.8379 60.1048 24.8867C60.0074 24.9355 59.8999 24.9609 59.7909 24.961C59.5993 24.9738 59.0883 25.3309 59.0883 25.3686C59.0883 25.4063 58.6169 25.4069 58.194 25.5858C57.7711 25.7646 57.1483 25.8662 57.1483 25.8662C57.1483 25.8662 55.9346 25.8279 55.8216 25.9428C55.7085 26.0578 55.5922 26.7464 55.8343 27.2945C56.0764 27.8426 56.3454 28.2527 56.5485 28.3274C56.7516 28.4022 58.0407 27.9703 59.0864 27.8681C60.1321 27.7659 61.2672 26.9374 61.2672 26.9374C61.2672 26.9374 62.5173 26.4903 62.7364 25.7384C62.9555 24.9866 62.4719 20.8543 62.4719 20.8543C62.4719 20.8543 62.0989 18.9316 61.0666 19.4515Z" fill="white"/>
<path opacity="0.1" d="M61.0404 25.5749C61.0404 25.5749 60.0822 25.3833 60.4157 25.7027C60.7491 26.0221 60.7472 26.3018 61.1554 26.2891C61.5636 26.2763 61.0404 25.5749 61.0404 25.5749Z" fill="black"/>
<path opacity="0.1" d="M62.6597 32.4469C62.6597 32.4469 62.2266 32.7401 63.0551 33.4159C63.8836 34.0918 62.6597 32.4469 62.6597 32.4469Z" fill="black"/>
<path opacity="0.1" d="M61.8331 34.857C61.8331 34.8954 61.6798 36.2624 62.2534 36.6041C62.8271 36.9459 61.8331 34.857 61.8331 34.857Z" fill="black"/>
<path d="M52.7254 24.1434C52.2629 24.1594 51.2638 24.3005 51.7819 25.267C52.2399 26.1223 53.0096 25.5506 53.4427 25.1169C53.3371 24.7125 53.0803 24.3641 52.7254 24.1434Z" fill="#FFB0B1"/>
<path opacity="0.1" d="M60.9133 18.2289C60.4227 18.5643 60.0113 18.8473 59.9308 18.906C59.7111 19.0689 59.292 20.0252 59.0218 20.5132C58.8066 20.906 58.1071 21.007 57.8433 21.0319L57.8771 20.74C58.477 20.4717 58.9363 19.617 58.9363 19.617L60.1218 17.5384L60.53 17.9095C60.53 17.9095 60.6833 18.0373 60.9133 18.2289Z" fill="black"/>
<path d="M60.9133 18.1906C60.4227 18.5259 60.0113 18.8089 59.9308 18.8683C59.7111 19.0306 59.292 19.9868 59.0218 20.4749C58.8066 20.8677 58.1071 20.9686 57.8433 20.9936L57.8771 20.7016C58.477 20.4334 58.9363 19.5787 58.9363 19.5787L60.1218 17.5001L60.53 17.8699C60.53 17.8699 60.6833 17.9964 60.9133 18.1906Z" fill="#DCE7FF"/>
<path d="M59.9692 16.563C59.9694 16.9464 59.8531 17.3209 59.6357 17.6368C59.3789 18.0102 58.9968 18.2793 58.5586 18.395C58.1204 18.5108 57.6553 18.4657 57.2475 18.2679C56.8397 18.0701 56.5164 17.7326 56.3362 17.3168C56.1559 16.9009 56.1307 16.4343 56.2651 16.0014C56.3995 15.5686 56.6847 15.1983 57.0687 14.9577C57.4528 14.7171 57.9104 14.6221 58.3585 14.6901C58.8066 14.758 59.2155 14.9843 59.511 15.328C59.8065 15.6716 59.9691 16.1098 59.9692 16.563Z" fill="#FFB0B1"/>
<path opacity="0.1" d="M63.2755 22.9348C63.0161 22.7752 62.8048 22.5483 62.6642 22.2782C62.5575 22.0674 62.4866 21.824 62.3045 21.6745C62.1404 21.5404 61.9213 21.5078 61.7169 21.4477C61.0449 21.2491 60.4815 20.6358 60.4604 19.9357C60.4502 19.6061 60.553 19.2772 60.5064 18.9507C60.4799 18.766 60.4064 18.5911 60.293 18.4429C60.2367 18.372 60.175 18.3056 60.1084 18.2442C60.019 18.1599 59.9251 18.0782 59.8433 17.9887C59.7918 17.9334 59.7468 17.8723 59.7092 17.8067C59.6788 17.753 59.6542 17.6963 59.6357 17.6374C59.508 17.2465 59.6242 16.7827 59.4837 16.3873L59.476 16.3656C59.423 16.2251 59.315 16.0845 59.1649 16.0737C59.0148 16.0628 58.8864 16.1874 58.7433 16.2429C58.4437 16.3592 58.1205 16.1612 57.8708 15.9593C57.621 15.7575 57.3393 15.5269 57.0218 15.5716C56.8117 15.6016 56.6456 15.7447 56.452 15.8188C56.4083 15.8357 56.3632 15.8487 56.3172 15.8578C56.481 15.4493 56.782 15.1106 57.1684 14.8998C57.5548 14.6891 58.0025 14.6196 58.4346 14.7031C58.8667 14.7866 59.2562 15.018 59.5363 15.3575C59.8163 15.697 59.9694 16.1235 59.9692 16.5636C59.9694 16.6965 59.9555 16.8291 59.9276 16.959C59.9308 16.968 59.934 16.9763 59.9379 16.9852C60.012 17.1768 60.0956 17.3736 60.1691 17.5435L60.53 17.8706C60.53 17.8706 60.6833 17.9983 60.9133 18.1899C61.4134 18.6115 62.2777 19.3538 62.7236 19.808C63.1158 20.2091 63.2384 21.7639 63.2755 22.9348Z" fill="black"/>
<path d="M56.4297 14.6517C56.521 14.4659 56.5664 14.2576 56.6756 14.0813C56.8359 13.8258 57.1157 13.6623 57.4032 13.5633C58.1537 13.3045 59.7398 12.9289 60.2138 13.5633C60.3071 13.691 60.3844 13.8328 60.5134 13.921C60.6118 13.988 60.7306 14.0168 60.8385 14.0673C61.1407 14.2091 61.3336 14.5182 61.4364 14.8338C61.5393 15.1493 61.5699 15.4879 61.6453 15.813C61.7418 16.2302 61.911 16.6256 62.0797 17.0184C62.2783 17.4822 62.4891 17.9632 62.8724 18.2909C63.3956 18.738 63.5112 19.3711 63.9967 19.8616C64.5716 20.4442 64.553 21.4056 64.2567 22.1689C64.2177 22.2692 64.1736 22.374 64.1889 22.4806C64.2043 22.5873 64.2835 22.6844 64.3582 22.7694L64.6725 23.1239C63.929 23.3034 63.0877 22.915 62.7415 22.2334C62.6348 22.0226 62.5639 21.7799 62.3812 21.6298C62.2177 21.4956 61.9979 21.4637 61.7942 21.4037C61.1222 21.2044 60.5587 20.5905 60.5377 19.8904C60.5274 19.5614 60.6303 19.2324 60.5837 18.9067C60.5577 18.7207 60.484 18.5446 60.3697 18.3956C60.194 18.1663 59.9289 18.0124 59.7858 17.7569C59.5437 17.3295 59.7277 16.7744 59.5533 16.3158C59.4996 16.1752 59.3923 16.0347 59.2422 16.0238C59.0921 16.013 58.9637 16.1375 58.82 16.1931C58.521 16.3094 58.1978 16.112 57.948 15.9095C57.6983 15.707 57.4166 15.477 57.0985 15.5224C56.8883 15.5518 56.7229 15.6949 56.5293 15.7696C56.3862 15.8245 56.0962 15.8737 55.971 15.753C55.7066 15.5096 56.3192 14.8791 56.4297 14.6517Z" fill="#591D4B"/>
<path opacity="0.1" d="M62.9191 22.0226C62.8117 21.8118 62.7415 21.5691 62.5588 21.4196C62.3953 21.2855 62.1755 21.2529 61.9711 21.1929C61.2997 20.9942 60.7363 20.3803 60.7146 19.6802C60.7044 19.3513 60.8072 19.0216 60.7612 18.6959C60.7345 18.5111 60.6608 18.3362 60.5473 18.188C60.371 17.9587 60.1059 17.8048 59.9634 17.5493C59.7213 17.1225 59.9053 16.5674 59.7303 16.1082C59.6772 15.9683 59.5693 15.8277 59.4198 15.8162C59.2703 15.8047 59.1407 15.9306 58.9976 15.9862C58.6986 16.1024 58.3748 15.9044 58.1256 15.7025C57.8765 15.5007 57.5935 15.2701 57.2761 15.3148C57.0659 15.3448 56.8998 15.4879 56.7069 15.562C56.5638 15.6169 56.2732 15.6668 56.148 15.546C55.8848 15.2905 56.4974 14.6613 56.6073 14.4352C56.6986 14.2487 56.744 14.0411 56.8538 13.8648C56.8596 13.8552 56.866 13.8456 56.8723 13.836C56.7902 13.9041 56.7192 13.9847 56.6622 14.0749C56.553 14.2512 56.5076 14.4582 56.4163 14.6453C56.3057 14.8715 55.6932 15.5026 55.957 15.7562C56.0847 15.8776 56.3722 15.8277 56.5153 15.7728C56.7069 15.6981 56.8743 15.555 57.0844 15.5256C57.4038 15.4802 57.6849 15.7108 57.934 15.9127C58.1831 16.1145 58.5089 16.3126 58.8066 16.1963C58.9497 16.1407 59.0749 16.0155 59.2282 16.027C59.3815 16.0385 59.4837 16.1784 59.5393 16.319C59.7136 16.7776 59.5297 17.3327 59.7718 17.76C59.9149 18.0111 60.18 18.1682 60.3556 18.3988C60.4699 18.5478 60.5437 18.7239 60.5696 18.9099C60.6162 19.2356 60.5134 19.5646 60.5236 19.8936C60.5447 20.5962 61.1081 21.2076 61.7801 21.4069C61.9826 21.4669 62.2036 21.4988 62.3671 21.633C62.5505 21.7831 62.6227 22.0258 62.7274 22.2366C63.0736 22.9182 63.9149 23.3066 64.6585 23.1271L64.5103 22.9597C63.8657 22.9693 63.2135 22.6027 62.9191 22.0226Z" fill="black"/>
<path opacity="0.1" d="M58.5153 19.1072C58.4316 19.235 58.1921 19.8891 57.9921 20.4602C57.805 20.3874 57.6351 19.923 57.6351 19.923L58.6328 18.5036C58.735 18.6441 58.668 18.8773 58.5153 19.1072Z" fill="black"/>
<path d="M58.5536 19.0689C58.4699 19.1967 58.2304 19.8508 58.0305 20.4219C57.8433 20.3497 57.6734 19.8846 57.6734 19.8846L58.6712 18.4659C58.7734 18.6058 58.7063 18.8396 58.5536 19.0689Z" fill="#DCE7FF"/>
<path d="M52.7522 25.5947L52.199 23.8502C52.1925 23.8298 52.19 23.8083 52.1918 23.7869C52.1936 23.7655 52.1996 23.7447 52.2094 23.7256C52.2193 23.7066 52.2328 23.6897 52.2492 23.6759C52.2656 23.662 52.2846 23.6516 52.3051 23.6451C52.3462 23.6323 52.3908 23.6362 52.4291 23.6561C52.4674 23.6759 52.4963 23.7101 52.5095 23.7512L53.0626 25.4938L53.0077 25.8585L52.7522 25.5947Z" fill="#BE8B87"/>
<path opacity="0.1" d="M52.2514 23.6969C52.2927 23.6838 52.3374 23.6877 52.3758 23.7075C52.4143 23.7274 52.4433 23.7617 52.4565 23.8029L53.0096 25.5455L52.9681 25.8189L53.0084 25.8611L53.0633 25.4963L52.5069 23.7537C52.4937 23.7127 52.4648 23.6785 52.4265 23.6586C52.3883 23.6388 52.3437 23.6348 52.3025 23.6477C52.2679 23.6589 52.238 23.6814 52.2175 23.7116C52.2284 23.7058 52.2397 23.7008 52.2514 23.6969Z" fill="white"/>
<path d="M52.7522 25.5947L53.0626 25.4963L53.0173 25.7953L53.0077 25.8611L52.917 25.7665L52.7522 25.5947Z" fill="#EFC8C4"/>
<path d="M52.917 25.7665C52.9224 25.7597 52.9291 25.7541 52.9368 25.7499C52.9413 25.7471 52.9465 25.7456 52.9518 25.7456C52.9571 25.7456 52.9623 25.7471 52.9668 25.7499C52.9712 25.7552 52.9748 25.761 52.9777 25.7672C52.9819 25.7742 52.9877 25.7802 52.9945 25.7848C53.0014 25.7893 53.0092 25.7922 53.0173 25.7934L53.0077 25.8573L52.917 25.7665Z" fill="#727A9C"/>
<path d="M52.1958 24.4698C52.1958 24.4698 53.3054 24.4634 53.0441 24.9355C52.7829 25.4075 52.3747 25.4644 52.3747 25.4644L52.1958 24.4698Z" fill="#FFB0B1"/>
<path d="M45.2951 3.28462H45.2472C43.341 3.28462 41.6553 4.29325 40.6856 5.78162C39.716 4.29325 38.0302 3.28462 36.1241 3.28462H36.0762C34.6457 3.29825 33.2784 3.87588 32.2714 4.89197C31.2644 5.90806 30.699 7.28051 30.6983 8.71107C30.6983 10.4875 31.4763 13.0082 32.9934 15.0823C35.8839 19.0344 40.6856 22.4921 40.6856 22.4921C40.6856 22.4921 45.4873 19.0351 48.3772 15.0823C49.8949 13.0082 50.6723 10.4875 50.6723 8.71107C50.6716 7.28062 50.1063 5.90827 49.0995 4.89219C48.0926 3.87612 46.7255 3.29842 45.2951 3.28462ZM44.6097 15.3863C44.3926 15.3855 44.1808 15.3191 44.0022 15.1957C43.8235 15.0724 43.6864 14.8979 43.6087 14.6952H42.4691C42.3941 14.6947 42.321 14.6708 42.2602 14.6268C42.1994 14.5829 42.1539 14.521 42.1299 14.4499L41.7799 13.3953L40.6722 17.2656C40.6506 17.3401 40.6055 17.4056 40.5435 17.4523C40.4815 17.4989 40.4061 17.5242 40.3285 17.5243H40.3062C40.2253 17.5204 40.1481 17.4889 40.0877 17.4349C40.0272 17.381 39.9871 17.3079 39.974 17.2279L38.8325 10.3623L37.9983 14.425C37.9791 14.5021 37.9347 14.5707 37.8721 14.6197C37.8094 14.6686 37.7322 14.6952 37.6527 14.6952H36.0474C35.9993 14.6972 35.9513 14.6895 35.9062 14.6725C35.8612 14.6555 35.82 14.6295 35.7852 14.5962C35.7505 14.5629 35.7228 14.5228 35.7039 14.4785C35.685 14.4342 35.6752 14.3866 35.6752 14.3384C35.6752 14.2903 35.685 14.2426 35.7039 14.1983C35.7228 14.154 35.7505 14.114 35.7852 14.0806C35.82 14.0473 35.8612 14.0214 35.9062 14.0044C35.9513 13.9873 35.9993 13.9796 36.0474 13.9817H37.3716L38.5534 8.51943C38.5728 8.43868 38.6196 8.36717 38.6859 8.31712C38.7522 8.26708 38.8338 8.24162 38.9168 8.24509C38.9998 8.24856 39.079 8.28075 39.1408 8.33615C39.2027 8.39155 39.2434 8.46672 39.256 8.54882L40.4218 15.5524L41.4145 12.0896C41.4351 12.0167 41.4788 11.9524 41.5391 11.9063C41.5993 11.8603 41.6728 11.8349 41.7486 11.8341H41.7556C41.8307 11.8341 41.9038 11.8578 41.9646 11.9019C42.0254 11.9459 42.0707 12.008 42.0941 12.0794L42.7272 13.9836H43.5946C43.6563 13.7962 43.7686 13.6295 43.919 13.5019C44.0694 13.3743 44.2522 13.2907 44.4471 13.2604C44.642 13.2301 44.8415 13.2542 45.0236 13.3302C45.2057 13.4061 45.3632 13.5308 45.4789 13.6907C45.5945 13.8505 45.6638 14.0391 45.679 14.2358C45.6942 14.4325 45.6547 14.6296 45.565 14.8052C45.4753 14.9809 45.3388 15.1284 45.1705 15.2314C45.0023 15.3344 44.8088 15.3889 44.6116 15.3889L44.6097 15.3863Z" fill="#05064E"/>
</g>
<defs>
<linearGradient id="paint0_linear_3_1551" x1="22.9677" y1="49.4973" x2="22.9677" y2="10.1905" gradientUnits="userSpaceOnUse">
<stop stop-color="#808080" stop-opacity="0.25"/>
<stop offset="0.54" stop-color="#808080" stop-opacity="0.12"/>
<stop offset="1" stop-color="#808080" stop-opacity="0.1"/>
</linearGradient>
<linearGradient id="paint1_linear_3_1551" x1="57.2767" y1="49.0003" x2="57.2767" y2="13.1008" gradientUnits="userSpaceOnUse">
<stop stop-color="#808080" stop-opacity="0.25"/>
<stop offset="0.54" stop-color="#808080" stop-opacity="0.12"/>
<stop offset="1" stop-color="#808080" stop-opacity="0.1"/>
</linearGradient>
<clipPath id="clip0_3_1551">
<rect width="70.5879" height="50" fill="white" transform="translate(0.206024)"/>
</clipPath>
</defs>
</svg>
