<svg width="67" height="50" viewBox="0 0 67 50" fill="none" xmlns="http://www.w3.org/2000/svg">
<g clip-path="url(#clip0_5_1314)">
<path d="M27.6886 34.643C27.6886 36.3686 26.3486 37.7675 24.6955 37.7675C23.0424 37.7675 21.7024 36.3686 21.7024 34.643C21.7024 34.6039 21.703 34.565 21.7046 34.5262C21.7349 32.8009 23.0998 31.4285 24.7525 31.4607C26.4053 31.4929 27.72 32.9177 27.6891 34.643H27.6886Z" fill="#05064E"/>
<path d="M23.6415 36.0306L22.7794 34.8812L22.9835 34.728L23.6859 35.6644L26.451 33.4023L26.6126 33.5999L23.6415 36.0306Z" fill="white"/>
<path d="M66.5894 49.8207H0.41061V50H66.5894V49.8207Z" fill="#E6E6E6"/>
<path d="M43.984 17.5668C44.0459 17.5951 44.1055 17.6283 44.1621 17.6662L49.8236 15.2498L50.0256 13.7585L52.2878 13.7446L52.1542 17.1653L44.6815 19.1417C44.6658 19.1936 44.6469 19.2445 44.6249 19.2941C44.5169 19.5247 44.3431 19.7181 44.1255 19.8502C43.9078 19.9823 43.656 20.0472 43.4016 20.0366C43.1473 20.0261 42.9017 19.9406 42.6957 19.7909C42.4898 19.6413 42.3326 19.4341 42.244 19.1954C42.1554 18.9567 42.1393 18.6972 42.1977 18.4494C42.2562 18.2016 42.3865 17.9766 42.5724 17.8026C42.7583 17.6286 42.9914 17.5135 43.2426 17.4716C43.4937 17.4297 43.7516 17.4629 43.9839 17.5671L43.984 17.5668Z" fill="#A0616A"/>
<path d="M53.1105 48.5631H51.563L50.8268 42.594H53.1107L53.1105 48.5631Z" fill="#A0616A"/>
<path d="M50.4576 48.1209H53.4421V49.9995H48.5784C48.5784 49.5011 48.7764 49.0231 49.1288 48.6707C49.4812 48.3183 49.9592 48.1203 50.4576 48.1203V48.1209Z" fill="#2F2E41"/>
<path d="M59.129 48.1258L57.5891 48.2773L56.2713 42.4092L58.5443 42.1859L59.129 48.1258Z" fill="#A0616A"/>
<path d="M56.4446 47.9461L59.4143 47.6536L59.5984 49.5233L54.7592 50C54.7104 49.5042 54.8605 49.0092 55.1765 48.624C55.4926 48.2389 55.9488 47.995 56.4446 47.9461Z" fill="#2F2E41"/>
<path d="M53.5413 7.42727C55.2535 7.42727 56.6415 6.03925 56.6415 4.32703C56.6415 2.61481 55.2535 1.22679 53.5413 1.22679C51.8291 1.22679 50.441 2.61481 50.441 4.32703C50.441 6.03925 51.8291 7.42727 53.5413 7.42727Z" fill="#A0616A"/>
<path d="M51.2171 47.3559C51.0841 47.3561 50.9552 47.3094 50.8533 47.224C50.7513 47.1385 50.6828 47.0198 50.6598 46.8888C49.8593 42.4432 47.2406 27.9042 47.1779 27.5012C47.1765 27.4919 47.1758 27.4826 47.1758 27.4732V26.389C47.1757 26.3495 47.1881 26.311 47.2111 26.2789L47.5569 25.7948C47.5734 25.7715 47.5949 25.7523 47.62 25.7386C47.645 25.7249 47.6728 25.7172 47.7013 25.7159C49.6736 25.6235 56.1313 25.3525 56.4433 25.7423C56.7566 26.1336 56.6453 27.3211 56.62 27.555L56.6213 27.5793L59.5227 46.1345C59.5455 46.2826 59.509 46.4336 59.4212 46.5549C59.3334 46.6762 59.2013 46.758 59.0536 46.7827L57.2415 47.0812C57.1065 47.1029 56.9683 47.0754 56.8519 47.0038C56.7355 46.9321 56.6486 46.8211 56.6072 46.6908C56.0467 44.8998 54.1674 38.8751 53.516 36.5437C53.5125 36.5284 53.5033 36.5149 53.4903 36.506C53.4773 36.497 53.4614 36.4933 53.4458 36.4956C53.4302 36.4979 53.416 36.5059 53.4061 36.5182C53.3962 36.5304 53.3912 36.5459 53.3922 36.5617C53.4247 38.784 53.5033 44.4538 53.531 46.4121L53.5339 46.623C53.5351 46.7658 53.4827 46.9039 53.387 47.0099C53.2914 47.1159 53.1594 47.1822 53.0173 47.1956L51.2699 47.3539C51.2523 47.3554 51.2347 47.3561 51.2171 47.3559Z" fill="#2F2E41"/>
<path d="M51.5737 8.64638C51.0327 8.96803 50.7089 9.55898 50.5231 10.1614C50.1792 11.2749 49.9722 12.4261 49.9066 13.5896L49.7102 17.0732L47.2796 26.3093C49.3863 28.0918 50.6013 27.6866 53.4371 26.2286C56.2729 24.7707 56.5968 26.7147 56.5968 26.7147L57.1638 18.856L57.9739 10.2685C57.792 10.0496 57.5862 9.85167 57.3602 9.67857C56.6114 9.09616 55.7402 8.6913 54.8122 8.4945C53.8842 8.29771 52.9236 8.31411 52.0028 8.54248L51.5737 8.64638Z" fill="#05064E"/>
<path d="M50.7843 19.4321C50.8496 19.4565 50.9129 19.4861 50.9736 19.5205L56.5718 16.7182L56.6646 15.2002L58.9738 15.041L59.0976 18.5014L51.6166 20.9756C51.5555 21.2378 51.4161 21.4751 51.2169 21.6561C51.0176 21.8371 50.768 21.9531 50.5012 21.9888C50.2344 22.0244 49.9631 21.978 49.7234 21.8556C49.4836 21.7333 49.2868 21.5409 49.1591 21.3039C49.0314 21.067 48.9788 20.7968 49.0085 20.5292C49.0381 20.2617 49.1485 20.0095 49.3249 19.8063C49.5014 19.603 49.7355 19.4583 49.9962 19.3914C50.2569 19.3245 50.5318 19.3385 50.7844 19.4316L50.7843 19.4321Z" fill="#A0616A"/>
<path d="M57.9336 10.3072C59.3108 10.7932 59.5536 16.0599 59.5536 16.0599C57.9332 15.1687 55.9888 16.627 55.9888 16.627C55.9888 16.627 55.5838 15.2495 55.0976 13.4673C54.9508 12.9659 54.9333 12.4356 55.0466 11.9256C55.1599 11.4157 55.4004 10.9427 55.7457 10.5506C55.7457 10.5506 56.5562 9.82083 57.9336 10.3072Z" fill="#05064E"/>
<path d="M56.3206 5.14667C55.9343 4.83766 55.4073 5.39911 55.4073 5.39911L55.0983 2.61864C55.0983 2.61864 53.1671 2.85002 51.9308 2.54136C50.6945 2.23271 50.5015 3.66194 50.5015 3.66194C50.4378 3.08475 50.4249 2.50307 50.4629 1.92361C50.5402 1.22831 51.5444 0.533015 53.3213 0.0694534C55.0982 -0.394108 56.0252 1.6146 56.0252 1.6146C57.262 2.23217 56.7073 5.45604 56.3206 5.14667Z" fill="#2F2E41"/>
<path d="M14.8553 4.08355C14.7815 4.08368 14.7108 4.11309 14.6587 4.16531C14.6065 4.21753 14.5773 4.28831 14.5773 4.36209C14.5773 4.43588 14.6065 4.50666 14.6587 4.55888C14.7108 4.6111 14.7815 4.64051 14.8553 4.64064H35.1924C35.2662 4.64051 35.3369 4.6111 35.389 4.55888C35.4411 4.50666 35.4704 4.43588 35.4704 4.36209C35.4704 4.28831 35.4411 4.21753 35.389 4.16531C35.3369 4.11309 35.2662 4.08368 35.1924 4.08355H14.8553Z" fill="#CCCCCC"/>
<path d="M14.8553 5.75482C14.7815 5.75477 14.7107 5.78401 14.6584 5.83613C14.6062 5.88825 14.5767 5.95897 14.5766 6.03278C14.5764 6.10659 14.6055 6.17744 14.6576 6.22977C14.7096 6.28211 14.7803 6.31165 14.8541 6.31191H27.7114C27.748 6.31191 27.7842 6.30471 27.818 6.29071C27.8518 6.27671 27.8825 6.25619 27.9084 6.23033C27.9343 6.20446 27.9548 6.17376 27.9688 6.13996C27.9828 6.10617 27.99 6.06995 27.99 6.03337C27.99 5.99679 27.9828 5.96057 27.9688 5.92677C27.9548 5.89298 27.9343 5.86227 27.9084 5.83641C27.8825 5.81054 27.8518 5.79002 27.818 5.77602C27.7842 5.76203 27.748 5.75482 27.7114 5.75482H14.8553Z" fill="#CCCCCC"/>
<path d="M34.9375 1.95423C34.9375 2.62964 34.413 3.17718 33.766 3.17718C33.1189 3.17718 32.5944 2.62965 32.5944 1.95423C32.5944 1.93891 32.5947 1.92371 32.5953 1.90853C32.6072 1.23324 33.1414 0.696049 33.7883 0.70866C34.4352 0.721272 34.9498 1.27893 34.9377 1.95423H34.9375Z" fill="#05064E"/>
<path d="M33.3534 2.49736L33.016 2.04745L33.0959 1.98748L33.3708 2.35401L34.4531 1.46862L34.5163 1.54595L33.3534 2.49736Z" fill="white"/>
<path d="M14.8553 14.3032C14.7815 14.3034 14.7108 14.3328 14.6587 14.385C14.6065 14.4372 14.5773 14.508 14.5773 14.5818C14.5773 14.6556 14.6065 14.7263 14.6587 14.7786C14.7108 14.8308 14.7815 14.8602 14.8553 14.8603H35.1924C35.2662 14.8602 35.3369 14.8308 35.389 14.7786C35.4411 14.7263 35.4704 14.6556 35.4704 14.5818C35.4704 14.508 35.4411 14.4372 35.389 14.385C35.3369 14.3328 35.2662 14.3034 35.1924 14.3032H14.8553Z" fill="#CCCCCC"/>
<path d="M14.8553 15.9745C14.7815 15.9745 14.7107 16.0037 14.6584 16.0558C14.6062 16.1079 14.5767 16.1787 14.5766 16.2525C14.5764 16.3263 14.6055 16.3971 14.6576 16.4495C14.7096 16.5018 14.7803 16.5313 14.8541 16.5316H27.7114C27.7853 16.5316 27.8562 16.5023 27.9084 16.45C27.9606 16.3978 27.99 16.3269 27.99 16.2531C27.99 16.1792 27.9606 16.1083 27.9084 16.0561C27.8562 16.0039 27.7853 15.9745 27.7114 15.9745H14.8553Z" fill="#CCCCCC"/>
<path d="M34.8478 12.1739C34.8478 12.8493 34.3233 13.3969 33.6763 13.3969C33.0293 13.3969 32.5048 12.8493 32.5048 12.1739C32.5048 12.1586 32.505 12.1434 32.5057 12.1282C32.5175 11.4529 33.0517 10.9157 33.6986 10.9284C34.3455 10.941 34.8601 11.4986 34.848 12.1739H34.8478Z" fill="#05064E"/>
<path d="M33.2638 12.717L32.9263 12.2671L33.0062 12.2072L33.2811 12.5737L34.3634 11.6883L34.4267 11.7656L33.2638 12.717Z" fill="white"/>
<path d="M14.8553 24.5229C14.7815 24.5231 14.7108 24.5525 14.6587 24.6047C14.6065 24.6569 14.5773 24.7277 14.5773 24.8015C14.5773 24.8753 14.6065 24.946 14.6587 24.9983C14.7108 25.0505 14.7815 25.0799 14.8553 25.08H35.1924C35.2662 25.0799 35.3369 25.0505 35.389 24.9983C35.4411 24.946 35.4704 24.8753 35.4704 24.8015C35.4704 24.7277 35.4411 24.6569 35.389 24.6047C35.3369 24.5525 35.2662 24.5231 35.1924 24.5229H14.8553Z" fill="#CCCCCC"/>
<path d="M14.8553 26.1942C14.7815 26.1941 14.7107 26.2234 14.6584 26.2755C14.6062 26.3276 14.5767 26.3984 14.5766 26.4722C14.5764 26.546 14.6055 26.6168 14.6576 26.6692C14.7096 26.7215 14.7803 26.751 14.8541 26.7513H27.7114C27.7853 26.7513 27.8562 26.7219 27.9084 26.6697C27.9606 26.6175 27.99 26.5466 27.99 26.4727C27.99 26.3989 27.9606 26.328 27.9084 26.2758C27.8562 26.2235 27.7853 26.1942 27.7114 26.1942H14.8553Z" fill="#CCCCCC"/>
<path d="M34.8478 22.3936C34.8478 23.069 34.3233 23.6166 33.6763 23.6166C33.0293 23.6166 32.5048 23.069 32.5048 22.3936C32.5048 22.3783 32.505 22.3631 32.5057 22.3479C32.5175 21.6726 33.0517 21.1354 33.6986 21.148C34.3455 21.1607 34.8601 21.7183 34.848 22.3936H34.8478Z" fill="#05064E"/>
<path d="M33.2638 22.9367L32.9263 22.4868L33.0062 22.4269L33.2811 22.7934L34.3634 21.908L34.4267 21.9853L33.2638 22.9367Z" fill="white"/>
</g>
<defs>
<clipPath id="clip0_5_1314">
<rect width="66.1788" height="50" fill="white" transform="translate(0.41061)"/>
</clipPath>
</defs>
</svg>
