<svg width="51" height="50" viewBox="0 0 51 50" fill="none" xmlns="http://www.w3.org/2000/svg">
<g clip-path="url(#clip0_3_1086)">
<path d="M43.4408 47.3971C39.0796 48.359 33.3724 48.1771 27.2482 47.4042C22.239 46.772 16.5899 45.1908 12.0049 43.3499C12.4783 42.8724 13.0979 42.566 13.7655 42.4794C13.7842 42.4766 13.8035 42.4738 13.8228 42.4717C14.1608 42.4313 14.5025 42.4314 14.8405 42.4719C19.1223 42.9513 18.3365 45.2893 24.1125 42.6672C27.7047 41.0364 31.5688 40.807 34.12 41.3608C34.167 41.371 34.2134 41.3814 34.2598 41.3922C35.7355 41.7356 36.7448 42.3474 36.963 43.1009C37.5586 45.1563 34.8927 46.404 39.4685 46.4941C40.7381 46.519 42.1606 47.0844 43.4408 47.3971Z" fill="#3F3D56"/>
<path d="M60.919 49.7846C59.1681 49.6434 57.4209 49.3755 55.6796 49.1499C53.2248 48.8318 50.7712 48.5041 48.3189 48.1666C43.4576 47.5028 38.5992 46.8179 33.7394 46.1431C28.8457 45.4636 23.9505 44.794 19.054 44.1341C14.5153 43.5222 9.97468 42.9237 5.43228 42.3385C2.02267 41.9045 -1.38918 41.4849 -4.80968 41.145C-5.07237 41.1189 -5.33508 41.0931 -5.59782 41.0674C-5.71433 41.0561 -5.71354 41.2377 -5.59782 41.249C-2.41243 41.5606 0.765636 41.9332 3.94124 42.3316C8.47314 42.9002 13.0009 43.5022 17.5276 44.1103C22.4243 44.7681 27.3196 45.4358 32.2136 46.1134C37.0528 46.7832 41.8902 47.4657 46.73 48.1307C51.2196 48.7475 55.7104 49.3878 60.2142 49.8941C60.4488 49.9204 60.6836 49.9472 60.919 49.9662C61.0358 49.9756 61.0352 49.794 60.919 49.7846Z" fill="#3F3D56"/>
<path d="M19.2764 24.3951C19.2764 24.3951 18.4128 28.3891 19.5904 28.3108C20.7679 28.2325 20.2184 24.6301 20.2184 24.6301L19.2764 24.3951Z" fill="#A0616A"/>
<path d="M23.9866 43.4253L24.5361 46.3229L25.7922 46.1663L25.3996 43.0337L23.9866 43.4253Z" fill="#A0616A"/>
<path d="M30.3454 40.606L30.6594 42.7205H32.3079L31.9939 40.7626L30.3454 40.606Z" fill="#A0616A"/>
<path d="M22.7305 22.4373C22.7305 22.4373 21.396 25.0216 21.867 31.4433C22.338 37.8651 22.338 43.9735 22.338 43.9735L25.7136 43.7386L26.6557 27.7626L30.3454 41.6241L32.779 41.3892L32.1509 27.8409L30.1883 21.3409L22.7305 22.4373Z" fill="#2F2E41"/>
<path d="M25.0071 44.9916C25.0071 44.9916 25.2426 44.2868 24.8501 44.2868H23.9866C23.9866 44.2868 23.0445 46.0096 22.495 46.1663C21.9455 46.3229 20.2184 47.8109 21.867 47.9675C23.5155 48.1241 26.0276 47.2627 26.0276 46.9494C26.0276 46.6362 25.7921 45.3048 25.7921 45.3048L25.0071 44.9916Z" fill="#2F2E41"/>
<path d="M31.9154 42.2506C31.9154 42.2506 30.4723 41.8524 30.5658 42.0907C30.6594 42.3289 30.3454 43.0337 30.3454 43.0337C30.3454 43.0337 29.5603 47.4976 31.9154 47.106C34.2705 46.7145 32.5435 43.347 32.5435 43.347L32.1947 42.0147L31.9154 42.2506Z" fill="#2F2E41"/>
<path d="M25.3211 5.5216C26.6218 5.5216 27.6762 4.46974 27.6762 3.1722C27.6762 1.87466 26.6218 0.822796 25.3211 0.822796C24.0204 0.822796 22.966 1.87466 22.966 3.1722C22.966 4.46974 24.0204 5.5216 25.3211 5.5216Z" fill="#A0616A"/>
<path d="M23.7511 4.42522C23.7511 4.42522 24.1436 6.69631 23.9081 7.16619C23.6726 7.63607 25.7922 8.57583 25.7922 8.57583L26.8912 5.91317V4.42522L23.7511 4.42522Z" fill="#A0616A"/>
<path d="M25.0071 7.08787C25.0071 7.08787 24.2925 7.19272 23.9825 6.67042C23.6726 6.14811 22.966 10.2987 22.966 10.2987C22.966 10.2987 23.28 15.7807 22.8875 17.0337C22.495 18.2867 22.5735 18.7566 22.7305 18.9915C22.8875 19.2265 23.3585 18.9132 22.966 19.5397C22.5735 20.1662 22.5735 19.7746 22.5735 20.4012C22.5735 21.0277 22.4165 23.2988 22.4165 23.2988L30.8949 22.6722L26.8912 5.5216C26.8912 5.5216 25.5566 7.16619 25.0071 7.08787Z" fill="#3F3D56"/>
<path d="M28.3043 6.38305C28.3043 6.38305 31.5229 6.85293 31.6799 7.55775C31.8369 8.26257 34.977 27.8409 33.3285 28.859C31.6799 29.8771 26.3417 30.6602 26.1062 29.6421C25.8706 28.6241 24.6146 7.87101 26.8912 5.5216L28.3043 6.38305Z" fill="#D0CDE1"/>
<path d="M32.838 27.0123H32.1789C32.1789 27.0123 32.3817 24.6349 32.1789 24.4157C32.1789 24.4157 30.3365 24.2134 28.4773 26.2367C28.4773 26.2367 28.7984 24.0279 31.1985 23.9099C31.9679 23.8721 32.4126 24.1773 32.6614 24.6096C33.1891 25.5258 32.838 27.0123 32.838 27.0123Z" fill="#3F3D56"/>
<path opacity="0.15" d="M32.838 27.0123H32.1789C32.1789 27.0123 32.3817 24.6349 32.1789 24.4157L32.6614 24.6096C33.1891 25.5258 32.838 27.0123 32.838 27.0123Z" fill="black"/>
<path d="M28.9675 25.4611L28.0547 27.0123H28.4773C28.4773 27.0123 28.5449 25.8658 28.9675 25.4611Z" fill="#3F3D56"/>
<path opacity="0.15" d="M28.9675 25.4611L28.0547 27.0123H28.4773C28.4773 27.0123 28.5449 25.8658 28.9675 25.4611Z" fill="black"/>
<path d="M36.7593 33.5713C36.7718 33.8319 36.7206 34.0915 36.6102 34.328C36.4998 34.5644 36.3335 34.7705 36.1255 34.9287C36.1255 34.9287 27.7251 36.9183 26.7955 36.7497C26.6812 36.7283 26.5702 36.692 26.4654 36.6418C25.7244 36.291 25.2574 35.3333 25.2574 35.3333C25.2574 35.3333 25.2434 35.0858 25.2226 34.6825C25.1827 33.9025 25.1182 32.5396 25.0825 31.2566C25.0473 29.989 25.0404 28.7996 25.1138 28.3275C25.2997 27.1303 26.5843 27.0292 26.5843 27.0292L35.1367 26.6582C35.4177 26.6554 35.6976 26.692 35.9683 26.7668C36.8929 27.0439 36.7593 27.7542 36.7593 27.7542C36.7593 27.7542 36.7255 32.6608 36.7593 33.5713Z" fill="#575A89"/>
<path d="M35.9683 26.7668C35.4442 26.9297 34.1841 27.2888 33.7339 27.1303C33.1592 26.928 28.7139 27.0629 27.0913 27.2484C25.4687 27.4338 26.0434 31.8178 26.0434 31.8178L25.0825 31.2566C25.0473 29.989 25.0404 28.7996 25.1138 28.3275C25.2997 27.1303 26.5842 27.0292 26.5842 27.0292L35.1367 26.6582C35.4177 26.6554 35.6976 26.692 35.9683 26.7668Z" fill="#3F3D56"/>
<path d="M29.8295 29.9125C29.8295 29.9125 29.0154 25.3731 30.5126 24.7511L30.7084 24.7529C30.7084 24.7529 30.2351 25.3768 30.421 26.5233C30.607 27.6699 30.5056 30.2834 30.5056 30.2834C30.5056 30.2834 29.9309 30.6206 29.8295 29.9125Z" fill="#2F2E41"/>
<path d="M30.4211 24.9047C30.4211 24.9047 31.3169 23.4715 32.9564 24.2639C34.5959 25.0564 34.748 26.8606 34.748 26.8606C34.748 26.8606 33.6156 23.5558 30.4211 24.9047Z" fill="#2F2E41"/>
<path d="M34.8663 30.0979L34.5959 28.3612L34.7311 26.7351L35.0691 28.4118L35.2212 30.0979H34.8663Z" fill="#2F2E41"/>
<path d="M31.8239 29.8956L32.7704 29.6595L33.7338 29.7775V30.1991L32.855 30.4689L31.8239 30.3677V29.8956Z" fill="#2F2E41"/>
<path d="M26.3138 35.9994C26.3372 36.219 26.3881 36.4348 26.4654 36.6418C25.7244 36.2911 25.2574 35.3333 25.2574 35.3333C25.2574 35.3333 25.2434 35.0858 25.2226 34.6825L25.8406 34.9371L26.3138 35.9994Z" fill="#3F3D56"/>
<path d="M26.7195 36.9267C26.6761 36.9165 26.6365 36.8945 26.605 36.863C26.7318 36.9139 26.7852 36.9405 26.7195 36.9267Z" fill="#2F2E41"/>
<path d="M23.982 6.50052L20.9249 9.51559L22.024 19.3048C22.024 19.3048 19.8259 30.8952 21.0819 30.8952C22.338 30.8952 22.181 31.0518 22.4165 30.1903C22.652 29.3289 23.982 6.50052 23.982 6.50052Z" fill="#D0CDE1"/>
<path d="M21.71 9.28065L20.9249 9.51559C20.9249 9.51559 20.2184 10.0638 20.2969 11.2385C20.3754 12.4132 20.2184 15.7807 20.2184 15.7807C20.2184 15.7807 19.7474 16.4855 19.9829 17.3469L18.8839 24.865L21.3175 25.2566L22.181 21.3409L21.71 9.28065Z" fill="#D0CDE1"/>
<path d="M31.4444 21.7325C31.4444 21.7325 30.5024 26.6662 31.4444 26.353C32.3865 26.0397 33.564 22.5939 32.779 22.0457C31.9939 21.4975 31.4444 21.7325 31.4444 21.7325Z" fill="#A0616A"/>
<path d="M22.9605 3.44771C22.9605 3.44771 22.72 3.08793 22.8125 2.70047C22.8677 2.48049 22.8896 2.25348 22.8772 2.02704C22.8772 2.02704 23.0714 1.39973 23.2656 1.04917C23.4598 0.698613 23.3673 0.55101 23.9777 0.440308C24.588 0.329606 24.3383 -0.463759 25.9474 0.394182C26.0017 0.469796 26.0772 0.527674 26.1645 0.56051C26.2517 0.593347 26.3467 0.599672 26.4375 0.578685C26.7704 0.514109 26.8907 0.975367 26.8907 0.975367C26.8907 0.975367 27.1126 0.846216 27.1958 1.03072C27.2791 1.21522 27.8725 0.919983 27.8725 2.16538C27.8725 3.41078 27.1972 4.52324 27.1972 4.52324C27.1972 4.52324 27.2467 2.42833 26.1462 2.21615C25.0458 2.00397 23.8621 1.38589 23.5754 2.17925C23.4207 2.62453 23.2143 3.05024 22.9605 3.44771Z" fill="#2F2E41"/>
<path d="M7.98695 29.2835C7.46553 29.7153 6.54636 31.8377 6.54636 31.8377C6.84049 31.8687 7.1365 31.878 7.43201 31.8656L7.32857 31.3021L7.71303 31.8431C7.86303 31.8271 8.01121 31.7972 8.15564 31.7538L7.99644 30.8865L8.49353 31.586C8.4972 31.5831 8.501 31.5802 8.50458 31.5773C9.02601 31.1455 9.33282 30.2819 9.18988 29.6485C9.04694 29.0151 8.50836 28.8517 7.98695 29.2835Z" fill="#05064E"/>
<path d="M21.8826 38.7266C21.3612 39.1584 20.442 41.2808 20.442 41.2808C20.7361 41.3118 21.0321 41.3211 21.3276 41.3087L21.2242 40.7452L21.6087 41.2862C21.7587 41.2702 21.9068 41.2403 22.0513 41.1969L21.8921 40.3296L22.3892 41.0291C22.3928 41.0262 22.3966 41.0233 22.4002 41.0204C22.9216 40.5886 23.2285 39.725 23.0855 39.0916C22.9426 38.4582 22.404 38.2948 21.8826 38.7266Z" fill="#05064E"/>
<path d="M19.8418 18.8943C19.3977 19.3559 18.5002 21.4866 18.5002 21.4866C18.7313 21.4918 18.9623 21.476 19.1904 21.4394L19.157 20.9028L19.412 21.3941C19.5338 21.3649 19.6523 21.3235 19.7656 21.2705L19.7142 20.4446L20.044 21.0798C20.0471 21.0767 20.0503 21.0736 20.0534 21.0705C20.4974 20.6089 20.8101 19.7476 20.7517 19.1467C20.6932 18.5458 20.2859 18.4328 19.8418 18.8943Z" fill="#05064E"/>
<path d="M8.69157 45.8782C8.07317 45.7088 5.76773 45.9376 5.76773 45.9376C5.87326 46.1426 5.99731 46.3377 6.13833 46.5203L6.59526 46.2352L6.28394 46.693C6.36768 46.7859 6.46065 46.87 6.56141 46.9442L7.26464 46.5054L6.86212 47.0974C6.86637 47.0986 6.87059 47.1 6.87484 47.1011C7.49324 47.2705 8.40124 47.1341 8.90291 46.7964C9.40459 46.4587 9.30996 46.0476 8.69157 45.8782Z" fill="#3F3D56"/>
<path d="M10.3906 44.9097C9.7722 44.7403 7.46677 44.969 7.46677 44.969C7.5723 45.1741 7.69635 45.3691 7.83737 45.5518L8.29429 45.2666L7.98297 45.7245C8.06672 45.8174 8.15968 45.9015 8.26044 45.9757L8.96368 45.5369L8.56115 46.1288C8.5654 46.1301 8.56962 46.1314 8.57388 46.1326C9.19228 46.302 10.1003 46.1656 10.6019 45.8279C11.1036 45.4902 11.009 45.0791 10.3906 44.9097Z" fill="#3F3D56"/>
<path d="M28.4731 48.7233C27.8547 48.5539 25.5493 48.7826 25.5493 48.7826C25.6548 48.9877 25.7789 49.1827 25.9199 49.3653L26.3768 49.0802L26.0655 49.5381C26.1492 49.6309 26.2422 49.7151 26.343 49.7892L27.0462 49.3504L26.6437 49.9424C26.6479 49.9437 26.6521 49.945 26.6564 49.9462C27.2748 50.1156 28.1828 49.9792 28.6845 49.6415C29.1861 49.3038 29.0915 48.8927 28.4731 48.7233Z" fill="#3F3D56"/>
<path d="M10.3906 47.3916C9.7722 47.2222 7.46677 47.4509 7.46677 47.4509C7.5723 47.6559 7.69635 47.851 7.83737 48.0336L8.29429 47.7485L7.98297 48.2063C8.06672 48.2992 8.15968 48.3834 8.26044 48.4575L8.96368 48.0187L8.56115 48.6107C8.5654 48.6119 8.56962 48.6133 8.57388 48.6145C9.19228 48.7839 10.1003 48.6474 10.6019 48.3097C11.1036 47.972 11.009 47.561 10.3906 47.3916Z" fill="#3F3D56"/>
<path d="M36.4444 25.8891C36.255 26.1794 36.1347 26.9112 36.0628 27.5467L36.4197 27.9263L36.0369 27.7911C35.9898 28.2668 35.9714 28.6381 35.9714 28.6381C35.9714 28.6381 37.508 28.3061 37.8721 27.7478C38.2363 27.1894 38.2119 26.3208 37.8176 25.8075C37.4233 25.2942 36.8085 25.3308 36.4444 25.8891Z" fill="#05064E"/>
<path d="M38.0433 36.6039C37.8698 36.8943 37.7595 37.626 37.6935 38.2616L38.0202 38.6411L37.6698 38.506C37.6265 38.9818 37.6095 39.3531 37.6095 39.3531C37.6095 39.3531 39.0164 39.0206 39.35 38.4622C39.6835 37.9037 39.6614 37.035 39.3006 36.5219C38.9398 36.0088 38.3769 36.0455 38.0433 36.6039Z" fill="#05064E"/>
<path d="M30.3454 7.08787C30.3454 7.08787 32.1509 6.77462 32.5435 9.12402C32.936 11.4734 33.9565 16.0939 33.9565 16.0939L33.6762 23.144L31.0519 22.2807L31.1304 16.8771L29.7958 8.81077L30.3454 7.08787Z" fill="#D0CDE1"/>
<path opacity="0.15" d="M29.6781 10.2596L30.6986 16.9162L30.4631 22.5548L31.5622 17.0728L29.6781 10.2596Z" fill="black"/>
<path d="M37.7199 4.76775C37.1985 5.19956 36.2794 7.32196 36.2794 7.32196C36.5735 7.35295 36.8695 7.36229 37.165 7.34991L37.0616 6.78638L37.446 7.32741C37.596 7.31139 37.7442 7.28147 37.8886 7.23803L37.7294 6.37074L38.2265 7.07025C38.2302 7.06733 38.234 7.0645 38.2376 7.06153C38.759 6.62972 39.0658 5.7662 38.9229 5.13279C38.7799 4.49938 38.2414 4.33595 37.7199 4.76775Z" fill="#05064E"/>
</g>
<defs>
<clipPath id="clip0_3_1086">
<rect width="50" height="50" fill="white" transform="translate(0.5)"/>
</clipPath>
</defs>
</svg>
