<svg width="109" height="130" viewBox="0 0 109 130" fill="none" xmlns="http://www.w3.org/2000/svg">
<g clip-path="url(#clip0_5_1194)">
<path d="M94.0643 108.076C94.0117 107.911 93.6131 107.983 93.5748 107.836C93.5367 107.689 93.9192 107.566 94.2126 107.151C94.2655 107.077 94.5989 106.606 94.471 106.408C94.2286 106.032 92.5423 106.967 92.1375 106.443C92.0486 106.327 92.0121 106.13 91.7474 105.762C91.6422 105.616 91.5746 105.545 91.4939 105.547C91.3794 105.55 91.3384 105.697 91.1585 105.963C90.8885 106.362 90.7911 106.312 90.6133 106.638C90.4813 106.881 90.4657 107.036 90.3705 107.045C90.2358 107.058 90.1801 106.756 90.0156 106.744C89.8476 106.732 89.6795 107.031 89.5962 107.264C89.4399 107.702 89.5367 108.036 89.5582 108.369C89.5815 108.732 89.5267 109.262 89.1427 109.943L85.5205 115.858C86.2984 114.652 88.5066 111.364 89.3962 110.157C89.653 109.809 89.929 109.46 90.3538 109.394C90.7628 109.331 91.2604 109.538 91.955 109.526C92.0361 109.525 92.2619 109.518 92.3168 109.395C92.3622 109.294 92.2495 109.205 92.2905 109.11C92.3455 108.982 92.593 109.037 92.9302 108.952C93.168 108.892 93.3296 108.793 93.4685 108.708C93.5104 108.683 94.1343 108.295 94.0643 108.076Z" fill="#F2F2F2"/>
<path d="M84.5772 109.457C84.4831 109.436 84.4028 109.657 84.3211 109.634C84.2397 109.611 84.2911 109.383 84.1773 109.115C84.1568 109.067 84.0275 108.764 83.8958 108.771C83.6461 108.784 83.6072 109.903 83.2392 109.955C83.1584 109.966 83.0532 109.928 82.8007 109.955C82.7003 109.965 82.647 109.979 82.6247 110.02C82.5931 110.079 82.6515 110.142 82.727 110.309C82.8401 110.56 82.788 110.594 82.8932 110.778C82.9713 110.914 83.041 110.967 83.0179 111.018C82.9853 111.089 82.8246 111.03 82.7715 111.109C82.7173 111.19 82.8117 111.361 82.8993 111.47C83.0638 111.675 83.2519 111.723 83.4177 111.808C83.5979 111.901 83.836 112.082 84.0511 112.471L85.8385 116C85.4855 115.261 84.5481 113.201 84.2272 112.406C84.1346 112.176 84.0468 111.936 84.1379 111.704C84.2255 111.48 84.4684 111.289 84.6631 110.936C84.6858 110.895 84.7476 110.779 84.7048 110.716C84.6693 110.664 84.5946 110.696 84.5608 110.648C84.5154 110.583 84.6131 110.474 84.6697 110.28C84.7097 110.143 84.7089 110.033 84.7083 109.939C84.7081 109.911 84.7026 109.485 84.5772 109.457Z" fill="#F2F2F2"/>
<path d="M86.3604 110.318L86.4165 109.786L86.451 109.753C86.6104 109.598 86.7102 109.435 86.7476 109.266C86.7535 109.24 86.7581 109.212 86.7628 109.185C86.7815 109.076 86.8047 108.94 86.9072 108.799C86.9646 108.72 87.1164 108.542 87.2729 108.604C87.3152 108.621 87.3437 108.649 87.3635 108.678C87.3685 108.673 87.3736 108.668 87.379 108.662C87.4467 108.595 87.494 108.57 87.5395 108.547C87.5746 108.528 87.6107 108.51 87.6719 108.459C87.6987 108.437 87.7202 108.418 87.7383 108.401C87.7933 108.351 87.8635 108.292 87.9598 108.315C88.0618 108.344 88.0968 108.443 88.12 108.51C88.1615 108.627 88.1742 108.708 88.1827 108.762C88.1857 108.782 88.1892 108.804 88.1919 108.811C88.2142 108.869 88.4946 108.884 88.6 108.89C88.8371 108.903 89.0423 108.914 89.0916 109.081C89.127 109.2 89.0532 109.33 88.866 109.477C88.8077 109.523 88.7494 109.554 88.6986 109.578C88.7298 109.608 88.7547 109.649 88.7562 109.706C88.7597 109.838 88.6268 109.94 88.3614 110.009C88.2954 110.026 88.2067 110.049 88.0906 110.043C88.0359 110.04 87.988 110.032 87.9472 110.024C87.9411 110.048 87.93 110.072 87.9098 110.096C87.8508 110.165 87.7554 110.183 87.6259 110.144C87.4829 110.103 87.3699 110.047 87.2703 109.999C87.1832 109.956 87.1081 109.92 87.0451 109.91C86.928 109.893 86.8187 109.967 86.688 110.066L86.3604 110.318Z" fill="#F2F2F2"/>
<path d="M87.2953 107.29L86.7794 107.369L86.7391 107.343C86.5529 107.224 86.3732 107.167 86.2048 107.173C86.1781 107.173 86.1513 107.176 86.1241 107.178C86.0162 107.187 85.8821 107.199 85.7229 107.133C85.6341 107.096 85.4279 106.991 85.4468 106.82C85.4514 106.774 85.4706 106.738 85.4937 106.711C85.4876 106.707 85.4814 106.704 85.4748 106.7C85.394 106.65 85.3588 106.609 85.3248 106.57C85.2986 106.54 85.2717 106.509 85.2088 106.461C85.1813 106.44 85.1571 106.423 85.1369 106.41C85.0755 106.368 85.0021 106.313 84.9997 106.212C85.0008 106.104 85.0861 106.044 85.1425 106.004C85.2431 105.933 85.3164 105.9 85.3649 105.878C85.3827 105.87 85.4026 105.861 85.4087 105.856C85.4575 105.819 85.4005 105.538 85.3796 105.431C85.3319 105.193 85.2906 104.987 85.4352 104.896C85.5385 104.83 85.6798 104.871 85.8663 105.019C85.9243 105.065 85.9689 105.115 86.0041 105.159C86.0248 105.121 86.0573 105.085 86.1099 105.07C86.2343 105.033 86.3641 105.138 86.4963 105.384C86.5293 105.445 86.5733 105.527 86.5973 105.644C86.6086 105.699 86.6126 105.749 86.6154 105.791C86.6395 105.791 86.6657 105.796 86.693 105.81C86.7734 105.851 86.8142 105.941 86.8102 106.079C86.8079 106.231 86.7842 106.357 86.7634 106.469C86.7454 106.566 86.7301 106.649 86.7367 106.714C86.7506 106.835 86.8482 106.924 86.9745 107.029L87.2953 107.29Z" fill="#F2F2F2"/>
<path d="M87.3649 105.702L87.4211 105.17L87.4555 105.137C87.615 104.982 87.7147 104.818 87.7521 104.65C87.758 104.623 87.7627 104.596 87.7674 104.569C87.786 104.459 87.8092 104.323 87.9117 104.182C87.9691 104.104 88.1209 103.926 88.2775 103.988C88.3197 104.004 88.3482 104.032 88.368 104.062C88.373 104.057 88.3781 104.052 88.3836 104.046C88.4512 103.979 88.4985 103.954 88.5441 103.93C88.5791 103.912 88.6152 103.893 88.6764 103.843C88.7033 103.821 88.7248 103.801 88.7429 103.785C88.7978 103.734 88.8681 103.676 88.9643 103.699C89.0663 103.728 89.1013 103.827 89.1245 103.893C89.166 104.011 89.1787 104.092 89.1872 104.146C89.1902 104.165 89.1938 104.188 89.1964 104.195C89.2188 104.252 89.4991 104.267 89.6046 104.274C89.8416 104.287 90.0468 104.298 90.0961 104.465C90.1315 104.584 90.0578 104.713 89.8705 104.861C89.8122 104.907 89.7539 104.938 89.7031 104.962C89.7343 104.992 89.7592 105.033 89.7608 105.089C89.7642 105.222 89.6313 105.324 89.3659 105.393C89.3 105.41 89.2112 105.433 89.0951 105.427C89.0405 105.424 88.9926 105.416 88.9517 105.408C88.9457 105.431 88.9345 105.456 88.9144 105.48C88.8553 105.549 88.7599 105.567 88.6304 105.528C88.4874 105.487 88.3745 105.431 88.2748 105.382C88.1877 105.34 88.1126 105.304 88.0497 105.294C87.9325 105.277 87.8233 105.351 87.6925 105.45L87.3649 105.702Z" fill="#F2F2F2"/>
<path d="M85.6918 115.888L85.6006 115.795L85.4738 115.782C85.4744 115.769 85.4735 115.741 85.4726 115.696C85.4677 115.452 85.4526 114.707 85.5537 113.564C85.6243 112.765 85.7423 111.955 85.9044 111.155C86.0668 110.353 86.2353 109.757 86.3706 109.277C86.4728 108.916 86.5759 108.573 86.6765 108.239C86.9451 107.347 87.1987 106.504 87.3558 105.542C87.3909 105.327 87.4639 104.881 87.3145 104.353C87.2278 104.047 87.0793 103.759 86.8731 103.498L87.0727 103.333C87.3003 103.622 87.4644 103.941 87.5607 104.28C87.7264 104.865 87.6469 105.352 87.6087 105.586C87.4488 106.564 87.1927 107.415 86.9215 108.316C86.8213 108.649 86.7186 108.99 86.6169 109.351C86.4827 109.825 86.3157 110.417 86.1555 111.208C85.9952 111.999 85.8787 112.799 85.8089 113.587C85.7091 114.717 85.7241 115.45 85.729 115.691C85.7316 115.819 85.7321 115.846 85.6918 115.888Z" fill="#F2F2F2"/>
<path d="M86.3255 103.8C86.3153 103.798 86.3049 103.795 86.2946 103.792C86.0841 103.732 85.9152 103.556 85.7926 103.27C85.7352 103.135 85.7216 102.993 85.6946 102.711C85.6903 102.667 85.6716 102.447 85.6946 102.155C85.7096 101.964 85.7296 101.887 85.7803 101.827C85.8366 101.76 85.9124 101.722 85.9925 101.702C85.9947 101.677 86.0028 101.652 86.0188 101.629C86.0847 101.532 86.195 101.572 86.2549 101.593C86.285 101.604 86.3226 101.618 86.3649 101.625C86.4313 101.637 86.471 101.625 86.531 101.607C86.5885 101.59 86.6599 101.569 86.7587 101.571C86.9536 101.573 87.0978 101.663 87.1454 101.693C87.3959 101.847 87.4824 102.093 87.5825 102.378C87.6023 102.435 87.6683 102.642 87.6837 102.907C87.6948 103.099 87.6703 103.178 87.6422 103.234C87.5847 103.349 87.4968 103.403 87.2785 103.515C87.0504 103.633 86.936 103.692 86.8422 103.723C86.6239 103.793 86.4868 103.837 86.3255 103.8Z" fill="#F2F2F2"/>
<path d="M27.8335 108.076C27.7809 107.911 27.3822 107.983 27.344 107.836C27.3058 107.689 27.6883 107.566 27.9817 107.151C28.0346 107.077 28.368 106.606 28.2402 106.408C27.9978 106.032 26.3114 106.967 25.9066 106.443C25.8178 106.327 25.7813 106.13 25.5166 105.762C25.4113 105.616 25.3438 105.545 25.2631 105.547C25.1486 105.55 25.1076 105.697 24.9276 105.963C24.6577 106.362 24.5603 106.312 24.3825 106.638C24.2505 106.881 24.2348 107.036 24.1397 107.045C24.005 107.058 23.9493 106.756 23.7847 106.744C23.6168 106.732 23.4487 107.031 23.3654 107.264C23.209 107.702 23.3059 108.036 23.3273 108.369C23.3506 108.732 23.2959 109.262 22.9119 109.943L19.2897 115.858C20.0676 114.652 22.2757 111.364 23.1654 110.157C23.4222 109.809 23.6982 109.46 24.123 109.394C24.532 109.331 25.0296 109.538 25.7242 109.526C25.8053 109.525 26.0311 109.518 26.086 109.395C26.1314 109.294 26.0186 109.205 26.0597 109.11C26.1147 108.982 26.3621 109.037 26.6994 108.952C26.9372 108.892 27.0987 108.793 27.2376 108.708C27.2795 108.683 27.9035 108.295 27.8335 108.076Z" fill="#F2F2F2"/>
<path d="M18.3464 109.457C18.2522 109.436 18.172 109.657 18.0903 109.634C18.0089 109.611 18.0602 109.383 17.9465 109.115C17.926 109.067 17.7967 108.764 17.665 108.771C17.4153 108.784 17.3764 109.903 17.0084 109.955C16.9276 109.966 16.8224 109.928 16.5699 109.955C16.4694 109.965 16.4161 109.979 16.3938 110.02C16.3622 110.079 16.4207 110.142 16.4961 110.309C16.6093 110.56 16.5572 110.594 16.6624 110.778C16.7405 110.914 16.8102 110.967 16.7871 111.018C16.7544 111.089 16.5937 111.03 16.5406 111.109C16.4864 111.19 16.5809 111.361 16.6685 111.47C16.8329 111.675 17.021 111.723 17.1869 111.808C17.3671 111.901 17.6052 112.082 17.8203 112.471L19.6076 116C19.2547 115.261 18.3172 113.201 17.9964 112.406C17.9037 112.176 17.816 111.936 17.907 111.704C17.9947 111.48 18.2376 111.289 18.4322 110.936C18.455 110.895 18.5168 110.779 18.4739 110.716C18.4385 110.664 18.3637 110.696 18.3299 110.648C18.2846 110.583 18.3822 110.474 18.4389 110.28C18.4788 110.143 18.4781 110.033 18.4774 109.939C18.4772 109.911 18.4718 109.485 18.3464 109.457Z" fill="#F2F2F2"/>
<path d="M20.1295 110.318L20.1857 109.786L20.2202 109.753C20.3796 109.598 20.4793 109.435 20.5167 109.266C20.5227 109.24 20.5273 109.212 20.532 109.185C20.5507 109.076 20.5738 108.94 20.6764 108.799C20.7337 108.72 20.8855 108.542 21.0421 108.604C21.0843 108.621 21.1129 108.649 21.1327 108.678C21.1377 108.673 21.1427 108.668 21.1482 108.662C21.2158 108.595 21.2631 108.57 21.3087 108.547C21.3437 108.528 21.3799 108.51 21.4411 108.459C21.4679 108.437 21.4894 108.418 21.5075 108.401C21.5624 108.351 21.6327 108.292 21.729 108.315C21.831 108.344 21.866 108.443 21.8892 108.51C21.9306 108.627 21.9434 108.708 21.9518 108.762C21.9549 108.782 21.9584 108.804 21.9611 108.811C21.9834 108.869 22.2637 108.884 22.3692 108.89C22.6063 108.903 22.8114 108.914 22.8608 109.081C22.8962 109.2 22.8224 109.33 22.6352 109.477C22.5768 109.523 22.5185 109.554 22.4677 109.578C22.499 109.608 22.5239 109.649 22.5254 109.706C22.5288 109.838 22.396 109.94 22.1305 110.009C22.0646 110.026 21.9759 110.049 21.8598 110.043C21.8051 110.04 21.7572 110.032 21.7164 110.024C21.7103 110.048 21.6991 110.072 21.679 110.096C21.6199 110.165 21.5245 110.183 21.395 110.144C21.2521 110.103 21.1391 110.047 21.0394 109.999C20.9524 109.956 20.8773 109.92 20.8143 109.91C20.6971 109.893 20.5879 109.967 20.4571 110.066L20.1295 110.318Z" fill="#F2F2F2"/>
<path d="M21.0645 107.29L20.5485 107.369L20.5083 107.343C20.3221 107.224 20.1424 107.167 19.974 107.173C19.9472 107.173 19.9205 107.176 19.8933 107.178C19.7854 107.187 19.6513 107.199 19.4921 107.133C19.4033 107.096 19.1971 106.991 19.216 106.82C19.2206 106.774 19.2398 106.738 19.2629 106.711C19.2568 106.707 19.2506 106.704 19.2439 106.7C19.1632 106.65 19.1279 106.609 19.094 106.57C19.0678 106.54 19.0409 106.509 18.978 106.461C18.9505 106.44 18.9263 106.423 18.906 106.41C18.8447 106.368 18.7713 106.313 18.7689 106.212C18.77 106.104 18.8552 106.044 18.9117 106.004C19.0123 105.933 19.0855 105.9 19.1341 105.878C19.1518 105.87 19.1718 105.861 19.1779 105.856C19.2267 105.819 19.1697 105.538 19.1488 105.431C19.1011 105.193 19.0598 104.987 19.2043 104.896C19.3077 104.83 19.449 104.871 19.6354 105.019C19.6935 105.065 19.7381 105.115 19.7733 105.159C19.7939 105.121 19.8265 105.085 19.879 105.07C20.0035 105.033 20.1333 105.138 20.2654 105.384C20.2985 105.445 20.3425 105.527 20.3665 105.644C20.3778 105.699 20.3818 105.749 20.3846 105.791C20.4087 105.791 20.4349 105.796 20.4622 105.81C20.5426 105.851 20.5834 105.941 20.5794 106.079C20.5771 106.231 20.5534 106.357 20.5326 106.469C20.5145 106.566 20.4993 106.649 20.5059 106.714C20.5198 106.835 20.6174 106.924 20.7437 107.029L21.0645 107.29Z" fill="#F2F2F2"/>
<path d="M21.1341 105.702L21.1902 105.17L21.2247 105.137C21.3841 104.982 21.4839 104.818 21.5213 104.65C21.5272 104.623 21.5318 104.596 21.5365 104.569C21.5552 104.459 21.5784 104.323 21.6809 104.182C21.7383 104.104 21.8901 103.926 22.0466 103.988C22.0889 104.004 22.1174 104.032 22.1372 104.062C22.1422 104.057 22.1473 104.052 22.1527 104.046C22.2204 103.979 22.2677 103.954 22.3132 103.93C22.3482 103.912 22.3844 103.893 22.4456 103.843C22.4724 103.821 22.4939 103.801 22.512 103.785C22.567 103.734 22.6372 103.676 22.7335 103.699C22.8355 103.728 22.8705 103.827 22.8937 103.893C22.9351 104.011 22.9479 104.092 22.9564 104.146C22.9594 104.165 22.9629 104.188 22.9656 104.195C22.9879 104.252 23.2683 104.267 23.3737 104.274C23.6108 104.287 23.816 104.298 23.8653 104.465C23.9007 104.584 23.8269 104.713 23.6397 104.861C23.5814 104.907 23.5231 104.938 23.4723 104.962C23.5035 104.992 23.5284 105.033 23.5299 105.089C23.5334 105.222 23.4005 105.324 23.1351 105.393C23.0691 105.41 22.9804 105.433 22.8643 105.427C22.8096 105.424 22.7617 105.416 22.7209 105.408C22.7148 105.431 22.7037 105.456 22.6835 105.48C22.6245 105.549 22.529 105.567 22.3996 105.528C22.2566 105.487 22.1436 105.431 22.0439 105.382C21.9569 105.34 21.8818 105.304 21.8188 105.294C21.7017 105.277 21.5924 105.351 21.4617 105.45L21.1341 105.702Z" fill="#F2F2F2"/>
<path d="M19.461 115.888L19.3697 115.795L19.2429 115.782C19.2435 115.769 19.2427 115.741 19.2418 115.696C19.2369 115.452 19.2217 114.707 19.3229 113.564C19.3935 112.765 19.5115 111.955 19.6736 111.155C19.8359 110.353 20.0045 109.757 20.1398 109.277C20.2419 108.916 20.345 108.573 20.4457 108.239C20.7143 107.347 20.9679 106.504 21.1249 105.542C21.1601 105.327 21.2331 104.881 21.0836 104.353C20.9969 104.047 20.8485 103.759 20.6423 103.498L20.8419 103.333C21.0694 103.622 21.2336 103.941 21.3299 104.28C21.4956 104.865 21.416 105.352 21.3778 105.586C21.218 106.564 20.9619 107.415 20.6906 108.316C20.5905 108.649 20.4877 108.99 20.386 109.351C20.2519 109.825 20.0849 110.417 19.9247 111.208C19.7644 111.999 19.6479 112.799 19.5781 113.587C19.4783 114.717 19.4933 115.45 19.4982 115.691C19.5007 115.819 19.5013 115.846 19.461 115.888Z" fill="#F2F2F2"/>
<path d="M20.0947 103.8C20.0844 103.798 20.0741 103.795 20.0638 103.792C19.8533 103.732 19.6844 103.556 19.5617 103.27C19.5043 103.135 19.4908 102.993 19.4638 102.711C19.4595 102.667 19.4408 102.447 19.4638 102.155C19.4788 101.964 19.4988 101.887 19.5495 101.827C19.6058 101.76 19.6816 101.722 19.7617 101.702C19.7639 101.677 19.7719 101.652 19.7879 101.629C19.8538 101.532 19.9642 101.572 20.024 101.593C20.0542 101.604 20.0918 101.618 20.1341 101.625C20.2005 101.637 20.2402 101.625 20.3002 101.607C20.3577 101.59 20.4291 101.569 20.5279 101.571C20.7227 101.573 20.867 101.663 20.9145 101.693C21.165 101.847 21.2515 102.093 21.3516 102.378C21.3715 102.435 21.4375 102.642 21.4529 102.907C21.464 103.099 21.4395 103.178 21.4113 103.234C21.3539 103.349 21.2659 103.403 21.0477 103.515C20.8196 103.633 20.7052 103.692 20.6114 103.723C20.3931 103.793 20.256 103.837 20.0947 103.8Z" fill="#F2F2F2"/>
<path d="M75.7861 14H34.7483C31.9491 14 29.68 16.3257 29.68 19.1947V110.516C29.68 113.385 31.9491 115.71 34.7483 115.71H75.7861C78.5854 115.71 80.8544 113.385 80.8544 110.516V19.1947C80.8544 16.3257 78.5854 14 75.7861 14ZM74.0695 108.096C74.0695 110.224 72.3855 111.948 70.3095 111.948H40.6704C38.5944 111.948 36.9119 110.224 36.9119 108.096V27.088C36.9119 24.9602 38.5944 23.2358 40.6704 23.2358H70.3095C72.3855 23.2358 74.0695 24.9602 74.0695 27.088V108.096Z" fill="#E6E6E6"/>
<path d="M72.2888 63.6011C73.0261 63.6011 73.6238 62.9885 73.6238 62.2328C73.6238 61.4771 73.0261 60.8645 72.2888 60.8645C71.5515 60.8645 70.9538 61.4771 70.9538 62.2328C70.9538 62.9885 71.5515 63.6011 72.2888 63.6011Z" fill="#E6E6E6"/>
<path d="M72.3206 68.9373C73.0579 68.9373 73.6556 68.3247 73.6556 67.569C73.6556 66.8133 73.0579 66.2007 72.3206 66.2007C71.5833 66.2007 70.9856 66.8133 70.9856 67.569C70.9856 68.3247 71.5833 68.9373 72.3206 68.9373Z" fill="#E6E6E6"/>
<path d="M50.3452 28.3102H43.2796C42.2223 28.3102 41.361 29.1915 41.361 30.2752V77.6549C41.361 78.7401 42.2223 79.6213 43.2796 79.6213H50.3452C50.6986 79.6213 51.0298 79.5224 51.3149 79.3519C51.6624 79.1434 51.9386 78.8253 52.1019 78.4448C52.2059 78.2028 52.2638 77.9364 52.2638 77.6549V30.2752C52.2638 29.1915 51.404 28.3102 50.3452 28.3102ZM51.8183 77.6549C51.8183 78.0628 51.6594 78.4342 51.3995 78.7066L51.3981 78.7081C51.3713 78.737 51.3446 78.7644 51.3149 78.7903C51.055 79.0232 50.7165 79.1647 50.3452 79.1647H43.2796C42.4673 79.1647 41.8065 78.4874 41.8065 77.6549V30.2752C41.8065 29.4426 42.4673 28.7653 43.2796 28.7653H50.3452C51.1575 28.7653 51.8183 29.4426 51.8183 30.2752L51.8183 77.6549Z" fill="#E6E6E6"/>
<path d="M67.2563 28.3102H60.1892C59.1319 28.3102 58.2706 29.1915 58.2706 30.2752V77.6549C58.2706 78.7401 59.1319 79.6213 60.1892 79.6213H67.2563C68.3137 79.6213 69.1735 78.7401 69.1735 77.6549V30.2752C69.1735 29.1915 68.3137 28.3102 67.2563 28.3102ZM68.7295 77.6549C68.7295 78.4874 68.0686 79.1647 67.2563 79.1647H60.1892C59.3769 79.1647 58.7161 78.4874 58.7161 77.6549V30.2752C58.7161 29.4426 59.3769 28.7653 60.1892 28.7653H67.2563C68.0686 28.7653 68.7295 29.4426 68.7295 30.2752V77.6549Z" fill="#E6E6E6"/>
<path d="M47.35 86.4401L45.3675 86.431V86.6912H51.1248C51.1887 86.6912 51.2525 86.6958 51.3149 86.7034V86.4599L47.35 86.4401ZM52.0218 86.4629C51.8079 86.3457 51.5688 86.2696 51.3149 86.2453C51.2525 86.2377 51.1887 86.2346 51.1248 86.2346H44.0577C43.7667 86.2346 43.4919 86.3016 43.2454 86.4203C42.5935 86.7354 42.1406 87.4157 42.1406 88.2011V103.881C42.1406 104.965 43.0004 105.848 44.0577 105.848H51.1248C51.1887 105.848 51.2525 105.845 51.3149 105.837C52.2831 105.74 53.0419 104.899 53.0419 103.881V88.2011C53.0419 87.4492 52.6276 86.7947 52.0218 86.4629ZM52.5979 103.881C52.5979 104.648 52.0381 105.283 51.3149 105.379C51.2525 105.386 51.1887 105.391 51.1248 105.391H44.0577C43.2454 105.391 42.5846 104.714 42.5846 103.881V88.2011C42.5846 87.3685 43.2454 86.6912 44.0577 86.6912H51.1248C51.1887 86.6912 51.2525 86.6958 51.3149 86.7034C52.0381 86.7993 52.5979 87.434 52.5979 88.2011V103.881ZM51.1248 86.2346H47.35V86.6912H51.1248C51.1887 86.6912 51.2525 86.6958 51.3149 86.7034V86.2453C51.2525 86.2377 51.1887 86.2346 51.1248 86.2346Z" fill="#E6E6E6"/>
<path d="M61.0936 86.5071V86.6912H64.0948V86.5223L61.0936 86.5071ZM69.068 86.5451C68.8289 86.3883 68.5527 86.2833 68.2572 86.2483C68.1845 86.2392 68.1102 86.2346 68.0345 86.2346H60.9674C60.6154 86.2346 60.2872 86.332 60.0036 86.5025C59.4334 86.8434 59.0502 87.4781 59.0502 88.2011V103.881C59.0502 104.965 59.9101 105.848 60.9674 105.848H68.0345C69.0918 105.848 69.9531 104.965 69.9531 103.881V88.2011C69.9531 87.507 69.5997 86.8952 69.068 86.5451ZM69.5076 103.881C69.5076 104.714 68.8468 105.391 68.0345 105.391H60.9674C60.1551 105.391 59.4957 104.714 59.4957 103.881V88.2011C59.4957 87.3685 60.1551 86.6912 60.9674 86.6912H68.0345C68.8468 86.6912 69.5076 87.3685 69.5076 88.2011V103.881Z" fill="#E6E6E6"/>
<path d="M63.6323 78.3413C64.0274 79.3284 64.8446 79.9196 65.4575 79.6618C66.0704 79.404 66.2468 78.3949 65.8514 77.4074C65.6987 77.0108 65.4556 76.6573 65.1423 76.3767L63.4167 72.2159L61.5289 73.0875L63.4305 77.0968C63.3998 77.5222 63.469 77.949 63.6323 78.3413Z" fill="#FFB6B6"/>
<path d="M59.5534 52.141L60.5428 51.7354C61.7074 53.5921 62.348 55.7428 62.3938 57.9496L62.5216 64.1072L65.292 74.6537L62.1259 75.8706L58.1683 62.6875L59.5534 52.141Z" fill="#2F2E41"/>
<path d="M61.5944 81.5671C61.4699 81.5671 61.3437 81.5479 61.2196 81.5082L57.8524 80.43C57.4628 80.3052 57.1665 80.0057 57.0394 79.6081C56.9123 79.2104 56.9783 78.7892 57.2203 78.4522L66.6223 65.369C66.8515 65.05 67.2047 64.8606 67.5911 64.8494C67.9799 64.8375 68.3404 65.0069 68.5868 65.3122L70.503 67.6862C70.8574 68.1251 70.8841 68.7589 70.568 69.2275L62.617 81.015C62.3789 81.3681 61.9955 81.5671 61.5944 81.5671Z" fill="#6C63FF"/>
<path d="M69.1283 69.8147C69.0884 69.8147 69.0486 69.7983 69.0194 69.7659L66.9931 67.5272C66.9372 67.4656 66.9408 67.3693 67.0009 67.3121C67.0609 67.255 67.1551 67.2584 67.2107 67.3202L69.2371 69.559C69.2929 69.6205 69.2894 69.7169 69.2293 69.7741C69.2007 69.8013 69.1644 69.8147 69.1283 69.8147Z" fill="white"/>
<path d="M68.2373 71.1845C68.1974 71.1845 68.1576 71.1681 68.1284 71.1357L66.1021 68.8971C66.0462 68.8354 66.0498 68.7391 66.1099 68.682C66.17 68.6248 66.264 68.6282 66.3197 68.69L68.3461 70.9288C68.4019 70.9904 68.3984 71.0867 68.3383 71.1439C68.3097 71.1711 68.2734 71.1845 68.2373 71.1845Z" fill="white"/>
<path d="M67.1978 72.7065C67.1579 72.7065 67.1181 72.6902 67.0889 72.6578L65.0626 70.419C65.0067 70.3575 65.0103 70.2612 65.0704 70.2039C65.1305 70.1469 65.2245 70.1503 65.2802 70.2121L67.3066 72.4509C67.3624 72.5124 67.3589 72.6087 67.2988 72.666C67.2702 72.6932 67.2339 72.7065 67.1978 72.7065Z" fill="white"/>
<path d="M66.1583 74.0764C66.1184 74.0764 66.0786 74.06 66.0494 74.0276L64.0231 71.7889C63.9672 71.7273 63.9708 71.631 64.0309 71.5738C64.0909 71.5167 64.185 71.5201 64.2407 71.582L66.2671 73.8207C66.3229 73.8823 66.3194 73.9786 66.2593 74.0358C66.2307 74.063 66.1944 74.0764 66.1583 74.0764Z" fill="white"/>
<path d="M65.1188 75.4462C65.0789 75.4462 65.0392 75.4299 65.0099 75.3975L62.9836 73.1587C62.9277 73.0972 62.9313 73.0009 62.9914 72.9436C63.0514 72.8864 63.1455 72.89 63.2013 72.9518L65.2276 75.1906C65.2834 75.2521 65.2799 75.3484 65.2198 75.4056C65.1912 75.4328 65.1549 75.4462 65.1188 75.4462Z" fill="white"/>
<path d="M63.9308 76.6639C63.8909 76.6639 63.8511 76.6475 63.8219 76.6151L61.7956 74.3763C61.7397 74.3148 61.7433 74.2185 61.8034 74.1613C61.8634 74.104 61.9576 74.1076 62.0132 74.1694L64.0396 76.4082C64.0954 76.4697 64.0919 76.566 64.0318 76.6233C64.0032 76.6505 63.9669 76.6639 63.9308 76.6639Z" fill="white"/>
<path d="M57.0471 114.462L59.2938 113.767L57.7494 104.554L54.4335 105.58L57.0471 114.462Z" fill="#FFB6B6"/>
<path d="M64.7294 112.03C64.8349 112.13 64.9865 112.508 65.0278 112.648C65.1548 113.08 64.9164 113.535 64.4952 113.666L57.5372 115.816C57.2499 115.905 56.9468 115.738 56.8601 115.444L56.7728 115.147C56.7728 115.147 56.1661 114.361 56.5511 113.042C56.5511 113.042 57.6853 113.631 58.6045 111.875L58.7806 111.035L62.2095 112.272L63.8244 111.987C64.1777 111.925 64.4652 111.782 64.7294 112.03Z" fill="#2F2E41"/>
<path d="M47.4824 109.65L49.2665 111.213L55.9958 104.903L53.3627 102.597L47.4824 109.65Z" fill="#FFB6B6"/>
<path d="M53.629 114.963C53.6046 115.107 53.3759 115.442 53.2829 115.554C52.9971 115.897 52.4944 115.937 52.16 115.644L46.6353 110.805C46.4072 110.605 46.3803 110.253 46.5752 110.02L46.7718 109.784C46.7718 109.784 47.0893 108.836 48.3802 108.455C48.3802 108.455 48.5093 109.752 50.4474 109.596L51.2326 109.294L52.0691 112.92L53.1754 114.159C53.4175 114.43 53.6902 114.601 53.629 114.963Z" fill="#2F2E41"/>
<path d="M56.5482 47.6744C58.6219 47.6744 60.3029 45.9515 60.3029 43.8261C60.3029 41.7007 58.6219 39.9777 56.5482 39.9777C54.4746 39.9777 52.7936 41.7007 52.7936 43.8261C52.7936 45.9515 54.4746 47.6744 56.5482 47.6744Z" fill="#FFB6B6"/>
<path d="M53.5181 47.5776L58.4651 49.2002L59.0587 51.0255L58.8609 57.9213L52.3308 50.0114L53.5181 47.5776Z" fill="#6C63FF"/>
<path d="M62.3238 51.7354L58.6624 49.8067V56.5351L53.0469 48.5435L51.8361 49.8086L46.6912 53.3579L50.0552 63.7016V68.772L47.2849 76.8847L56.981 82.3607L63.5111 78.5072L61.5323 64.31L62.9174 53.5607L62.3238 51.7354Z" fill="#2F2E41"/>
<path d="M60.9386 77.8988L64.8962 93.1101L53.0234 108.727L50.0552 105.685L58.663 91.9946L51.0446 77.0875L60.9386 77.8988Z" fill="#2F2E41"/>
<path d="M48.67 76.4791L52.8255 93.1101L55.1011 109.312L59.6103 108.727L58.1683 91.0819L55.5958 76.0734L48.67 76.4791Z" fill="#2F2E41"/>
<path d="M55.6948 46.7664V44.8244L56.8821 43.1157L56.4863 42.3331L56.2884 41.3366C56.2884 41.3366 58.8609 42.4114 59.8503 42.2565C60.8397 42.1016 60.246 42.0505 60.5428 41.8732C60.8397 41.6959 61.4333 40.8815 60.5428 40.0718C59.6524 39.2621 60.3426 39.0593 58.5134 39.2621C56.6842 39.465 54.3096 39.465 53.9138 40.0734C53.5181 40.6819 53.5181 41.0875 53.5181 41.0875C53.5181 41.0875 51.1435 41.2903 52.9244 45.7523L53.9138 47.9833L54.3096 47.172C54.3096 47.172 53.9138 44.941 54.5075 45.7523C55.1011 46.5636 55.6948 46.7664 55.6948 46.7664Z" fill="#2F2E41"/>
<path d="M59.6933 56.9028L57.556 51.9451C57.5213 51.8646 57.5212 51.7723 57.5559 51.6918C57.5905 51.6112 57.657 51.5489 57.7384 51.5209L61.721 50.1479C61.8014 50.1201 61.8903 50.1281 61.9649 50.1696C62.0394 50.2112 62.0942 50.2833 62.1152 50.3676L63.4274 55.6318C63.4671 55.7911 63.3788 55.9561 63.2265 56.0075L60.0692 57.074C60.0371 57.0848 60.0046 57.09 59.9726 57.09C59.8544 57.09 59.7436 57.0195 59.6933 56.9028Z" fill="#F2F2F2"/>
<path d="M57.3754 51.4733C57.4275 51.4449 57.4975 51.4074 57.582 51.3636C57.541 51.3287 57.5106 51.2799 57.4993 51.2216L57.4202 50.8166C57.3997 50.7115 57.4469 50.6048 57.5378 50.5518C58.0794 50.236 59.9645 49.2068 61.432 49.2693C61.5238 49.2732 61.605 49.3317 61.6419 49.4179L61.8116 49.8146C61.8326 49.8636 61.8367 49.9154 61.827 49.9638C61.9413 49.9495 62.0559 49.9369 62.1708 49.9274C62.2428 49.9215 62.3113 49.9603 62.3458 50.0252L62.4326 50.1882C62.4876 50.2916 62.4376 50.4208 62.3284 50.4575L57.5531 52.063C57.4444 52.0995 57.3299 52.0266 57.3137 51.9105L57.2797 51.6664C57.2687 51.5877 57.307 51.5106 57.3754 51.4733Z" fill="#3F3D56"/>
<path d="M60.1881 55.1984C60.9766 54.5017 61.265 53.5201 60.8324 53.0058C60.3997 52.4916 59.41 52.6396 58.6213 53.3366C58.3025 53.6106 58.0524 53.9588 57.8919 54.3522L54.5874 57.3472L55.9917 58.9067L59.1002 55.7885C59.5036 55.6837 59.8767 55.4813 60.1881 55.1984Z" fill="#FFB6B6"/>
<path d="M52.5509 68.3944L51.7959 79.1428C51.7497 79.8006 51.2594 80.3335 50.622 80.4234C47.5167 80.8615 44.0761 80.4181 40.3725 79.2837C39.7346 79.0883 39.3344 78.4401 39.4249 77.764L40.8513 67.11C40.9313 66.513 41.3768 66.0347 41.9556 65.9284C44.9695 65.375 48.2252 65.9094 51.5964 66.9638C52.2008 67.1528 52.5962 67.7484 52.5509 68.3944Z" fill="#6C63FF"/>
<path d="M48.0649 61.73C49.6611 61.7996 50.1019 65.7373 50.1377 67.2483L50.5332 67.2385C50.5276 67.0013 50.3698 61.4264 48.0818 61.3246" fill="#3F3D56"/>
<path d="M48.8679 53.5607L46.6912 53.3579L44.7823 62.689C44.4186 64.467 45.5557 66.2029 47.299 66.5309L48.8679 66.8261L59.7513 58.4283L57.2313 54.4986L49.8573 59.2396L48.8679 53.5607Z" fill="#2F2E41"/>
<path d="M50.0606 58.4852C47.8061 58.3863 44.0514 66.0147 43.9854 66.2271L44.3625 66.3504C44.3778 66.3012 48.0894 58.8047 50.0437 58.8906" fill="#3F3D56"/>
<path d="M14.5 115.812C14.5 115.912 14.6374 115.993 14.8085 115.993H92.5882C92.7593 115.993 92.8968 115.912 92.8968 115.812C92.8968 115.711 92.7593 115.631 92.5882 115.631H14.8085C14.6374 115.631 14.5 115.711 14.5 115.812Z" fill="#CCCCCC"/>
</g>
<defs>
<clipPath id="clip0_5_1194">
<rect width="80" height="102" fill="white" transform="translate(14.5 14)"/>
</clipPath>
</defs>
</svg>
