<svg width="145" height="100" viewBox="0 0 145 100" fill="none" xmlns="http://www.w3.org/2000/svg">
<g clip-path="url(#clip0_36_5421)">
<path d="M29.2725 100C45.0883 100 57.9096 99.0262 57.9096 97.825C57.9096 96.6238 45.0883 95.6501 29.2725 95.6501C13.4566 95.6501 0.635345 96.6238 0.635345 97.825C0.635345 99.0262 13.4566 100 29.2725 100Z" fill="#E6E6E6"/>
<path d="M22.525 22.1882C27.5087 20.0685 33.716 21.4115 39.7781 22.3437C39.8346 21.2149 40.5183 19.841 39.8021 19.0535C38.9319 18.0967 39.012 17.0915 39.5356 16.0804C40.8747 13.4949 38.9562 10.7438 37.0191 8.45625C36.5825 7.94182 36.0308 7.53762 35.4086 7.27649C34.7865 7.01536 34.1115 6.90466 33.4385 6.95338L29.8503 7.20969C28.9771 7.27206 28.1438 7.5996 27.4619 8.1485C26.78 8.69739 26.282 9.44146 26.0345 10.2811C25.1777 11.4464 24.7191 12.6085 25.0078 13.7645C23.7245 14.6415 23.5088 15.7001 24.0855 16.8936C24.5745 17.645 24.5693 18.3765 24.0633 19.0877C23.3987 19.9944 22.8897 21.0055 22.5571 22.0794L22.525 22.1882Z" fill="#2F2E41"/>
<path d="M140.959 86.4484H39.3845C38.4812 86.4484 37.6149 86.0896 36.9762 85.4508C36.3375 84.8121 35.9786 83.9458 35.9786 83.0425C72.7993 78.7633 108.928 78.7633 144.365 83.0425C144.365 83.9458 144.006 84.8121 143.367 85.4508C142.728 86.0896 141.862 86.4484 140.959 86.4484Z" fill="#2F2E41"/>
<path d="M144.365 83.2429L35.9786 83.0426L48.5402 61.9063L48.6003 61.8061V15.2241C48.6002 14.6587 48.7116 14.0989 48.9279 13.5765C49.1443 13.0541 49.4614 12.5795 49.8612 12.1797C50.261 11.7799 50.7356 11.4627 51.258 11.2464C51.7804 11.03 52.3403 10.9187 52.9057 10.9187H126.837C127.402 10.9187 127.962 11.03 128.484 11.2464C129.007 11.4627 129.481 11.7799 129.881 12.1797C130.281 12.5795 130.598 13.0541 130.814 13.5765C131.031 14.0989 131.142 14.6587 131.142 15.2241V62.1266L144.365 83.2429Z" fill="#3F3D56"/>
<path d="M52.8075 13.9239C52.4357 13.9243 52.0792 14.0722 51.8163 14.3351C51.5534 14.598 51.4055 14.9545 51.4051 15.3263V57.7992C51.4055 58.171 51.5534 58.5275 51.8163 58.7904C52.0792 59.0533 52.4357 59.2012 52.8075 59.2016H127.536C127.908 59.2012 128.264 59.0533 128.527 58.7904C128.79 58.5275 128.938 58.171 128.938 57.7992V15.3263C128.938 14.9545 128.79 14.598 128.527 14.3351C128.264 14.0722 127.908 13.9243 127.536 13.9239H52.8075Z" fill="white"/>
<path d="M53.1207 64.8113C53.0058 64.8114 52.8933 64.8445 52.7966 64.9065C52.6998 64.9684 52.6228 65.0568 52.5746 65.1611L48.704 73.5755C48.6619 73.6671 48.6434 73.7678 48.6504 73.8683C48.6574 73.9689 48.6895 74.0661 48.7439 74.151C48.7983 74.2358 48.8731 74.3057 48.9615 74.354C49.05 74.4024 49.1491 74.4278 49.2499 74.4278H130.647C130.749 74.4278 130.85 74.4016 130.939 74.3517C131.029 74.3018 131.104 74.2298 131.158 74.1427C131.212 74.0555 131.243 73.9561 131.247 73.8537C131.252 73.7514 131.23 73.6495 131.184 73.5579L126.977 65.1435C126.927 65.0434 126.851 64.9593 126.756 64.9006C126.661 64.8419 126.551 64.8109 126.44 64.8113H53.1207Z" fill="#2F2E41"/>
<path d="M89.8711 13.2227C90.369 13.2227 90.7727 12.8191 90.7727 12.3211C90.7727 11.8232 90.369 11.4196 89.8711 11.4196C89.3732 11.4196 88.9696 11.8232 88.9696 12.3211C88.9696 12.8191 89.3732 13.2227 89.8711 13.2227Z" fill="white"/>
<path d="M81.8705 76.0305C81.7384 76.0307 81.61 76.0743 81.5051 76.1547C81.4002 76.235 81.3247 76.3477 81.2902 76.4752L80.3193 80.0814C80.2953 80.1705 80.2921 80.2639 80.31 80.3544C80.3279 80.4449 80.3664 80.5301 80.4225 80.6033C80.4786 80.6765 80.5508 80.7359 80.6336 80.7767C80.7163 80.8175 80.8073 80.8388 80.8996 80.8388H99.364C99.4598 80.8388 99.5542 80.8159 99.6394 80.7719C99.7246 80.728 99.798 80.6644 99.8535 80.5863C99.9091 80.5083 99.9452 80.418 99.9588 80.3232C99.9724 80.2284 99.9631 80.1316 99.9318 80.0411L98.6835 76.4349C98.6426 76.3168 98.5659 76.2145 98.4641 76.142C98.3623 76.0695 98.2405 76.0306 98.1156 76.0305H81.8705Z" fill="#2F2E41"/>
<path d="M131.142 61.1049V61.9062H48.5402L48.6023 61.8061V61.1049H131.142Z" fill="#2F2E41"/>
<path d="M128.838 28.0481C136.583 28.0481 142.862 21.7694 142.862 14.0241C142.862 6.27879 136.583 0 128.838 0C121.093 0 114.814 6.27879 114.814 14.0241C114.814 21.7694 121.093 28.0481 128.838 28.0481Z" fill="#090C9B"/>
<path d="M134.648 20.1346H123.028C122.816 20.1344 122.612 20.0499 122.462 19.8996C122.311 19.7494 122.227 19.5457 122.227 19.3332V12.3211C122.227 12.1087 122.311 11.905 122.462 11.7547C122.612 11.6045 122.816 11.52 123.028 11.5198H134.648C134.86 11.52 135.064 11.6045 135.214 11.7547C135.365 11.905 135.449 12.1087 135.449 12.3211V19.3332C135.449 19.5457 135.365 19.7494 135.214 19.8996C135.064 20.0499 134.86 20.1344 134.648 20.1346ZM123.028 12.3212V19.3332H134.649L134.648 12.3211L123.028 12.3212Z" fill="white"/>
<path d="M132.444 12.3212H125.232V9.11565C125.232 6.7939 126.748 5.10877 128.838 5.10877C130.928 5.10877 132.444 6.7939 132.444 9.11565L132.444 12.3212ZM126.033 11.5198H131.643V9.11565C131.643 7.22832 130.489 5.91015 128.838 5.91015C127.187 5.91015 126.033 7.22833 126.033 9.11565L126.033 11.5198Z" fill="white"/>
<path d="M128.838 16.4282C129.281 16.4282 129.639 16.0694 129.639 15.6268C129.639 15.1842 129.281 14.8254 128.838 14.8254C128.395 14.8254 128.037 15.1842 128.037 15.6268C128.037 16.0694 128.395 16.4282 128.838 16.4282Z" fill="white"/>
<path d="M119.048 44.7952H61.2953C61.0117 44.7949 60.7399 44.6821 60.5394 44.4816C60.3389 44.2811 60.2261 44.0093 60.2258 43.7257V29.3998C60.2261 29.1162 60.3389 28.8444 60.5394 28.6439C60.7399 28.4434 61.0117 28.3306 61.2953 28.3303H119.048C119.332 28.3306 119.603 28.4434 119.804 28.6439C120.004 28.8444 120.117 29.1162 120.117 29.3998V43.7257C120.117 44.0093 120.004 44.2811 119.804 44.4816C119.603 44.6821 119.332 44.7949 119.048 44.7952ZM61.2953 28.7581C61.1252 28.7583 60.962 28.8259 60.8417 28.9462C60.7214 29.0665 60.6538 29.2296 60.6536 29.3998V43.7257C60.6538 43.8959 60.7214 44.059 60.8417 44.1793C60.962 44.2996 61.1252 44.3673 61.2953 44.3674H119.048C119.218 44.3673 119.381 44.2996 119.502 44.1793C119.622 44.059 119.689 43.8959 119.69 43.7257V29.3998C119.689 29.2296 119.622 29.0665 119.502 28.9462C119.381 28.8259 119.218 28.7583 119.048 28.7581L61.2953 28.7581Z" fill="#E6E6E6"/>
<path d="M70.2689 40.3696C72.6749 40.3696 74.6254 38.4191 74.6254 36.0131C74.6254 33.607 72.6749 31.6565 70.2689 31.6565C67.8628 31.6565 65.9123 33.607 65.9123 36.0131C65.9123 38.4191 67.8628 40.3696 70.2689 40.3696Z" fill="#E6E6E6"/>
<path d="M80.3304 33.1087C80.235 33.1086 80.1405 33.1272 80.0522 33.1636C79.964 33.2001 79.8838 33.2535 79.8163 33.321C79.7487 33.3884 79.6952 33.4685 79.6586 33.5567C79.622 33.6448 79.6032 33.7393 79.6032 33.8348C79.6032 33.9302 79.622 34.0248 79.6586 34.1129C79.6952 34.2011 79.7487 34.2812 79.8163 34.3486C79.8838 34.4161 79.964 34.4695 80.0522 34.5059C80.1405 34.5424 80.235 34.561 80.3304 34.5609H114.56C114.753 34.5609 114.938 34.4844 115.074 34.3482C115.21 34.212 115.287 34.0274 115.287 33.8348C115.287 33.6422 115.21 33.4575 115.074 33.3214C114.938 33.1852 114.753 33.1087 114.56 33.1087H80.3304Z" fill="#E6E6E6"/>
<path d="M80.3305 37.4653C80.1379 37.4653 79.9532 37.5418 79.817 37.6779C79.6809 37.8141 79.6044 37.9988 79.6044 38.1913C79.6044 38.3839 79.6809 38.5686 79.817 38.7048C79.9532 38.8409 80.1379 38.9174 80.3305 38.9174H95.0597C95.2523 38.9174 95.437 38.8409 95.5731 38.7048C95.7093 38.5686 95.7858 38.3839 95.7858 38.1913C95.7858 37.9988 95.7093 37.8141 95.5731 37.6779C95.437 37.5418 95.2523 37.4653 95.0597 37.4653H80.3305Z" fill="#E6E6E6"/>
<path d="M48.3981 37.759L37.722 43.4349L37.5869 38.705C41.0715 38.1232 44.3867 37.1105 47.4521 35.4616L48.5687 32.703C48.6903 32.4024 48.8881 32.1386 49.1425 31.9375C49.3969 31.7365 49.6992 31.605 50.0198 31.556C50.3404 31.5071 50.6681 31.5423 50.971 31.6583C51.2738 31.7743 51.5413 31.9671 51.7471 32.2176C52.0482 32.5843 52.1988 33.0517 52.1682 33.5251C52.1376 33.9986 51.9282 34.4427 51.5824 34.7676L48.3981 37.759Z" fill="#FFB8B8"/>
<path d="M22.3122 70.5294C22.2343 70.2437 22.2178 69.9448 22.2637 69.6524C22.3096 69.3599 22.4169 69.0804 22.5785 68.8323L24.9237 65.2332C25.4784 64.3819 26.3296 63.767 27.312 63.5078C28.2945 63.2486 29.3382 63.3636 30.2406 63.8305C29.255 65.5082 29.3924 66.9799 30.581 68.259C28.7358 69.1598 27.0305 70.3224 25.5177 71.7108C25.2415 71.8991 24.9244 72.0187 24.5926 72.0595C24.2609 72.1004 23.9242 72.0614 23.6106 71.9458C23.297 71.8303 23.0156 71.6414 22.7897 71.395C22.5639 71.1486 22.4001 70.8519 22.3122 70.5294Z" fill="#2F2E41"/>
<path d="M48.8843 65.8234C48.5294 66.4149 48.0285 66.9052 47.4295 67.2473C46.8306 67.5894 46.1538 67.7719 45.464 67.7771L29.8839 67.8951L29.2082 63.9761L36.1004 61.949L30.2894 57.4894L36.6409 50.0567L48.1773 60.8091C48.8516 61.4375 49.2897 62.2784 49.4184 63.1911C49.5471 64.1038 49.3585 65.033 48.8843 65.8234Z" fill="#2F2E41"/>
<path d="M27.4514 92.6257H23.8026C20.5266 70.1695 17.1918 47.6506 27.046 39.2455L38.668 41.1375L37.1815 51.0027L30.6948 58.4353L27.4514 92.6257Z" fill="#2F2E41"/>
<path d="M30.6589 97.7127C30.3732 97.7906 30.0743 97.8071 29.7818 97.7613C29.4893 97.7154 29.2099 97.6081 28.9618 97.4465L25 96.914C24.1487 96.3593 23.5337 95.5082 23.2745 94.5258C23.0152 93.5433 23.1302 92.4996 23.597 91.5972C25.2747 92.5827 26.7465 92.4452 28.0255 91.2565C28.9292 93.0812 30.4181 92.9699 31.8401 94.5072C32.0284 94.7833 32.148 95.1005 32.1889 95.4322C32.2298 95.7639 32.1908 96.1006 32.0752 96.4142C31.9597 96.7278 31.7708 97.0093 31.5245 97.2352C31.2781 97.461 30.9813 97.6247 30.6589 97.7127Z" fill="#2F2E41"/>
<path d="M36.1004 24.245L29.3434 22.6233C30.4656 20.3262 30.558 17.7702 30.0191 15.0555L34.6138 14.9204C34.7578 18.2962 35.1933 21.45 36.1004 24.245Z" fill="#FFB8B8"/>
<path d="M37.9574 45.2064C33.0386 48.5583 29.5631 45.3211 26.9109 40.3266C27.2794 37.2705 26.6827 33.6131 25.5775 29.6391C25.0859 27.8863 25.2695 26.0129 26.0917 24.3888C26.914 22.7647 28.3154 21.5079 30.0191 20.8665L35.8301 23.299C40.7643 27.321 41.7355 31.6776 39.8843 36.2724L37.9574 45.2064Z" fill="#090C9B"/>
<path d="M23.8026 27.6235L18.3971 30.4614L27.992 36.1373L29.327 39.4305C29.4162 39.6503 29.4596 39.8859 29.4546 40.1231C29.4497 40.3602 29.3965 40.5938 29.2983 40.8097C29.2002 41.0256 29.059 41.2193 28.8836 41.3788C28.7081 41.5384 28.502 41.6606 28.2778 41.7379C28.0229 41.8258 27.7511 41.8535 27.4837 41.8188C27.2164 41.7842 26.9607 41.6881 26.7366 41.5381C26.5126 41.3881 26.3263 41.1882 26.1924 40.9542C26.0585 40.7202 25.9806 40.4584 25.9648 40.1893L25.8297 37.8941L13.6347 33.8698C13.2238 33.7342 12.8492 33.5068 12.5392 33.205C12.2292 32.9032 11.9919 32.5348 11.8453 32.1277C11.6317 31.5343 11.6208 30.8868 11.8144 30.2866C12.008 29.6863 12.3951 29.1672 12.9152 28.8104L22.7215 22.0828L23.8026 27.6235Z" fill="#FFB8B8"/>
<path d="M29.2082 28.1641C26.9538 27.1761 24.9037 28.2493 22.3161 29.11L21.9107 21.9476C24.4801 20.5782 26.9298 20.209 29.2082 21.2719L29.2082 28.1641Z" fill="#090C9B"/>
<path d="M31.9051 18.4682C34.2877 18.4682 36.2192 16.5367 36.2192 14.1541C36.2192 11.7715 34.2877 9.84 31.9051 9.84C29.5225 9.84 27.591 11.7715 27.591 14.1541C27.591 16.5367 29.5225 18.4682 31.9051 18.4682Z" fill="#FFB8B8"/>
<path d="M37.0661 13.6098C32.7948 14.0281 29.5401 13.3295 27.46 11.3405V9.73871H36.7036L37.0661 13.6098Z" fill="#2F2E41"/>
</g>
<defs>
<clipPath id="clip0_36_5421">
<rect width="143.729" height="100" fill="white" transform="translate(0.635345)"/>
</clipPath>
</defs>
</svg>
